<?xml version="1.0" encoding="UTF-8" standalone="no"?>
<!-- Created with Inkscape (http://www.inkscape.org/) -->

<svg
   width="48"
   height="48"
   viewBox="0 0 12.7 12.7"
   version="1.1"
   id="svg5"
   sodipodi:docname="logo.svg"
   inkscape:version="1.1.2 (08b2f3d93c, 2022-04-05)"
   xmlns:inkscape="http://www.inkscape.org/namespaces/inkscape"
   xmlns:sodipodi="http://sodipodi.sourceforge.net/DTD/sodipodi-0.dtd"
   xmlns="http://www.w3.org/2000/svg"
   xmlns:svg="http://www.w3.org/2000/svg">
  <sodipodi:namedview
     id="namedview7"
     pagecolor="#ffffff"
     bordercolor="#666666"
     borderopacity="1.0"
     inkscape:pageshadow="2"
     inkscape:pageopacity="0.0"
     inkscape:pagecheckerboard="0"
     inkscape:document-units="mm"
     showgrid="false"
     units="px"
     inkscape:snap-global="false"
     inkscape:zoom="16"
     inkscape:cx="26.430394"
     inkscape:cy="22.18417"
     inkscape:window-width="1920"
     inkscape:window-height="1025"
     inkscape:window-x="0"
     inkscape:window-y="1107"
     inkscape:window-maximized="1"
     inkscape:current-layer="layer1" />
  <defs
     id="defs2">
    <inkscape:path-effect
       effect="powerstroke"
       id="path-effect101939"
       is_visible="true"
       lpeversion="1"
       offset_points="0.2,0.1322915 | 0.5,0.1322915 | 0.8,0.1322915"
       not_jump="false"
       sort_points="true"
       interpolator_type="CentripetalCatmullRom"
       interpolator_beta="0.2"
       start_linecap_type="zerowidth"
       linejoin_type="round"
       miter_limit="4"
       scale_width="1"
       end_linecap_type="zerowidth" />
    <inkscape:path-effect
       effect="powerstroke"
       id="path-effect101705"
       is_visible="true"
       lpeversion="1"
       offset_points="0.2,0.1322915 | 0.5,0.1322915 | 0.8,0.1322915"
       not_jump="false"
       sort_points="true"
       interpolator_type="CentripetalCatmullRom"
       interpolator_beta="0.2"
       start_linecap_type="zerowidth"
       linejoin_type="round"
       miter_limit="4"
       scale_width="1"
       end_linecap_type="zerowidth" />
    <inkscape:path-effect
       effect="powerstroke"
       id="path-effect101665"
       is_visible="true"
       lpeversion="1"
       offset_points="0.2,0.1322915 | 0.5,0.1322915 | 0.8,0.1322915"
       not_jump="false"
       sort_points="true"
       interpolator_type="CentripetalCatmullRom"
       interpolator_beta="0.2"
       start_linecap_type="zerowidth"
       linejoin_type="round"
       miter_limit="4"
       scale_width="1"
       end_linecap_type="zerowidth" />
    <inkscape:path-effect
       effect="powerstroke"
       id="path-effect101663"
       is_visible="true"
       lpeversion="1"
       offset_points="0.2,0.1322915 | 0.5,0.1322915 | 0.8,0.1322915"
       not_jump="false"
       sort_points="true"
       interpolator_type="CentripetalCatmullRom"
       interpolator_beta="0.2"
       start_linecap_type="zerowidth"
       linejoin_type="round"
       miter_limit="4"
       scale_width="1"
       end_linecap_type="zerowidth" />
    <inkscape:path-effect
       effect="powerstroke"
       id="path-effect101623"
       is_visible="true"
       lpeversion="1"
       offset_points="0.2,0.1322915 | 0.5,0.1322915 | 0.8,0.1322915"
       not_jump="false"
       sort_points="true"
       interpolator_type="CentripetalCatmullRom"
       interpolator_beta="0.2"
       start_linecap_type="zerowidth"
       linejoin_type="round"
       miter_limit="4"
       scale_width="1"
       end_linecap_type="zerowidth" />
    <inkscape:path-effect
       effect="powerstroke"
       id="path-effect101621"
       is_visible="true"
       lpeversion="1"
       offset_points="0.2,0.1322915 | 0.5,0.1322915 | 0.8,0.1322915"
       not_jump="false"
       sort_points="true"
       interpolator_type="CentripetalCatmullRom"
       interpolator_beta="0.2"
       start_linecap_type="zerowidth"
       linejoin_type="round"
       miter_limit="4"
       scale_width="1"
       end_linecap_type="zerowidth" />
    <inkscape:path-effect
       effect="powerstroke"
       id="path-effect101619"
       is_visible="true"
       lpeversion="1"
       offset_points="0.2,0.1322915 | 0.5,0.1322915 | 0.8,0.1322915"
       not_jump="false"
       sort_points="true"
       interpolator_type="CentripetalCatmullRom"
       interpolator_beta="0.2"
       start_linecap_type="zerowidth"
       linejoin_type="round"
       miter_limit="4"
       scale_width="1"
       end_linecap_type="zerowidth" />
    <inkscape:path-effect
       effect="powerstroke"
       id="path-effect101579"
       is_visible="true"
       lpeversion="1"
       offset_points="0.2,0.1322915 | 0.5,0.1322915 | 0.8,0.1322915"
       not_jump="false"
       sort_points="true"
       interpolator_type="CentripetalCatmullRom"
       interpolator_beta="0.2"
       start_linecap_type="zerowidth"
       linejoin_type="round"
       miter_limit="4"
       scale_width="1"
       end_linecap_type="zerowidth" />
    <inkscape:path-effect
       effect="powerstroke"
       id="path-effect101539"
       is_visible="true"
       lpeversion="1"
       offset_points="0.2,0.16975314 | 0.5,0.16975314 | 0.8,0.16975314"
       not_jump="false"
       sort_points="true"
       interpolator_type="CentripetalCatmullRom"
       interpolator_beta="0.2"
       start_linecap_type="zerowidth"
       linejoin_type="round"
       miter_limit="4"
       scale_width="1"
       end_linecap_type="zerowidth" />
    <inkscape:path-effect
       effect="powerstroke"
       id="path-effect101537"
       is_visible="true"
       lpeversion="1"
       offset_points="0.2,0.1322915 | 0.5,0.1322915 | 0.8,0.1322915"
       not_jump="false"
       sort_points="true"
       interpolator_type="CentripetalCatmullRom"
       interpolator_beta="0.2"
       start_linecap_type="zerowidth"
       linejoin_type="round"
       miter_limit="4"
       scale_width="1"
       end_linecap_type="zerowidth" />
    <inkscape:path-effect
       effect="powerstroke"
       id="path-effect101497"
       is_visible="true"
       lpeversion="1"
       offset_points="0.2,0.1322915 | 1,0.1322915 | 1.8,0.1322915"
       not_jump="false"
       sort_points="true"
       interpolator_type="CentripetalCatmullRom"
       interpolator_beta="0.2"
       start_linecap_type="zerowidth"
       linejoin_type="round"
       miter_limit="4"
       scale_width="1"
       end_linecap_type="zerowidth" />
    <inkscape:path-effect
       effect="powerstroke"
       id="path-effect101457"
       is_visible="true"
       lpeversion="1"
       offset_points="0.2,0.1322915 | 0.5,0.1322915 | 0.8,0.1322915"
       not_jump="false"
       sort_points="true"
       interpolator_type="CentripetalCatmullRom"
       interpolator_beta="0.2"
       start_linecap_type="zerowidth"
       linejoin_type="round"
       miter_limit="4"
       scale_width="1"
       end_linecap_type="zerowidth" />
    <inkscape:path-effect
       effect="powerstroke"
       id="path-effect101417"
       is_visible="true"
       lpeversion="1"
       offset_points="0.2,0.1322915 | 0.5,0.1322915 | 0.8,0.1322915"
       not_jump="false"
       sort_points="true"
       interpolator_type="CentripetalCatmullRom"
       interpolator_beta="0.2"
       start_linecap_type="zerowidth"
       linejoin_type="round"
       miter_limit="4"
       scale_width="1"
       end_linecap_type="zerowidth" />
    <inkscape:path-effect
       effect="powerstroke"
       id="path-effect101377"
       is_visible="true"
       lpeversion="1"
       offset_points="0.2,0.1651461 | 0.5,0.1651461 | 0.8,0.1651461"
       not_jump="false"
       sort_points="true"
       interpolator_type="CentripetalCatmullRom"
       interpolator_beta="0.2"
       start_linecap_type="zerowidth"
       linejoin_type="round"
       miter_limit="4"
       scale_width="1"
       end_linecap_type="zerowidth" />
    <inkscape:path-effect
       effect="powerstroke"
       id="path-effect101337"
       is_visible="true"
       lpeversion="1"
       offset_points="0.2,0.1322915 | 0.5,0.1322915 | 0.8,0.1322915"
       not_jump="false"
       sort_points="true"
       interpolator_type="CentripetalCatmullRom"
       interpolator_beta="0.2"
       start_linecap_type="zerowidth"
       linejoin_type="round"
       miter_limit="4"
       scale_width="1"
       end_linecap_type="zerowidth" />
    <inkscape:path-effect
       effect="powerstroke"
       id="path-effect101259"
       is_visible="true"
       lpeversion="1"
       offset_points="0.2,0.14669637 | 1,0.14669637 | 1.8,0.14669637"
       not_jump="false"
       sort_points="true"
       interpolator_type="CentripetalCatmullRom"
       interpolator_beta="0.2"
       start_linecap_type="zerowidth"
       linejoin_type="round"
       miter_limit="4"
       scale_width="1"
       end_linecap_type="zerowidth" />
    <inkscape:path-effect
       effect="powerstroke"
       id="path-effect101219"
       is_visible="true"
       lpeversion="1"
       offset_points="0.2,0.1322915 | 0.5,0.1322915 | 0.8,0.1322915"
       not_jump="false"
       sort_points="true"
       interpolator_type="CentripetalCatmullRom"
       interpolator_beta="0.2"
       start_linecap_type="zerowidth"
       linejoin_type="round"
       miter_limit="4"
       scale_width="1"
       end_linecap_type="zerowidth" />
    <inkscape:path-effect
       effect="powerstroke"
       id="path-effect101217"
       is_visible="true"
       lpeversion="1"
       offset_points="0.2,0.15024829 | 0.5,0.15024829 | 0.8,0.15024829"
       not_jump="false"
       sort_points="true"
       interpolator_type="CentripetalCatmullRom"
       interpolator_beta="0.2"
       start_linecap_type="zerowidth"
       linejoin_type="round"
       miter_limit="4"
       scale_width="1"
       end_linecap_type="zerowidth" />
    <inkscape:path-effect
       effect="powerstroke"
       id="path-effect101215"
       is_visible="true"
       lpeversion="1"
       offset_points="0.2,0.1322915 | 0.5,0.1322915 | 0.8,0.1322915"
       not_jump="false"
       sort_points="true"
       interpolator_type="CentripetalCatmullRom"
       interpolator_beta="0.2"
       start_linecap_type="zerowidth"
       linejoin_type="round"
       miter_limit="4"
       scale_width="1"
       end_linecap_type="zerowidth" />
    <inkscape:path-effect
       effect="powerstroke"
       id="path-effect101175"
       is_visible="true"
       lpeversion="1"
       offset_points="0.2,0.1322915 | 0.5,0.1322915 | 0.8,0.1322915"
       not_jump="false"
       sort_points="true"
       interpolator_type="CentripetalCatmullRom"
       interpolator_beta="0.2"
       start_linecap_type="zerowidth"
       linejoin_type="round"
       miter_limit="4"
       scale_width="1"
       end_linecap_type="zerowidth" />
    <inkscape:path-effect
       effect="powerstroke"
       id="path-effect101135"
       is_visible="true"
       lpeversion="1"
       offset_points="0.2,0.1322915 | 0.5,0.1322915 | 0.8,0.1322915"
       not_jump="false"
       sort_points="true"
       interpolator_type="CentripetalCatmullRom"
       interpolator_beta="0.2"
       start_linecap_type="zerowidth"
       linejoin_type="round"
       miter_limit="4"
       scale_width="1"
       end_linecap_type="zerowidth" />
    <inkscape:path-effect
       effect="powerstroke"
       id="path-effect101095"
       is_visible="true"
       lpeversion="1"
       offset_points="0.2,0.1322915 | 0.5,0.1322915 | 0.8,0.1322915"
       not_jump="false"
       sort_points="true"
       interpolator_type="CentripetalCatmullRom"
       interpolator_beta="0.2"
       start_linecap_type="zerowidth"
       linejoin_type="round"
       miter_limit="4"
       scale_width="1"
       end_linecap_type="zerowidth" />
    <inkscape:path-effect
       effect="powerstroke"
       id="path-effect101093"
       is_visible="true"
       lpeversion="1"
       offset_points="0.2,0.1484526 | 0.5,0.1484526 | 0.8,0.1484526"
       not_jump="false"
       sort_points="true"
       interpolator_type="CentripetalCatmullRom"
       interpolator_beta="0.2"
       start_linecap_type="zerowidth"
       linejoin_type="round"
       miter_limit="4"
       scale_width="1"
       end_linecap_type="zerowidth" />
    <inkscape:path-effect
       effect="powerstroke"
       id="path-effect101015"
       is_visible="true"
       lpeversion="1"
       offset_points="0.2,0.1322915 | 0.5,0.1322915 | 0.8,0.1322915"
       not_jump="false"
       sort_points="true"
       interpolator_type="CentripetalCatmullRom"
       interpolator_beta="0.2"
       start_linecap_type="zerowidth"
       linejoin_type="round"
       miter_limit="4"
       scale_width="1"
       end_linecap_type="zerowidth" />
    <inkscape:path-effect
       effect="powerstroke"
       id="path-effect100937"
       is_visible="true"
       lpeversion="1"
       offset_points="0.2,0.1322915 | 0.5,0.1322915 | 0.8,0.1322915"
       not_jump="false"
       sort_points="true"
       interpolator_type="CentripetalCatmullRom"
       interpolator_beta="0.2"
       start_linecap_type="zerowidth"
       linejoin_type="round"
       miter_limit="4"
       scale_width="1"
       end_linecap_type="zerowidth" />
    <inkscape:path-effect
       effect="powerstroke"
       id="path-effect100897"
       is_visible="true"
       lpeversion="1"
       offset_points="0.2,0.1322915 | 0.5,0.1322915 | 0.8,0.1322915"
       not_jump="false"
       sort_points="true"
       interpolator_type="CentripetalCatmullRom"
       interpolator_beta="0.2"
       start_linecap_type="zerowidth"
       linejoin_type="round"
       miter_limit="4"
       scale_width="1"
       end_linecap_type="zerowidth" />
    <inkscape:path-effect
       effect="powerstroke"
       id="path-effect100857"
       is_visible="true"
       lpeversion="1"
       offset_points="0.2,0.1322915 | 0.5,0.1322915 | 0.8,0.1322915"
       not_jump="false"
       sort_points="true"
       interpolator_type="CentripetalCatmullRom"
       interpolator_beta="0.2"
       start_linecap_type="zerowidth"
       linejoin_type="round"
       miter_limit="4"
       scale_width="1"
       end_linecap_type="zerowidth" />
    <inkscape:path-effect
       effect="powerstroke"
       id="path-effect100817"
       is_visible="true"
       lpeversion="1"
       offset_points="0.2,0.1322915 | 0.5,0.1322915 | 0.8,0.1322915"
       not_jump="false"
       sort_points="true"
       interpolator_type="CentripetalCatmullRom"
       interpolator_beta="0.2"
       start_linecap_type="zerowidth"
       linejoin_type="round"
       miter_limit="4"
       scale_width="1"
       end_linecap_type="zerowidth" />
    <inkscape:path-effect
       effect="powerstroke"
       id="path-effect100777"
       is_visible="true"
       lpeversion="1"
       offset_points="0.2,0.1322915 | 0.5,0.1322915 | 0.8,0.1322915"
       not_jump="false"
       sort_points="true"
       interpolator_type="CentripetalCatmullRom"
       interpolator_beta="0.2"
       start_linecap_type="zerowidth"
       linejoin_type="round"
       miter_limit="4"
       scale_width="1"
       end_linecap_type="zerowidth" />
    <inkscape:path-effect
       effect="powerstroke"
       id="path-effect100699"
       is_visible="true"
       lpeversion="1"
       offset_points="0.2,0.1322915 | 1,0.1322915 | 1.8,0.1322915"
       not_jump="false"
       sort_points="true"
       interpolator_type="CentripetalCatmullRom"
       interpolator_beta="0.2"
       start_linecap_type="zerowidth"
       linejoin_type="round"
       miter_limit="4"
       scale_width="1"
       end_linecap_type="zerowidth" />
    <inkscape:path-effect
       effect="powerstroke"
       id="path-effect100621"
       is_visible="true"
       lpeversion="1"
       offset_points="0.2,0.1322915 | 0.5,0.1322915 | 0.8,0.1322915"
       not_jump="false"
       sort_points="true"
       interpolator_type="CentripetalCatmullRom"
       interpolator_beta="0.2"
       start_linecap_type="zerowidth"
       linejoin_type="round"
       miter_limit="4"
       scale_width="1"
       end_linecap_type="zerowidth" />
    <inkscape:path-effect
       effect="powerstroke"
       id="path-effect100619"
       is_visible="true"
       lpeversion="1"
       offset_points="0.2,0.15394962 | 0.5,0.15394962 | 0.8,0.15394962"
       not_jump="false"
       sort_points="true"
       interpolator_type="CentripetalCatmullRom"
       interpolator_beta="0.2"
       start_linecap_type="zerowidth"
       linejoin_type="round"
       miter_limit="4"
       scale_width="1"
       end_linecap_type="zerowidth" />
    <inkscape:path-effect
       effect="powerstroke"
       id="path-effect100579"
       is_visible="true"
       lpeversion="1"
       offset_points="0.2,0.1322915 | 0.5,0.1322915 | 0.8,0.1322915"
       not_jump="false"
       sort_points="true"
       interpolator_type="CentripetalCatmullRom"
       interpolator_beta="0.2"
       start_linecap_type="zerowidth"
       linejoin_type="round"
       miter_limit="4"
       scale_width="1"
       end_linecap_type="zerowidth" />
    <inkscape:path-effect
       effect="powerstroke"
       id="path-effect97388"
       is_visible="true"
       lpeversion="1"
       offset_points="0.2,0.13917249 | 8.0520114,0.12928308 | 14.8,0.13917249"
       not_jump="false"
       sort_points="true"
       interpolator_type="CentripetalCatmullRom"
       interpolator_beta="0.2"
       start_linecap_type="round"
       linejoin_type="round"
       miter_limit="4"
       scale_width="1"
       end_linecap_type="round" />
    <inkscape:path-effect
       effect="powerstroke"
       id="path-effect97386"
       is_visible="true"
       lpeversion="1"
       offset_points="0.2,0.147447 | 22,0.147447 | 43.8,0.147447"
       not_jump="false"
       sort_points="true"
       interpolator_type="CentripetalCatmullRom"
       interpolator_beta="0.2"
       start_linecap_type="round"
       linejoin_type="round"
       miter_limit="4"
       scale_width="1"
       end_linecap_type="round" />
    <inkscape:path-effect
       effect="powerstroke"
       id="path-effect97304"
       is_visible="true"
       lpeversion="1"
       offset_points="0.17995533,0.18069443 | 12,0.13977394 | 23.570266,0.12894041"
       not_jump="false"
       sort_points="true"
       interpolator_type="CentripetalCatmullRom"
       interpolator_beta="0.2991453"
       start_linecap_type="round"
       linejoin_type="round"
       miter_limit="4"
       scale_width="1"
       end_linecap_type="round" />
    <inkscape:path-effect
       effect="fillet_chamfer"
       id="path-effect97302"
       is_visible="true"
       lpeversion="1"
       satellites_param="F,0,0,1,0,0,0,1 @ F,0,0,1,0,0,0,1 @ F,0,0,1,0,0,0,1 @ F,0,0,1,0,0,0,1 @ F,0,0,1,0,0,0,1 @ F,0,0,1,0,0,0,1 @ F,0,0,1,0,0,0,1 @ F,0,0,1,0,0,0,1 @ F,0,0,1,0,0,0,1 @ F,0,0,1,0,0,0,1 @ F,0,0,1,0,0,0,1 @ F,0,0,1,0,0,0,1 @ F,0,0,1,0,0,0,1 @ F,0,0,1,0,0,0,1 @ F,0,0,1,0,0,0,1 @ F,0,0,1,0,0,0,1 @ F,0,0,1,0,0,0,1 @ F,0,0,1,0,0,0,1 @ F,0,0,1,0,0,0,1 @ F,0,0,1,0,0,0,1 @ F,0,0,1,0,0,0,1 @ F,0,0,1,0,0,0,1 @ F,0,0,1,0,0,0,1 @ F,0,0,1,0,0,0,1 @ F,0,0,1,0,0,0,1"
       unit="px"
       method="auto"
       mode="F"
       radius="0"
       chamfer_steps="1"
       flexible="false"
       use_knot_distance="true"
       apply_no_radius="true"
       apply_with_radius="true"
       only_selected="false"
       hide_knots="false" />
    <inkscape:path-effect
       effect="fill_between_strokes"
       id="path-effect97300"
       is_visible="true"
       lpeversion="1"
       linkedpath=""
       secondpath=""
       reversesecond="false"
       join="true"
       close="true" />
    <inkscape:path-effect
       effect="fill_between_strokes"
       id="path-effect97298"
       is_visible="true"
       lpeversion="1"
       linkedpath=""
       secondpath=""
       reversesecond="false"
       join="true"
       close="true" />
    <inkscape:path-effect
       effect="fill_between_strokes"
       id="path-effect97296"
       is_visible="true"
       lpeversion="1"
       linkedpath=""
       secondpath=""
       reversesecond="false"
       join="true"
       close="true" />
    <inkscape:path-effect
       effect="bspline"
       id="path-effect92922"
       is_visible="true"
       lpeversion="1"
       weight="33.333333"
       steps="2"
       helper_size="0"
       apply_no_weight="true"
       apply_with_weight="true"
       only_selected="false" />
    <inkscape:path-effect
       effect="bspline"
       id="path-effect92902"
       is_visible="true"
       lpeversion="1"
       weight="33.333333"
       steps="2"
       helper_size="0"
       apply_no_weight="true"
       apply_with_weight="true"
       only_selected="false" />
    <inkscape:path-effect
       effect="bspline"
       id="path-effect92898"
       is_visible="true"
       lpeversion="1"
       weight="33.333333"
       steps="2"
       helper_size="0"
       apply_no_weight="true"
       apply_with_weight="true"
       only_selected="false" />
    <inkscape:path-effect
       effect="bspline"
       id="path-effect92453"
       is_visible="true"
       lpeversion="1"
       weight="33.333333"
       steps="2"
       helper_size="0"
       apply_no_weight="true"
       apply_with_weight="true"
       only_selected="false" />
    <inkscape:path-effect
       effect="bspline"
       id="path-effect92449"
       is_visible="true"
       lpeversion="1"
       weight="33.333333"
       steps="2"
       helper_size="0"
       apply_no_weight="true"
       apply_with_weight="true"
       only_selected="false" />
    <inkscape:path-effect
       effect="bspline"
       id="path-effect92445"
       is_visible="true"
       lpeversion="1"
       weight="33.333333"
       steps="2"
       helper_size="0"
       apply_no_weight="true"
       apply_with_weight="true"
       only_selected="false" />
    <inkscape:path-effect
       effect="bspline"
       id="path-effect92441"
       is_visible="true"
       lpeversion="1"
       weight="33.333333"
       steps="2"
       helper_size="0"
       apply_no_weight="true"
       apply_with_weight="true"
       only_selected="false" />
    <inkscape:path-effect
       effect="bspline"
       id="path-effect92437"
       is_visible="true"
       lpeversion="1"
       weight="33.333333"
       steps="2"
       helper_size="0"
       apply_no_weight="true"
       apply_with_weight="true"
       only_selected="false" />
    <inkscape:path-effect
       effect="bspline"
       id="path-effect92433"
       is_visible="true"
       lpeversion="1"
       weight="33.333333"
       steps="2"
       helper_size="0"
       apply_no_weight="true"
       apply_with_weight="true"
       only_selected="false" />
    <inkscape:path-effect
       effect="bspline"
       id="path-effect92429"
       is_visible="true"
       lpeversion="1"
       weight="33.333333"
       steps="2"
       helper_size="0"
       apply_no_weight="true"
       apply_with_weight="true"
       only_selected="false" />
    <inkscape:path-effect
       effect="bspline"
       id="path-effect92425"
       is_visible="true"
       lpeversion="1"
       weight="33.333333"
       steps="2"
       helper_size="0"
       apply_no_weight="true"
       apply_with_weight="true"
       only_selected="false" />
    <inkscape:path-effect
       effect="bspline"
       id="path-effect92421"
       is_visible="true"
       lpeversion="1"
       weight="33.333333"
       steps="2"
       helper_size="0"
       apply_no_weight="true"
       apply_with_weight="true"
       only_selected="false" />
    <inkscape:path-effect
       effect="spiro"
       id="path-effect92417"
       is_visible="true"
       lpeversion="1" />
  </defs>
  <g
     inkscape:label="Layer 1"
     inkscape:groupmode="layer"
     id="layer1">
    <path
       style="opacity:0.8;fill:none;stroke:#000000;stroke-width:0.3;stroke-miterlimit:4;stroke-dasharray:none"
       id="path31"
       sodipodi:type="arc"
       sodipodi:cx="6.3886456"
       sodipodi:cy="4.9979415"
       sodipodi:rx="4.340631"
       sodipodi:ry="4.2560873"
       sodipodi:start="6.1637976"
       sodipodi:end="6.1636202"
       sodipodi:arc-type="arc"
       d="M 10.698379,4.4910232 A 4.340631,4.2560873 0 0 1 6.9058246,9.2237104 4.340631,4.2560873 0 0 1 2.0789582,5.5052346 4.340631,4.2560873 0 0 1 5.8710844,0.77221757 4.340631,4.2560873 0 0 1 10.698287,4.4902736"
       sodipodi:open="true" />
    <text
       xml:space="preserve"
       style="font-style:normal;font-variant:normal;font-weight:normal;font-stretch:normal;font-size:4.23333px;line-height:1.25;font-family:'DejaVu Sans';-inkscape-font-specification:'DejaVu Sans';fill:#000000;fill-opacity:1;stroke:none;stroke-width:0.264583"
       x="2.4559457"
       y="11.099771"
       id="text4272"><tspan
         sodipodi:role="line"
         id="tspan4270"
         style="font-style:normal;font-variant:normal;font-weight:normal;font-stretch:normal;font-size:4.23333px;font-family:Karumbi;-inkscape-font-specification:Karumbi;stroke-width:0.264583"
         x="2.4559457"
         y="11.099771">PyPolo</tspan></text>
    <path
       style="opacity:0.8;fill:#999999;fill-rule:nonzero;stroke:none;stroke-width:0.279548px;stroke-linecap:butt;stroke-linejoin:miter;stroke-opacity:1"
       d="m 2.544759,6.122255 c 0.088317,-0.02963 0.029712,-0.00993 0.1180296,-0.039555 0.034426,-0.011609 0.1246892,-0.042155 0.1985727,-0.066681 0.077705,-0.025795 0.1738047,-0.057163 0.2467564,-0.078367 0.058152,-0.016902 0.098892,-0.026574 0.1317562,-0.033419 0.01555,-0.00324 0.026211,-0.00523 0.041342,-0.00821 0.012381,-0.00243 0.028612,-0.00568 0.045296,-0.010045 0.016588,-0.00434 0.031389,-0.0092 0.045585,-0.014202 0.013549,-0.00477 0.026492,-0.00963 0.042037,-0.015211 0.02832,-0.01017 0.069759,-0.024427 0.1390063,-0.044208 0.066815,-0.019086 0.1613727,-0.043857 0.2626151,-0.068966 0.096247,-0.023871 0.196387,-0.047504 0.2750723,-0.064667 0.075405,-0.016446 0.1298031,-0.026679 0.175764,-0.034769 0.041271,-0.00726 0.086473,-0.014552 0.1277279,-0.02252 0.04347,-0.0084 0.084878,-0.01775 0.1298489,-0.025493 0.043864,-0.00755 0.092314,-0.013862 0.1487412,-0.016159 0.056534,-0.0023 0.1229941,-7.341e-4 0.1980308,0.00548 0.074367,0.00616 0.1561956,0.016816 0.2437712,0.032393 0.087428,0.015551 0.178843,0.035655 0.2680774,0.058738 0.089393,0.023124 0.1755225,0.048959 0.2524606,0.07575 0.077025,0.026821 0.1448334,0.054646 0.2064338,0.080978 0.060561,0.025888 0.120281,0.052639 0.1731325,0.073496 0.055395,0.02186 0.1045753,0.037937 0.1481451,0.0509 0.042245,0.012568 0.084864,0.023772 0.1153589,0.032275 0.067708,0.01888 0.1235482,0.03723 0.1897962,0.062776 0.035192,0.013571 0.079445,0.031602 0.114637,0.045173 0.041852,0.016202 0.084602,0.031831 0.1254878,0.043783 0.041666,0.012179 0.07928,0.019977 0.1145254,0.026353 0.033286,0.00602 0.063033,0.01059 0.090916,0.016165 0.055794,0.011157 0.1139091,0.027756 0.1872051,0.048335 0.033891,0.00952 0.072556,0.02032 0.1185538,0.030305 0.04568,0.00992 0.098103,0.018946 0.1631745,0.026226 0.063783,0.00713 0.1393288,0.012635 0.2233074,0.015529 0.083432,0.00288 0.1757171,0.0032 0.2734961,-1.057e-4 0.1962169,-0.00662 0.4095396,-0.0277 0.6744698,-0.083277 0.13227,-0.027747 0.2760275,-0.06383 0.4101546,-0.1002443 0.1355258,-0.036794 0.2625884,-0.074297 0.3609543,-0.1048789 0.099821,-0.031035 0.1722465,-0.055593 0.2352999,-0.079653 0.064433,-0.024586 0.1178732,-0.048212 0.1771593,-0.075831 0.057754,-0.026905 0.132643,-0.06314 0.190397,-0.090046 0.066375,-0.031009 0.1261501,-0.057675 0.1743731,-0.075939 0.04831,-0.018298 0.08617,-0.028601 0.115075,-0.035419 0.01537,-0.00363 0.02889,-0.00642 0.04193,-0.00916 0.01241,-0.0026 0.02734,-0.00572 0.04108,-0.0095 0.0154,-0.00423 0.02891,-0.00913 0.04107,-0.014495 0.01258,-0.00555 0.02256,-0.011114 0.0299,-0.015473 0.0075,-0.00444 0.01145,-0.007 0.01182,-0.00725 3.82e-4,-2.636e-4 -0.0033,0.00177 -0.008,0.00339 -0.0057,0.00197 -0.0076,0.00145 0.0038,9.64e-5 0.0045,-5.359e-4 0.01027,-0.0011 0.01681,-0.00184 0.0069,-7.77e-4 0.01594,-0.00189 0.02542,-0.00373 0.02561,-0.00497 0.04444,-0.013163 0.05746,-0.020142 0.0025,-0.00132 0.0047,-0.00257 0.0066,-0.00373 0.02167,-0.012736 0.02357,-0.015928 0.02541,-0.01734 A 0.12894041,0.12894041 90 0 0 10.353894,5.355128 c -0.0018,0.00141 -0.005,0.00322 0.0017,-7.967e-4 0.0063,-0.00348 0.01428,-0.00637 0.01718,-0.00701 0.001,-2.208e-4 -7.6e-5,-1.51e-5 -0.0048,4.538e-4 -0.0039,3.876e-4 -0.0097,8.908e-4 -0.01738,0.0017 -0.01002,0.00106 -0.0364,0.00375 -0.06241,0.012943 -0.01444,0.0051 -0.02591,0.011079 -0.0343,0.015854 -0.0078,0.00442 -0.01202,0.00714 -0.0141,0.00831 -0.0028,0.00134 -0.0046,0.00201 -0.0077,0.00283 -0.0047,0.00123 -0.01109,0.00259 -0.02537,0.00548 -0.01237,0.00251 -0.02925,0.00589 -0.0485,0.010323 -0.03768,0.00868 -0.08695,0.021932 -0.148019,0.044823 -0.058085,0.021772 -0.1253787,0.051767 -0.1927888,0.083022 -0.068676,0.031842 -0.1216832,0.057469 -0.1903594,0.089311 -0.056104,0.025899 -0.1034789,0.046529 -0.1601146,0.067896 -0.056096,0.021163 -0.1229151,0.043678 -0.2199548,0.073577 -0.095634,0.029467 -0.2197275,0.065819 -0.3520217,0.1014488 -0.1312407,0.035346 -0.2697304,0.069755 -0.3952903,0.095795 -0.2488798,0.051615 -0.4468506,0.070405 -0.6287841,0.075875 -0.0916,0.00275 -0.1777455,0.00209 -0.2550933,-9.369e-4 C 7.5377556,6.0329726 7.4692822,6.0275376 7.4134491,6.0209093 7.3575181,6.0142688 7.3144219,6.0063518 7.2781908,5.9980842 7.2411938,5.9896419 7.2096861,5.9804587 7.176297,5.9705923 7.1071351,5.9501551 7.0382907,5.929216 6.9705467,5.9143549 6.9346593,5.9064834 6.9033771,5.9011061 6.8747376,5.8953207 6.844691,5.889251 6.8175709,5.8828886 6.7888995,5.8738745 6.7597429,5.864705 6.7260284,5.8518402 6.687011,5.8358388 6.6508022,5.8209893 6.6121388,5.8042526 6.5737322,5.7883988 6.5001928,5.7580443 6.4363042,5.7348316 6.3604271,5.7113518 6.3243621,5.7001926 6.2883873,5.6897772 6.2498861,5.6772737 6.2123628,5.6650876 6.1716779,5.6506976 6.1262746,5.631696 6.0783818,5.6116507 6.02983,5.5886253 5.9619159,5.5582687 5.8977004,5.5295653 5.8231349,5.497578 5.7370721,5.4663051 5.6516142,5.4352517 5.5576994,5.4058701 5.4615686,5.3797312 5.3655288,5.3536171 5.266662,5.3305729 5.1711663,5.3123066 5.0752824,5.2939663 4.984104,5.2807192 4.8994473,5.2723941 4.8142954,5.2640204 4.7349764,5.26055 4.6634696,5.2620597 c -0.072986,0.00154 -0.1354022,0.00831 -0.1894733,0.016215 -0.054755,0.00801 -0.1001331,0.016919 -0.1368577,0.022838 -0.037479,0.00604 -0.074622,0.010657 -0.1231258,0.017866 -0.050575,0.00752 -0.110254,0.017406 -0.1914887,0.033778 -0.08325,0.016778 -0.1873796,0.040026 -0.2857815,0.063118 -0.1034228,0.02427 -0.2023224,0.048778 -0.2742122,0.067959 -0.076684,0.02046 -0.1248877,0.035466 -0.1583978,0.046087 -0.018294,0.0058 -0.02988,0.00954 -0.039972,0.012485 -0.00991,0.00289 -0.015247,0.00408 -0.0196,0.00481 -0.0055,9.092e-4 -0.010516,0.00166 -0.022995,0.00347 -0.011965,0.00173 -0.027729,0.004 -0.046381,0.00718 -0.044156,0.00751 -0.095646,0.018555 -0.1632544,0.036931 -0.081388,0.02212 -0.1841331,0.054378 -0.2620562,0.079342 -0.080565,0.025811 -0.1622927,0.05277 -0.20169,0.065833 -0.063546,0.021071 -0.1049553,0.035168 -0.1183715,0.039669 A 0.18069443,0.18069443 90 0 0 2.544759,6.122255 Z"
       id="path92896"
       inkscape:path-effect="#path-effect92898;#path-effect97304"
       inkscape:original-d="m 2.4872859,5.9509444 c 0.2204596,-0.073609 0.4377259,-0.1464996 0.6592204,-0.2211623 0.048645,-0.00119 0.096584,-0.00264 0.1438186,-0.00434 0.03824,-0.017984 0.075489,-0.036887 0.1117471,-0.056709 0.2486226,-0.058871 0.4962552,-0.1186621 0.7428975,-0.1793719 0.070417,-0.00585 0.1398441,-0.012619 0.2082809,-0.020306 0.093752,-0.021148 0.1865139,-0.043216 0.2782855,-0.066203 0.1653181,0.014487 0.3283762,0.028538 0.4930336,0.042485 0.2013268,0.053663 0.3988817,0.1061303 0.6010746,0.1596349 0.1231254,0.062302 0.2447117,0.1236967 0.3647604,0.1841836 0.080117,0.021226 0.1592433,0.041531 0.2373796,0.060918 0.060977,0.021533 0.1209634,0.042148 0.1799599,0.061842 0.085,0.037763 0.1690094,0.074606 0.2520288,0.1105312 0.060347,0.00763 0.1197051,0.014365 0.1780723,0.020169 0.066645,0.020351 0.1323007,0.039783 0.1969657,0.058294 0.07189,0.02084 0.1427887,0.040761 0.2126977,0.059762 0.1707776,0.00833 0.3387224,0.016271 0.5087069,0.024058 0.207859,-0.019831 0.4135305,-0.039741 0.620295,-0.060047 0.3074045,-0.086919 0.6141528,-0.1739913 0.9202445,-0.261217 0.085092,-0.032924 0.1691936,-0.066769 0.2523051,-0.1015323 0.1505041,-0.073538 0.3000181,-0.147995 0.448541,-0.2233713 0.0664,-0.00585 0.131815,-0.012617 0.196237,-0.020306 0.01034,-0.012618 0.01967,-0.026156 0.02803,-0.040613 0.02902,9.192e-4 0.05707,9.192e-4 0.08411,0 0.0098,-0.00579 0.01853,-0.012504 0.0263,-0.020136"
       sodipodi:nodetypes="ccccccccccccccccccccccccc" />
    <path
       style="opacity:0.8;fill:#999999;fill-rule:nonzero;stroke:none;stroke-width:0.278345px;stroke-linecap:butt;stroke-linejoin:miter;stroke-opacity:1"
       d="m 3.3072401,7.6381757 c 0.08285,-0.040196 0.1124729,-0.054523 0.1953227,-0.094719 0.054624,-0.026502 0.1732734,-0.084112 0.2792888,-0.1352216 0.1167417,-0.05628 0.26541,-0.1275251 0.3803058,-0.1803639 0.092841,-0.042696 0.1647654,-0.073995 0.2222592,-0.096022 0.049531,-0.018977 0.085853,-0.030319 0.1278174,-0.041012 0.074587,-0.019005 0.1662627,-0.034575 0.2740261,-0.06041 0.05353,-0.012834 0.1051858,-0.026858 0.1587157,-0.039692 0.058133,-0.013979 0.1291081,-0.029603 0.2238662,-0.04625 0.094348,-0.016575 0.2121154,-0.034237 0.3291523,-0.051319 0.1148193,-0.016759 0.2282919,-0.032863 0.3101095,-0.045874 0.041269,-0.00656 0.074288,-0.012274 0.1020461,-0.016821 0.028063,-0.0046 0.050119,-0.00791 0.071479,-0.010216 0.021082,-0.00228 0.042222,-0.00366 0.067427,-0.00401 0.025734,-3.513e-4 0.056204,3.72e-4 0.095686,0.00248 0.081314,0.00434 0.1926482,0.013857 0.3105828,0.030045 0.1229093,0.016871 0.2467105,0.040116 0.3525417,0.070467 0.1097346,0.031471 0.2027338,0.07097 0.2823286,0.1111042 0.085166,0.042944 0.1598,0.089149 0.2239779,0.1299835 0.00715,0.00455 0.014114,0.009 0.020902,0.013345 0.1198567,0.076793 0.1970912,0.1309126 0.269577,0.1826447 0.06962,0.049687 0.1037875,0.074923 0.1494742,0.1089343 0.04434,0.033009 0.090494,0.067721 0.1498446,0.1054296 0.030182,0.019178 0.061386,0.037728 0.1012937,0.055823 0.040311,0.018278 0.08598,0.034495 0.1436336,0.050962 0.1224452,0.034971 0.2596353,0.059388 0.4145114,0.081914 0.088834,0.01292 0.1744767,0.023674 0.2624814,0.028122 0.1006548,0.00509 0.1947801,0.00131 0.2863732,-0.01324 0.1118859,-0.017773 0.2135836,-0.051436 0.2846545,-0.077539 0.066162,-0.0243 0.1286187,-0.050823 0.1597067,-0.064159 0.044114,-0.018922 0.1005553,-0.044049 0.1025352,-0.044924 A 0.13917249,0.13917249 90 0 0 9.5466312,7.3330566 c -0.016851,0.00745 -0.04377,0.019522 -0.1000637,0.043846 -0.030222,0.013059 -0.087511,0.037668 -0.1460805,0.059589 -0.06425,0.024047 -0.14643,0.051328 -0.2323369,0.065622 C 8.9985475,7.5136931 8.92383,7.517682 8.8387444,7.5140381 8.7634912,7.5108153 8.6876772,7.502086 8.6015041,7.4902372 8.4496499,7.4693561 8.326362,7.4481382 8.2212468,7.419336 8.171915,7.405818 8.1390068,7.3942234 8.1136407,7.3832379 8.0892539,7.3726765 8.0694491,7.3616909 8.0441925,7.3462263 7.9937576,7.3153494 7.9545419,7.2870765 7.9087671,7.254095 7.8616225,7.2201263 7.825712,7.1945402 7.7547354,7.1445738 7.6795805,7.0916658 7.5992615,7.0357786 7.4745175,6.9559301 7.467507,6.9514427 7.46032,6.9468568 7.4529506,6.9421698 7.3871475,6.9003192 7.3037487,6.8484147 7.2068396,6.7993977 7.115612,6.7532545 7.0075309,6.7070504 6.8795866,6.6701004 6.757838,6.63494 6.6209971,6.6093527 6.491004,6.591194 6.3655015,6.5736626 6.2471278,6.5631825 6.1592343,6.558115 c -0.043098,-0.00248 -0.079585,-0.00365 -0.1127806,-0.00342 -0.033256,2.358e-4 -0.062535,0.00187 -0.091797,0.0048 -0.028687,0.00287 -0.056444,0.00688 -0.086013,0.011507 -0.029654,0.00464 -0.061756,0.00998 -0.1012263,0.016038 -0.079699,0.012235 -0.1903503,0.027478 -0.3071357,0.044044 -0.117024,0.0166 -0.2379261,0.034202 -0.3368226,0.051059 -0.1007841,0.017179 -0.1772989,0.033454 -0.2399734,0.047977 -0.064574,0.014963 -0.1141212,0.027879 -0.1586713,0.038044 -0.095895,0.02188 -0.1893543,0.036546 -0.2781056,0.057975 -0.051781,0.012504 -0.099434,0.026748 -0.1591696,0.048999 -0.066553,0.02479 -0.1453073,0.058604 -0.2401016,0.1016369 -0.1179419,0.053542 -0.2687915,0.125212 -0.3857858,0.1811924 -0.1105548,0.052899 -0.2218625,0.106653 -0.2804439,0.1349906 -0.055515,0.026854 -0.1399531,0.067935 -0.1954685,0.09479 a 0.13917249,0.13917249 90 0 0 0.1215002,0.250427 z"
       id="path92900"
       inkscape:path-effect="#path-effect92902;#path-effect97300;#path-effect97388"
       inkscape:original-d="M 3.24649,7.5129622 C 3.5741718,7.3543731 3.9003796,7.1961061 4.2251127,7.0381617 c 0.085391,-0.026043 0.1678357,-0.054715 0.2473334,-0.086015 0.095173,-0.012331 0.187398,-0.027289 0.2766766,-0.044876 0.1035568,-0.027289 0.2041665,-0.057207 0.3018293,-0.089754 0.2894046,-0.034769 0.5758627,-0.072165 0.8593735,-0.112192 0.039893,-0.010123 0.076837,-0.022872 0.1108352,-0.038254 0.2967536,0.030814 0.5907423,0.061107 0.8819662,0.090876 0.1723514,0.1035298 0.3415841,0.2050823 0.5206886,0.3124528 0.098513,0.0692 0.1844456,0.1294945 0.2852047,0.2001128 0.042034,0.030586 0.077306,0.05619 0.1179212,0.085601 0.049558,0.036624 0.092261,0.068123 0.1421893,0.1048809 0.059745,0.03182 0.1073794,0.057091 0.1685011,0.089393 0.1559133,0.028637 0.2812459,0.051483 0.4272454,0.077881 0.1810948,0.019922 0.3510587,0.038398 0.5282151,0.057419 C 9.2645937,7.6102634 9.434528,7.5351506 9.6028957,7.4603487"
       sodipodi:nodetypes="cccccccccccccccc" />
    <path
       style="fill:#808080;fill-rule:nonzero;stroke:none;stroke-width:0.294894px;stroke-linecap:butt;stroke-linejoin:miter;stroke-opacity:1"
       d="m 2.8691978,6.720336 c 1.7e-4,-9.603e-4 0.00143,-0.00448 -0.0016,0.00681 -3.647e-4,0.00136 -8.729e-4,0.00315 -0.00154,0.00525 -0.00225,0.00704 -0.00737,0.020871 -0.01826,0.035567 -0.0081,0.010935 -0.017076,0.019227 -0.025326,0.025079 -0.00639,0.00453 -0.010983,0.00664 -0.01201,0.00709 -4.443e-4,1.948e-4 0.00283,-0.00117 0.00948,-0.00341 0.00645,-0.00217 0.014412,-0.00469 0.026358,-0.0084 0.019083,-0.00593 0.051537,-0.015853 0.089558,-0.028801 0.035232,-0.011998 0.077094,-0.027108 0.1213918,-0.043479 0.04106,-0.015174 0.081115,-0.030282 0.1171536,-0.043877 0.032159,-0.012131 0.060636,-0.022866 0.083571,-0.031777 0.021926,-0.00852 0.041748,-0.016508 0.059831,-0.024578 0.00816,-0.00364 0.016453,-0.00751 0.022077,-0.010095 0.00602,-0.00276 0.011088,-0.00503 0.016458,-0.00725 0.00977,-0.00405 0.023619,-0.00924 0.047578,-0.016217 0.0255,-0.00743 0.059022,-0.016102 0.1039547,-0.027872 0.041848,-0.010962 0.092112,-0.024243 0.1450481,-0.039519 0.051852,-0.014963 0.1054145,-0.031529 0.1566388,-0.047061 0.050333,-0.015262 0.096933,-0.029068 0.1361459,-0.039086 0.038,-0.00971 0.070099,-0.016249 0.099316,-0.021541 0.030521,-0.00553 0.053514,-0.00897 0.084035,-0.014496 0.055159,-0.010103 0.1001409,-0.020921 0.1244949,-0.02434 0.01203,-0.00169 0.023447,-0.00269 0.044772,-0.00369 0.021422,-0.001 0.052697,-0.00196 0.1009416,-0.00385 0.047523,-0.00186 0.1108082,-0.00459 0.1867736,-0.00683 0.075404,-0.00223 0.1637191,-0.004 0.2612766,-0.00393 0.1949265,1.258e-4 0.4269044,0.00727 0.6528641,0.014633 0.1118552,0.00364 0.2201234,0.00726 0.3185778,0.011825 0.098555,0.00457 0.1853952,0.01 0.2551025,0.017101 0.068993,0.00703 0.1220399,0.015581 0.1667474,0.024197 0.045102,0.00869 0.08333,0.017828 0.1246967,0.026493 0.082457,0.017272 0.1562265,0.028504 0.2092704,0.039759 0.027144,0.00576 0.051803,0.011873 0.07434,0.0176 0.020959,0.00533 0.044615,0.011529 0.063618,0.015548 0.020096,0.00425 0.035664,0.00656 0.04908,0.00811 0.012807,0.00148 0.019883,0.00203 0.023072,0.00244 0.00933,0.00122 0.021573,0.00338 0.041379,0.009 0.011182,0.00318 0.026397,0.00782 0.044359,0.013063 0.018298,0.00534 0.03933,0.011251 0.062904,0.017054 0.022027,0.00542 0.04814,0.011264 0.068014,0.015886 0.022373,0.0052 0.040207,0.00961 0.053987,0.013704 0.014636,0.00435 0.026248,0.00852 0.041894,0.013934 0.015246,0.00527 0.03467,0.011837 0.057208,0.017007 0.018006,0.00413 0.041261,0.0081 0.057067,0.011098 0.019731,0.00374 0.044119,0.00873 0.078072,0.017147 0.035393,0.00877 0.080546,0.02091 0.1324072,0.034855 0.048611,0.013071 0.1030899,0.027718 0.1517903,0.039935 0.094549,0.023719 0.1696986,0.039162 0.2212671,0.052273 0.025462,0.00647 0.047521,0.012792 0.068108,0.018743 0.01823,0.00527 0.040065,0.011695 0.058411,0.015913 0.017989,0.00414 0.033008,0.00651 0.038132,0.00742 0.00335,5.926e-4 0.00125,3.169e-4 -0.0025,-6.849e-4 -0.00461,-0.00123 -0.01408,-0.00405 -0.025947,-0.010617 -0.00916,-0.00507 -0.011077,-0.00681 2.254e-4,7.786e-4 0.00539,0.00362 0.01473,0.00955 0.027011,0.01508 0.012764,0.00574 0.027476,0.010509 0.044043,0.013095 0.00662,0.00103 0.012871,0.00166 0.014971,0.00188 0.00337,3.526e-4 0.00334,3.624e-4 0.00297,3.101e-4 -5.388e-4,-7.57e-5 -0.00423,-5.899e-4 -0.00956,-0.00201 -0.00517,-0.00138 -0.014845,-0.00439 -0.026274,-0.010718 -0.00461,-0.00255 -0.00626,-0.00381 -0.00385,-0.00222 0.00215,0.00142 0.00896,0.00596 0.01766,0.010651 0.00926,0.00499 0.019611,0.00963 0.031315,0.013574 0.011395,0.00384 0.022772,0.00659 0.034038,0.00856 0.012473,0.00218 0.030711,0.00466 0.044147,0.00665 0.015686,0.00232 0.033949,0.00522 0.055307,0.00935 0.021828,0.00422 0.050751,0.010447 0.084632,0.016623 0.033869,0.00617 0.07286,0.012284 0.1160195,0.016229 0.083968,0.00767 0.1791673,0.00743 0.301459,0.00558 0.062244,-9.383e-4 0.134612,-0.00234 0.2085877,-0.00567 0.07411,-0.00334 0.1512761,-0.00866 0.2227515,-0.017682 0.1442116,-0.018199 0.2596705,-0.049983 0.3269782,-0.071541 0.034468,-0.011039 0.057291,-0.019597 0.073467,-0.025777 0.00864,-0.0033 0.012448,-0.00478 0.015939,-0.00603 0.00277,-9.9e-4 0.00232,-7.238e-4 3.876e-4,-2.523e-4 -7.29e-4,1.778e-4 0.0039,-6.574e-4 0.015964,-0.00244 0.012455,-0.00185 0.031237,-0.00486 0.053332,-0.011464 0.019346,-0.00578 0.038831,-0.013299 0.05745,-0.021373 0.019215,-0.00833 0.039124,-0.017965 0.059191,-0.028395 0.019099,-0.00993 0.041229,-0.022077 0.056973,-0.030552 0.00873,-0.0047 0.016325,-0.00873 0.022973,-0.012129 0.0069,-0.00353 0.011505,-0.00572 0.014297,-0.00695 0.00641,-0.00283 0.00932,-0.0037 0.011837,-0.00446 1.023e-4,-3.09e-5 0.00761,-0.00224 0.011793,-0.00357 0.00642,-0.00205 0.014439,-0.00484 0.023596,-0.00885 0.00923,-0.00405 0.024137,-0.011446 0.027824,-0.013213 0.00752,-0.0036 0.013561,-0.00628 0.019343,-0.00846 0.00687,-0.00258 0.020122,-0.00689 0.037329,-0.013201 0.018831,-0.00691 0.039981,-0.015496 0.064215,-0.027567 0.022706,-0.01131 0.049234,-0.026195 0.06818,-0.036681 0.0238,-0.013173 0.04115,-0.022539 0.05535,-0.029232 0.01501,-0.00708 0.02803,-0.012042 0.04351,-0.018253 0.01791,-0.00719 0.04005,-0.016392 0.06282,-0.030652 0.02576,-0.016133 0.04571,-0.034306 0.05626,-0.044309 0.0107,-0.010135 0.02015,-0.020052 0.02383,-0.023921 0.0085,-0.00896 0.01093,-0.01162 0.0129,-0.013729 A 0.147447,0.147447 90 0 0 10.096833,6.1993239 c -0.002,0.00211 -0.0048,0.00521 -0.01092,0.011634 -0.0033,0.00347 -0.0083,0.00864 -0.01303,0.013145 -0.0049,0.00463 -0.0099,0.00841 -0.01,0.00844 0.0014,-8.872e-4 -0.0016,0.00106 -0.0161,0.00689 -0.01044,0.00419 -0.03439,0.013383 -0.059451,0.025199 -0.024035,0.01133 -0.049188,0.025107 -0.072418,0.037964 -0.022257,0.012319 -0.041471,0.023068 -0.056856,0.030731 -0.012459,0.00621 -0.023259,0.010628 -0.034259,0.014661 -0.010683,0.00392 -0.022651,0.00767 -0.039601,0.014045 -0.017068,0.00642 -0.031689,0.013132 -0.042976,0.018541 -0.010759,0.00516 -0.018975,0.00915 -0.018772,0.00906 0.00254,-0.00111 0.00523,-0.00202 0.0053,-0.00204 6.64e-5,-2.12e-5 -0.00253,7.385e-4 -0.00752,0.00224 -0.011267,0.0034 -0.025816,0.00823 -0.04557,0.016935 -0.010097,0.00445 -0.020299,0.00947 -0.029628,0.014246 -0.00938,0.0048 -0.019088,0.00996 -0.028471,0.015014 -0.01929,0.010383 -0.036586,0.01992 -0.053203,0.028558 -0.015374,0.00799 -0.028944,0.014487 -0.040505,0.019501 -0.011586,0.00502 -0.019701,0.00792 -0.024594,0.00939 -0.00182,5.446e-4 -0.00421,0.00113 -0.012096,0.00229 -0.00543,8.041e-4 -0.024361,0.00321 -0.042603,0.00766 -0.011638,0.00284 -0.021685,0.00617 -0.029829,0.00908 -0.00738,0.00264 -0.015658,0.00585 -0.021874,0.00822 -0.013159,0.00503 -0.030599,0.011579 -0.058174,0.020411 -0.054704,0.017521 -0.1520253,0.044421 -0.273952,0.059808 -0.060587,0.00765 -0.1291047,0.012511 -0.199087,0.01566 -0.06944,0.00313 -0.1382482,0.00448 -0.199775,0.00541 -0.1238594,0.00187 -0.2040414,0.00165 -0.2701728,-0.00439 -0.031765,-0.0029 -0.061623,-0.0075 -0.089981,-0.012673 -0.028351,-0.00517 -0.055001,-0.010909 -0.081512,-0.016037 -0.027043,-0.00523 -0.049878,-0.00883 -0.068095,-0.011533 -0.020621,-0.00305 -0.029102,-0.00412 -0.036498,-0.00542 0.00133,2.324e-4 0.00465,9.049e-4 0.0093,0.00247 0.00494,0.00167 0.00983,0.00382 0.014353,0.00626 0.00412,0.00222 0.00646,0.00386 0.00496,0.00288 -6.612e-4,-4.365e-4 -0.00764,-0.00517 -0.015781,-0.00968 -0.015677,-0.00868 -0.030155,-0.013448 -0.04043,-0.016195 -0.010445,-0.00279 -0.019562,-0.00428 -0.025561,-0.00512 -0.00585,-8.223e-4 -0.011422,-0.00138 -0.013356,-0.00158 -0.00324,-3.39e-4 -0.00211,-2.57e-4 -1.455e-4,4.95e-5 0.011888,0.00186 0.022498,0.00531 0.031478,0.00935 0.00848,0.00381 0.014325,0.00765 0.016297,0.00897 0.0044,0.00295 -0.00418,-0.0042 -0.021782,-0.01394 -0.016125,-0.00892 -0.030403,-0.013497 -0.040652,-0.016237 -0.00942,-0.00252 -0.018033,-0.00406 -0.022278,-0.00481 -0.01046,-0.00185 -0.015354,-0.00257 -0.023435,-0.00443 -0.0083,-0.00191 -0.020401,-0.0054 -0.042594,-0.011812 -0.021037,-0.00608 -0.046956,-0.013525 -0.07734,-0.02125 -0.06354,-0.016155 -0.1340055,-0.030384 -0.2221745,-0.052502 -0.045833,-0.011498 -0.097821,-0.025467 -0.1469707,-0.038683 -0.050845,-0.013672 -0.099167,-0.026679 -0.1380653,-0.036316 -0.040073,-0.00993 -0.069872,-0.016056 -0.094089,-0.020645 -0.025928,-0.00491 -0.035233,-0.00631 -0.046034,-0.00879 -0.00612,-0.0014 -0.01295,-0.0035 -0.026761,-0.00828 -0.01228,-0.00425 -0.031762,-0.011222 -0.054282,-0.017914 -0.022986,-0.00683 -0.048276,-0.012926 -0.071181,-0.018253 -0.023856,-0.00555 -0.04466,-0.010163 -0.064336,-0.015006 -0.018003,-0.00443 -0.034659,-0.00909 -0.050733,-0.013781 -0.015797,-0.00461 -0.030841,-0.00923 -0.046439,-0.013662 -0.032912,-0.00935 -0.059309,-0.01455 -0.083786,-0.017745 -0.013405,-0.00175 -0.021501,-0.00229 -0.027376,-0.00297 -0.00509,-5.886e-4 -0.011558,-0.00149 -0.021915,-0.00368 -0.011342,-0.0024 -0.026425,-0.00634 -0.052014,-0.012847 C 6.6979057,6.2098054 6.6687406,6.2025436 6.635781,6.1955501 6.5691798,6.1814185 6.4980725,6.17078 6.4257599,6.155633 6.3899667,6.1481356 6.3485401,6.1382507 6.2964075,6.1282042 6.2438886,6.1180834 6.1821765,6.1081908 6.1037551,6.1001993 6.0259241,6.0922679 5.9327331,6.0865438 5.8324045,6.0818951 5.7316231,6.0772253 5.6213971,6.073546 5.5097783,6.0699101 5.2845914,6.0625747 5.0479439,6.0552501 4.8475042,6.0551208 c -0.1012107,-6.53e-5 -0.1925825,0.00177 -0.270178,0.00406 -0.077836,0.0023 -0.1432424,0.00511 -0.1896154,0.00693 -0.047064,0.00185 -0.077478,0.00274 -0.1031678,0.00394 -0.026291,0.00123 -0.047576,0.00281 -0.071994,0.00623 -0.049897,0.00701 -0.092322,0.018187 -0.1366221,0.026301 -0.025987,0.00476 -0.057476,0.00963 -0.083462,0.014392 -0.0344,0.00623 -0.073521,0.014186 -0.1197502,0.025995 -0.046273,0.011821 -0.098534,0.027379 -0.1487276,0.042598 -0.053402,0.016192 -0.1035174,0.031704 -0.1528292,0.045934 -0.049194,0.014196 -0.096466,0.0267 -0.1380125,0.037583 -0.042445,0.011118 -0.081215,0.021132 -0.111719,0.03002 -0.033215,0.00968 -0.057271,0.018331 -0.077944,0.026894 -0.01033,0.00428 -0.019212,0.00829 -0.026587,0.011674 -0.00832,0.00382 -0.012946,0.006 -0.019275,0.00883 -0.011484,0.00513 -0.026043,0.011067 -0.046454,0.018998 -0.021254,0.00826 -0.048117,0.018387 -0.080851,0.030736 -0.036132,0.01363 -0.075301,0.028403 -0.1152945,0.043183 -0.043362,0.016025 -0.082516,0.030137 -0.1142274,0.040936 -0.033469,0.011397 -0.061778,0.020058 -0.081987,0.026336 -0.011867,0.00369 -0.02284,0.00713 -0.032944,0.010528 -0.010952,0.00369 -0.022519,0.00787 -0.033856,0.01284 -0.013713,0.00601 -0.027259,0.013294 -0.040161,0.022447 -0.016026,0.011368 -0.02976,0.024718 -0.041011,0.039905 -0.01515,0.020451 -0.022283,0.039586 -0.025639,0.050072 -0.00101,0.00315 -0.0018,0.00591 -0.00239,0.00813 -0.00491,0.018289 -0.00382,0.017356 -0.00399,0.018316 a 0.147447,0.147447 90 0 0 0.2903798,0.051401 z"
       id="path92920"
       inkscape:path-effect="#path-effect92922;#path-effect97386"
       inkscape:original-d="m 2.7240079,6.6946355 c 0.002,-0.00955 0.00368,-0.019026 0.00503,-0.028416 0.046852,-0.00837 0.090309,-0.019304 0.1303716,-0.032799 0.099971,-0.033883 0.1965462,-0.070328 0.2897276,-0.1093347 0.042161,-0.012051 0.080929,-0.026662 0.1163022,-0.043837 0.023109,-0.0086 0.042824,-0.019766 0.059146,-0.033492 0.095176,-0.019304 0.1869577,-0.04117 0.2753448,-0.065597 0.1144521,-0.033882 0.2255089,-0.070325 0.3331718,-0.1093293 0.061337,-0.00472 0.1192798,-0.012016 0.1738285,-0.021866 0.046851,-0.00836 0.090309,-0.019304 0.1303715,-0.032799 0.032366,0.00256 0.061337,0.00256 0.086914,0 0.1642421,-0.00472 0.3250896,-0.012016 0.4825424,-0.021866 0.2388012,0.00985 0.4742075,0.01714 0.7062199,0.021866 0.2158518,0.00985 0.428309,0.01714 0.6373719,0.021866 0.085479,0.024428 0.1675661,0.046294 0.2462575,0.065597 0.075823,0.013496 0.1482513,0.024428 0.2172858,0.032798 0.050875,0.016531 0.098356,0.030502 0.1424416,0.041911 0.017077,0.00256 0.030757,0.00256 0.041043,0 0.022709,0.0062 0.042023,0.00985 0.057942,0.010935 0.037194,0.013494 0.070993,0.024428 0.1014,0.032798 0.0533,0.012689 0.1032044,0.022817 0.1497148,0.030381 0.027536,0.013494 0.05168,0.024428 0.072428,0.032798 0.037195,0.0062 0.070994,0.00985 0.1014,0.010934 0.1192798,0.035361 0.235166,0.06816 0.3476575,0.098396 0.075152,0.01714 0.146909,0.031716 0.2152716,0.043731 0.043913,0.016037 0.084429,0.029514 0.1215519,0.040429 0.016388,0.00256 0.029386,0.00256 0.038985,0 0.00823,0.00872 0.013051,0.014857 0.014485,0.018443 0.016381,0.00256 0.029365,0.00256 0.038956,0 0.00823,0.00872 0.013051,0.014867 0.014485,0.018459 0.037195,0.0062 0.070993,0.00985 0.1014,0.010932 0.066166,0.01714 0.1289374,0.031716 0.1883143,0.043731 0.090886,0.00256 0.1783785,0.00256 0.262476,0 0.1627372,-0.00108 0.3220804,-0.00472 0.4780287,-0.010932 0.1096236,-0.026593 0.2158518,-0.055747 0.318686,-0.087465 0.021905,-0.00776 0.040413,-0.01809 0.055529,-0.030978 0.021905,0.00256 0.040412,0.00256 0.055528,0 0.03443,-0.010972 0.065467,-0.024507 0.093107,-0.040603 0.044437,-0.021126 0.08548,-0.044814 0.1231287,-0.071064 0.012252,0.00256 0.021099,0.00256 0.026559,0 0.021905,-0.00776 0.040412,-0.01809 0.055527,-0.030978 0.0303,-0.00472 0.057207,-0.012016 0.080718,-0.021866 0.052818,-0.027451 0.1022419,-0.057463 0.1482699,-0.090038 0.03156,-0.00472 0.05973,-0.012016 0.0845,-0.021866 0.0214,-0.022386 0.04181,-0.044254 0.06121,-0.065597"
       sodipodi:nodetypes="ccccccccccccccccccccccccccccccccccccccccccccc" />
    <path
       style="opacity:0.8;fill:#cccccc;stroke:#999999;stroke-width:0.0483873;stroke-miterlimit:4;stroke-dasharray:none"
       d="m 9.6776844,25.135496 c -0.1589221,-0.294329 -0.802626,-2.061304 -0.764732,-2.099198 0.00655,-0.0066 0.086681,0.0262 0.1780597,0.07279 0.091379,0.04659 0.2227697,0.0847 0.29198,0.0847 0.06921,0 0.6221279,-0.163539 1.2287059,-0.36342 0.606578,-0.199881 1.338043,-0.41975 1.625478,-0.488599 0.287435,-0.06885 0.666637,-0.17485 0.842671,-0.23556 0.665579,-0.229541 2.008915,-0.55558 3.371314,-0.818247 0.747295,-0.144076 0.899617,-0.160213 1.49362,-0.158234 1.267392,0.0042 2.654549,0.328159 4.259145,0.994624 0.391863,0.162759 0.981329,0.376334 1.309925,0.474613 0.328597,0.09828 0.868366,0.280999 1.199487,0.406046 0.331121,0.125047 0.801612,0.267521 1.045534,0.31661 0.243923,0.04909 0.700409,0.156896 1.014413,0.239574 0.814831,0.214546 1.359997,0.27561 2.463767,0.275967 1.592443,5.15e-4 2.626452,-0.148147 4.508705,-0.648228 1.627208,-0.43232 2.362093,-0.690204 3.559634,-1.249139 0.379695,-0.177218 0.840584,-0.370286 1.024197,-0.42904 0.183612,-0.05875 0.458665,-0.14674 0.611228,-0.195524 0.152562,-0.04878 0.344599,-0.103714 0.426748,-0.122067 0.08215,-0.01835 0.211774,-0.06591 0.288056,-0.105677 0.134065,-0.0699 0.138693,-0.0695 0.138693,0.01197 0,0.115326 -0.15754,0.930727 -0.260349,1.347521 -0.231515,0.938583 -0.422449,1.473619 -0.422449,1.183791 0,-0.09609 -0.190368,-0.302322 -0.32702,-0.354277 -0.223947,-0.08514 -0.513033,-0.01845 -0.653463,0.150755 -0.05971,0.07194 -0.970251,0.543269 -1.15326,0.596963 -0.05868,0.01722 -0.32753,0.133574 -0.597448,0.258573 -0.524016,0.242672 -1.299056,0.492756 -1.856357,0.598995 -0.418358,0.07975 -2.043371,0.159213 -2.539155,0.12416 -0.472302,-0.03339 -1.065495,-0.133945 -1.386933,-0.2351 -0.256309,-0.08066 -2.590399,-0.676778 -3.07259,-0.784728 -0.140827,-0.03153 -0.515299,-0.127805 -0.83216,-0.213948 -0.609347,-0.165661 -0.829385,-0.21421 -2.32578,-0.51316 -1.100652,-0.219888 -1.51649,-0.262767 -3.093928,-0.319034 -3.330722,-0.118806 -4.843725,-0.0925 -5.891336,0.102437 -0.75013,0.139582 -2.854945,0.740274 -3.515371,1.00325 -0.28336,0.112832 -0.803255,0.304404 -1.155323,0.425716 -0.687343,0.236839 -0.8875228,0.367037 -0.9538331,0.62038 -0.031599,0.120726 -0.036776,0.123561 -0.079873,0.04374 z"
       id="path98362"
       transform="scale(0.26458333)" />
    <path
       style="opacity:0.8;fill:#cccccc;stroke:#999999;stroke-width:0.0483873;stroke-miterlimit:4;stroke-dasharray:none"
       d="m 11.333618,27.961761 c -0.196796,-0.267944 -0.47724,-0.677402 -0.623209,-0.909907 -0.264285,-0.420962 -0.703153,-1.19188 -0.703153,-1.235163 0,-0.0125 0.04118,-7.01e-4 0.0915,0.02623 0.120258,0.06436 0.405233,0.02378 0.544503,-0.07754 0.06094,-0.04434 0.322046,-0.152998 0.580229,-0.241472 0.258183,-0.08848 0.728673,-0.262469 1.045534,-0.386655 0.684662,-0.268335 2.529517,-0.799844 3.283638,-0.946029 0.773621,-0.149964 2.232896,-0.200383 4.205801,-0.145314 2.77236,0.07739 3.200763,0.111257 4.374174,0.345846 1.377897,0.275471 1.641475,0.333785 2.230495,0.493474 0.31059,0.08421 0.679931,0.178975 0.820758,0.210601 0.561867,0.126181 2.785793,0.699792 2.965903,0.764987 0.297568,0.107712 1.2567,0.267438 1.796104,0.299109 0.615901,0.03616 2.19516,-0.04026 2.727432,-0.13199 0.222976,-0.03843 0.568643,-0.118252 0.768148,-0.177393 0.199505,-0.05914 0.493721,-0.143872 0.653814,-0.188291 0.160092,-0.04442 0.443198,-0.157248 0.629122,-0.250729 0.185925,-0.09348 0.477421,-0.225456 0.64777,-0.293277 0.412356,-0.164173 1.256639,-0.589477 1.429939,-0.720327 0.07628,-0.0576 0.138694,-0.08387 0.138694,-0.05839 0,0.02548 -0.106775,0.291811 -0.237276,0.591844 -0.410998,0.944912 -0.934533,1.881177 -1.527794,2.732231 -0.29807,0.427592 -0.368674,0.4998 -0.368674,0.37705 0,-0.108275 -0.214933,-0.319755 -0.367903,-0.361992 -0.175974,-0.04859 -0.294872,-0.01542 -0.976355,0.272405 -1.137969,0.480615 -1.754271,0.531514 -3.349977,0.276669 -0.724058,-0.115636 -1.212509,-0.23926 -1.495688,-0.378546 -0.130229,-0.06406 -0.591118,-0.366858 -1.024197,-0.672894 -1.920112,-1.35685 -2.793689,-1.810098 -4.052044,-2.102368 -0.641707,-0.149044 -1.538778,-0.261463 -2.283106,-0.286111 -0.718371,-0.02379 -0.741556,-0.02166 -2.368455,0.21707 -0.90364,0.132602 -1.902232,0.299108 -2.219093,0.370014 -0.316861,0.0709 -0.844962,0.186057 -1.173559,0.255893 -1.151153,0.244652 -1.385569,0.329235 -2.94348,1.062072 -2.735067,1.28657 -2.741014,1.289978 -2.826376,1.619403 l -0.03541,0.136655 z"
       id="path98401"
       transform="scale(0.26458333)" />
    <path
       style="fill:#000000;fill-rule:nonzero;stroke:none;stroke-width:0.3079px;stroke-linecap:butt;stroke-linejoin:miter;stroke-opacity:1"
       d="M 4.9673039,5.3763673 C 4.9874531,5.3332974 5.0735181,5.2134089 5.0881989,5.1179477 5.104697,5.0106706 5.0564916,4.8798502 5.0406379,4.7608014 5.0247842,4.6417527 5.0370741,4.5028761 4.9930768,4.4036551 4.9539255,4.3153628 4.8394853,4.2221755 4.808767,4.1858796 4.7886178,4.2289495 4.7025528,4.348838 4.687872,4.4442992 c -0.016498,0.1072771 0.031707,0.2380975 0.047561,0.3571463 0.015854,0.1190487 0.00356,0.2579253 0.047561,0.3571463 0.039151,0.088292 0.1535915,0.1814796 0.1843098,0.2177755 z"
       id="path98808"
       inkscape:path-effect="#path-effect100619"
       inkscape:original-d="M 4.9673039,5.3763673 4.808767,4.1858796" />
    <path
       style="fill:#000000;fill-rule:nonzero;stroke:none;stroke-width:0.264583px;stroke-linecap:butt;stroke-linejoin:miter;stroke-opacity:1"
       d="m 5.0126386,5.3750675 c 0.030525,-0.02363 0.1388773,-0.078179 0.1831468,-0.1417823 0.049122,-0.070575 0.056925,-0.1813932 0.085387,-0.2720898 0.028462,-0.090697 0.085377,-0.1861025 0.085387,-0.2720898 9.3e-6,-0.077493 -0.057748,-0.1841701 -0.069297,-0.2210041 -0.030525,0.02363 -0.1388773,0.078179 -0.1831468,0.1417823 -0.049122,0.070575 -0.056925,0.1813932 -0.085387,0.2720898 -0.028462,0.090697 -0.085377,0.1861025 -0.085387,0.2720898 -9.3e-6,0.077493 0.057748,0.1841701 0.069297,0.2210041 z"
       id="path98810"
       inkscape:path-effect="#path-effect100621"
       inkscape:original-d="M 5.0126386,5.3750675 5.297262,4.4681015" />
    <path
       style="fill:#000000;fill-rule:nonzero;stroke:none;stroke-width:0.264583px;stroke-linecap:butt;stroke-linejoin:miter;stroke-opacity:1"
       d="M 4.922774,5.3453963 C 4.9109304,5.308764 4.8964405,5.1885737 4.8517124,5.1256025 4.8021137,5.055774 4.7007693,5.01126 4.6252978,4.9540887 4.5498262,4.8969175 4.4795332,4.8114126 4.3988831,4.782575 c -0.07273,-0.026006 -0.1923538,-0.00741 -0.2308246,-0.00889 0.011844,0.036632 0.026333,0.1568226 0.071062,0.2197938 0.049599,0.069828 0.1509431,0.1143425 0.2264146,0.1715138 0.075472,0.057171 0.1457646,0.1426761 0.2264147,0.1715137 0.07273,0.026006 0.1923538,0.00741 0.2308246,0.00889 z"
       id="path98812"
       inkscape:path-effect="#path-effect100579"
       inkscape:original-d="M 4.922774,5.3453963 4.1680585,4.7736838" />
    <path
       style="fill:#000000;fill-rule:nonzero;stroke:none;stroke-width:0.264583px;stroke-linecap:butt;stroke-linejoin:miter;stroke-opacity:1"
       d="m 4.1425598,4.0026933 c 0.00763,0.03272 0.0033,0.1306475 0.045798,0.19632 0.076392,0.118046 0.3287633,0.2375942 0.493145,0.3563914 A 0.13229153,0.13229154 15.817173 0 0 4.8909238,4.4384455 C 4.8702747,4.1586589 4.8931123,3.7761358 4.8289765,3.5990857 4.7932959,3.5005875 4.7061269,3.4323332 4.681557,3.3989827 4.6621494,3.4355789 4.585945,3.5158906 4.5651111,3.6185597 4.5407638,3.738543 4.5655318,3.9390405 4.5915166,4.1415328 4.5013883,4.0674447 4.4145917,4.0031553 4.3433345,3.984569 4.2676427,3.9648261 4.1760223,3.9996726 4.1425598,4.0026933 Z"
       id="path98814"
       inkscape:path-effect="#path-effect100699"
       inkscape:original-d="M 4.1425598,4.0026933 4.7589911,4.4481826 4.681557,3.3989827"
       sodipodi:nodetypes="ccc" />
    <path
       style="fill:#000000;fill-rule:nonzero;stroke:none;stroke-width:0.264583px;stroke-linecap:butt;stroke-linejoin:miter;stroke-opacity:1"
       d="m 4.7659555,4.5404003 c 0.033601,-0.00971 0.1460028,-0.018348 0.2016052,-0.05823 0.059999,-0.043036 0.092985,-0.1337465 0.1394777,-0.2006198 0.046492,-0.066873 0.1200342,-0.1293888 0.1394776,-0.2006197 0.018019,-0.066012 -0.013029,-0.1743858 -0.015635,-0.2092629 -0.033601,0.0097 -0.1460028,0.018348 -0.2016052,0.05823 -0.059999,0.043036 -0.092985,0.1337465 -0.1394777,0.2006198 -0.046493,0.066873 -0.1200342,0.1293888 -0.1394776,0.2006197 -0.018019,0.066012 0.013029,0.1743858 0.015635,0.2092629 z"
       id="path98816"
       inkscape:path-effect="#path-effect100777"
       inkscape:original-d="M 4.7659555,4.5404003 5.2308811,3.8716678" />
    <path
       style="fill:#000000;fill-rule:nonzero;stroke:none;stroke-width:0.339506px;stroke-linecap:butt;stroke-linejoin:miter;stroke-opacity:1"
       d="m 5.2423263,4.5693419 c 0.00902,0.037736 0.011118,0.169061 0.054101,0.2264156 0.043547,0.058108 0.138312,0.079023 0.2074679,0.1185343 0.069156,0.039511 0.1352963,0.1105273 0.2074679,0.1185343 0.071236,0.0079 0.1854358,-0.056975 0.222523,-0.06837 C 5.9248691,4.9267203 5.922768,4.7953952 5.8797851,4.7380406 5.8362378,4.679933 5.7414731,4.6590177 5.6723172,4.6195063 5.6031612,4.5799949 5.5370209,4.508979 5.4648493,4.500972 c -0.071236,-0.0079 -0.1854358,0.056975 -0.222523,0.06837 z"
       id="path98818"
       inkscape:path-effect="#path-effect101539"
       inkscape:original-d="M 5.2423263,4.5693419 5.9338859,4.9644562" />
    <path
       style="fill:#000000;fill-rule:nonzero;stroke:none;stroke-width:0.264583px;stroke-linecap:butt;stroke-linejoin:miter;stroke-opacity:1"
       d="m 5.2236095,4.5328954 c 0.036107,-0.0036 0.1513075,0.00806 0.216645,-0.021579 0.071315,-0.032346 0.1262427,-0.1181629 0.189364,-0.1772444 0.063121,-0.059081 0.1523788,-0.1082218 0.189364,-0.1772445 0.033885,-0.063238 0.029867,-0.1789557 0.03584,-0.2147468 -0.036107,0.0036 -0.1513075,-0.00806 -0.216645,0.021579 -0.071315,0.032346 -0.1262427,0.1181629 -0.189364,0.1772444 -0.063121,0.059081 -0.1523788,0.1082218 -0.189364,0.1772445 -0.033885,0.063238 -0.029867,0.1789557 -0.03584,0.2147468 z"
       id="path98820"
       inkscape:path-effect="#path-effect101537"
       inkscape:original-d="M 5.2236095,4.5328954 5.8548227,3.9420806" />
    <path
       style="fill:#000000;fill-rule:nonzero;stroke:none;stroke-width:0.264583px;stroke-linecap:butt;stroke-linejoin:miter;stroke-opacity:1"
       d="m 5.3324662,4.5696381 c 0.027732,0.016806 0.1054824,0.090319 0.1663927,0.1008366 0.06388,0.011031 0.1397403,-0.028742 0.2096105,-0.043113 0.06987,-0.014371 0.1552695,-0.00777 0.2096106,-0.043114 0.051815,-0.033703 0.09424,-0.1319343 0.1130881,-0.1583212 -0.027732,-0.016806 -0.1054824,-0.090319 -0.1663927,-0.1008366 -0.06388,-0.011031 -0.1397403,0.028742 -0.2096105,0.043113 -0.06987,0.014371 -0.1552695,0.00777 -0.2096106,0.043114 -0.051815,0.033703 -0.09424,0.1319343 -0.1130881,0.1583212 z"
       id="path98822"
       inkscape:path-effect="#path-effect101579"
       inkscape:original-d="M 5.3324662,4.5696381 6.0311681,4.4259265" />
    <path
       style="fill:#000000;fill-rule:nonzero;stroke:none;stroke-width:0.264583px;stroke-linecap:butt;stroke-linejoin:miter;stroke-opacity:1"
       d="M 4.6755679,3.8459618 C 4.6783141,3.8146782 4.7095919,3.7146626 4.6920451,3.6582604 4.6739105,3.5999687 4.6065586,3.5548469 4.5638154,3.5031402 4.5210721,3.4514335 4.4894254,3.3767961 4.4355857,3.34802 4.3834911,3.3201766 4.2793773,3.3320821 4.2481356,3.3288945 c -0.00275,0.031284 -0.034024,0.1312992 -0.016477,0.1877014 0.018135,0.058292 0.085487,0.1034135 0.1282297,0.1551202 0.042743,0.051707 0.07439,0.1263441 0.1282297,0.1551202 0.052095,0.027843 0.1562084,0.015938 0.1874501,0.019125 z"
       id="path98937"
       inkscape:path-effect="#path-effect100937"
       inkscape:original-d="M 4.6755679,3.8459618 4.2481356,3.3288945" />
    <path
       style="fill:#000000;fill-rule:nonzero;stroke:none;stroke-width:0.296905px;stroke-linecap:butt;stroke-linejoin:miter;stroke-opacity:1"
       d="m 4.6727996,3.8097043 c 0.024803,-0.032489 0.1228367,-0.1183196 0.1488183,-0.1949318 0.02839,-0.083713 3.66e-4,-0.1952102 5.49e-4,-0.2928153 1.83e-4,-0.097605 0.028625,-0.2089961 5.49e-4,-0.2928153 C 4.7970217,2.9524328 4.6993107,2.8662348 4.6746296,2.8336534 4.6498265,2.866142 4.5517929,2.951973 4.5258113,3.0285852 c -0.02839,0.083713 -3.66e-4,0.1952102 -5.49e-4,0.2928153 -1.83e-4,0.097605 -0.028625,0.2089961 -5.49e-4,0.2928153 0.025694,0.076709 0.1234052,0.1629071 0.1480863,0.1954885 z"
       id="path98939"
       inkscape:path-effect="#path-effect101093"
       inkscape:original-d="m 4.6727996,3.8097043 0.00183,-0.9760509" />
    <path
       style="fill:#000000;fill-rule:nonzero;stroke:none;stroke-width:0.264583px;stroke-linecap:butt;stroke-linejoin:miter;stroke-opacity:1"
       d="m 4.753084,3.6576298 c 0.034666,-0.011348 0.1501068,-0.024907 0.2079947,-0.068089 0.063279,-0.047204 0.09921,-0.1433678 0.1488146,-0.2150518 0.049605,-0.071684 0.1269378,-0.1391971 0.1488145,-0.2150518 0.020013,-0.069392 -0.00798,-0.1822053 -0.00958,-0.2186464 -0.034666,0.011348 -0.1501068,0.024907 -0.2079947,0.068089 -0.063279,0.047204 -0.09921,0.1433678 -0.1488146,0.2150518 -0.049605,0.071684 -0.1269378,0.1391971 -0.1488145,0.2150518 -0.020013,0.069392 0.00798,0.1822053 0.00958,0.2186464 z"
       id="path98941"
       inkscape:path-effect="#path-effect101015"
       inkscape:original-d="M 4.753084,3.6576298 5.2491325,2.9407905" />
    <path
       style="fill:#000000;fill-rule:nonzero;stroke:none;stroke-width:0.264583px;stroke-linecap:butt;stroke-linejoin:miter;stroke-opacity:1"
       d="M 4.7007339,3.1394062 C 4.700861,3.1056163 4.7240202,2.998049 4.7014965,2.9366671 4.677483,2.8712251 4.6016879,2.8198726 4.5517836,2.7614754 4.5018794,2.7030782 4.4629696,2.6202048 4.4020708,2.5862838 4.3449502,2.5544672 4.2350877,2.5605756 4.2016911,2.555434 c -1.271e-4,0.03379 -0.023286,0.1413572 -7.626e-4,0.2027391 0.024014,0.065442 0.099809,0.1167945 0.1497129,0.1751917 0.049904,0.058397 0.088814,0.1412706 0.1497128,0.1751916 0.057121,0.031817 0.1669831,0.025708 0.2003797,0.03085 z"
       id="path98943"
       inkscape:path-effect="#path-effect101095"
       inkscape:original-d="M 4.7007339,3.1394062 4.2016911,2.555434" />
    <path
       style="fill:#000000;fill-rule:nonzero;stroke:none;stroke-width:0.264583px;stroke-linecap:butt;stroke-linejoin:miter;stroke-opacity:1"
       d="M 4.6502978,2.9201459 C 4.6744151,2.8973436 4.7672337,2.8407966 4.7950016,2.783332 4.824404,2.7224849 4.8079126,2.6350433 4.814368,2.560899 4.8208235,2.4867547 4.8521786,2.4034789 4.8337344,2.338466 4.8163154,2.2770671 4.7346661,2.2053299 4.7148524,2.1787027 4.6907351,2.201505 4.5979165,2.258052 4.5701486,2.3155166 c -0.029402,0.060847 -0.012911,0.1482887 -0.019366,0.222433 -0.00646,0.074144 -0.037811,0.1574201 -0.019366,0.222433 0.017419,0.061399 0.099068,0.1331361 0.118882,0.1597633 z"
       id="path98945"
       inkscape:path-effect="#path-effect101135"
       inkscape:original-d="M 4.6502978,2.9201459 4.7148524,2.1787027" />
    <path
       style="fill:none;stroke:#000000;stroke-width:0.264583px;stroke-linecap:butt;stroke-linejoin:miter;stroke-opacity:1"
       d="m 4.6447794,2.8765452 c 0,-0.043756 -0.00564,-0.026534 0.00799,-0.053773"
       id="path98947" />
    <path
       style="fill:#000000;fill-rule:nonzero;stroke:none;stroke-width:0.264583px;stroke-linecap:butt;stroke-linejoin:miter;stroke-opacity:1"
       d="m 5.0743176,2.511153 c -0.032286,0.00781 -0.1409931,0.010773 -0.1937159,0.046865 -0.055844,0.038229 -0.085101,0.1223889 -0.1276512,0.1835833 -0.04255,0.061194 -0.1112581,0.117923 -0.1276512,0.1835833 -0.015477,0.06199 0.019595,0.1649269 0.023514,0.1979123 0.032286,-0.00781 0.1409931,-0.010773 0.1937159,-0.046865 0.055844,-0.038229 0.085101,-0.1223889 0.1276512,-0.1835833 0.04255,-0.061194 0.1112581,-0.117923 0.1276512,-0.1835833 0.015477,-0.06199 -0.019595,-0.1649269 -0.023514,-0.1979123 z"
       id="path98949"
       inkscape:path-effect="#path-effect101175"
       inkscape:original-d="M 5.0743176,2.511153 4.6488136,3.1230972" />
    <path
       style="fill:#000000;fill-rule:nonzero;stroke:none;stroke-width:0.264583px;stroke-linecap:butt;stroke-linejoin:miter;stroke-opacity:1"
       d="M 6.3158467,3.3853177 C 6.2816196,3.3898824 6.1842026,3.3741558 6.1104842,3.4127059 6.0304416,3.4545631 5.9379866,3.5657905 5.8447359,3.6814649 5.8178938,3.5539231 5.7889492,3.432574 5.7405337,3.3685745 5.6937502,3.3067324 5.6008496,3.2809048 5.5729128,3.2633709 5.5584474,3.293013 5.4931933,3.3640025 5.4861201,3.4412237 5.473811,3.575607 5.5938911,3.8186321 5.6477766,4.0073363 a 0.13229154,0.13229154 58.392086 0 0 0.2243967,0.053426 C 6.0164035,3.9045773 6.2481838,3.7254201 6.3048639,3.5922072 c 0.03257,-0.076549 0.00915,-0.1724079 0.010983,-0.2068895 z"
       id="path98951"
       inkscape:path-effect="#path-effect101497"
       inkscape:original-d="M 6.3158467,3.3853177 5.7749834,3.9710118 5.5729128,3.2633709" />
    <path
       style="fill:#000000;fill-rule:nonzero;stroke:none;stroke-width:0.264583px;stroke-linecap:butt;stroke-linejoin:miter;stroke-opacity:1"
       d="m 5.7393688,3.9987706 c 0.020911,0.0223 0.073493,0.110919 0.1254653,0.133802 0.052977,0.023326 0.127048,0.00152 0.1905719,0.00228 0.063524,7.6e-4 0.1370519,0.024331 0.1905719,0.00228 0.052505,-0.021633 0.1071922,-0.1089683 0.1286306,-0.130762 -0.020911,-0.0223 -0.073493,-0.110919 -0.1254653,-0.133802 -0.052977,-0.023326 -0.127048,-0.00152 -0.1905719,-0.00228 -0.063524,-7.6e-4 -0.1370519,-0.024331 -0.1905719,-0.00228 -0.052505,0.021633 -0.1071922,0.1089683 -0.1286306,0.130762 z"
       id="path98953"
       inkscape:path-effect="#path-effect101619"
       inkscape:original-d="m 5.7393688,3.9987706 0.6352397,0.0076" />
    <path
       style="fill:none;stroke:#000000;stroke-width:0.264583px;stroke-linecap:butt;stroke-linejoin:miter;stroke-opacity:1"
       d="m 5.2325611,2.9873434 0.688571,0.046488"
       id="path98955" />
    <path
       style="fill:#000000;fill-rule:nonzero;stroke:none;stroke-width:0.264583px;stroke-linecap:butt;stroke-linejoin:miter;stroke-opacity:1"
       d="m 5.0990024,3.0867157 c 0.032545,-0.00784 0.14183,-0.010801 0.1952689,-0.04704 0.056773,-0.0385 0.087247,-0.1234087 0.1308698,-0.185113 0.043623,-0.061704 0.113508,-0.1187502 0.1308698,-0.185113 0.016342,-0.062465 -0.017313,-0.1664812 -0.020776,-0.1997775 -0.032545,0.00784 -0.14183,0.010801 -0.1952689,0.04704 -0.056773,0.0385 -0.087247,0.1234087 -0.1308698,0.185113 -0.043623,0.061704 -0.113508,0.1187502 -0.1308698,0.185113 -0.016342,0.062465 0.017313,0.1664812 0.020776,0.1997775 z"
       id="path98957"
       inkscape:path-effect="#path-effect101215"
       inkscape:original-d="M 5.0990024,3.0867157 5.535235,2.4696724" />
    <path
       style="fill:#000000;fill-rule:nonzero;stroke:none;stroke-width:0.264583px;stroke-linecap:butt;stroke-linejoin:miter;stroke-opacity:1"
       d="m 5.863952,2.9842375 c 0.027043,-0.012848 0.1262518,-0.035481 0.1622612,-0.077089 0.036275,-0.041915 0.035859,-0.1161229 0.053789,-0.1741844 0.01793,-0.058061 0.060115,-0.1191146 0.053789,-0.1741844 -0.00628,-0.054667 -0.075452,-0.1292971 -0.090542,-0.1551565 -0.027044,0.012848 -0.1262518,0.035481 -0.1622612,0.077089 -0.036275,0.041915 -0.035859,0.1161229 -0.053789,0.1741844 -0.01793,0.058061 -0.060115,0.1191146 -0.053789,0.1741844 0.00628,0.054667 0.075452,0.1292971 0.090542,0.1551565 z"
       id="path98959"
       inkscape:path-effect="#path-effect101457"
       inkscape:original-d="M 5.863952,2.9842375 6.043249,2.4036228" />
    <path
       style="fill:#000000;fill-rule:nonzero;stroke:none;stroke-width:0.300497px;stroke-linecap:butt;stroke-linejoin:miter;stroke-opacity:1"
       d="m 5.7688814,3.0403589 c 0.021752,0.027821 0.072897,0.1344642 0.1305109,0.1669284 0.059253,0.033387 0.1483538,0.017743 0.2225306,0.026615 0.074177,0.00887 0.1570755,0.045087 0.2225306,0.026615 C 6.4080984,3.2425559 6.4829506,3.1509826 6.51065,3.1290756 6.4888982,3.1012542 6.437753,2.9946114 6.3801391,2.9621472 6.3208865,2.9287597 6.2317853,2.9444039 6.1576085,2.9355322 6.0834316,2.9266605 6.000533,2.8904449 5.9350779,2.9089172 5.871433,2.9268786 5.7965808,3.0184519 5.7688814,3.0403589 Z"
       id="path98961"
       inkscape:path-effect="#path-effect101217"
       inkscape:original-d="M 5.7688814,3.0403589 6.51065,3.1290756" />
    <path
       style="fill:#000000;fill-rule:nonzero;stroke:none;stroke-width:0.293393px;stroke-linecap:butt;stroke-linejoin:miter;stroke-opacity:1"
       d="m 5.1833854,1.9595042 c -0.00957,0.030919 -0.066018,0.1140325 -0.05745,0.1855111 0.014133,0.1178986 0.1790853,0.2882589 0.268628,0.4323884 a 0.1466964,0.1466964 38.282843 0 0 0.26379,-0.031068 C 5.7194128,2.3629656 5.8504508,2.1283748 5.8415313,1.9962261 5.8361236,1.9161079 5.7637075,1.8429985 5.7481428,1.812353 5.7173132,1.8275499 5.6155242,1.8426517 5.5631654,1.9035346 5.5258864,1.9468827 5.4980366,2.0211424 5.4735108,2.1062988 5.442298,2.0549874 5.4099343,2.0128918 5.3751494,1.9901873 5.3148643,1.9508385 5.2153461,1.964618 5.1833854,1.9595042 Z"
       id="path98963"
       inkscape:path-effect="#path-effect101259"
       inkscape:original-d="M 5.1833854,1.9595042 5.5191705,2.4999897 5.7481428,1.812353" />
    <path
       style="fill:#000000;fill-rule:nonzero;stroke:none;stroke-width:0.264583px;stroke-linecap:butt;stroke-linejoin:miter;stroke-opacity:1"
       d="m 5.4755159,2.5210587 c 0.031712,0.00726 0.1288564,0.052656 0.1902711,0.043536 0.064498,-0.00958 0.1245635,-0.071284 0.1868453,-0.1069253 0.062282,-0.035642 0.1459129,-0.056169 0.1868453,-0.1069254 0.038976,-0.04833 0.049047,-0.1550861 0.058856,-0.1861033 C 6.0666219,2.1573848 5.9694773,2.1119848 5.9080626,2.1211047 5.843565,2.1306824 5.7834991,2.1923883 5.7212173,2.22803 5.6589355,2.2636718 5.5753044,2.284199 5.534372,2.3349554 c -0.038976,0.04833 -0.049047,0.1550861 -0.058856,0.1861033 z"
       id="path98965"
       inkscape:path-effect="#path-effect101219"
       inkscape:original-d="M 5.4755159,2.5210587 6.0983337,2.1646408" />
    <path
       style="fill:#000000;fill-rule:nonzero;stroke:none;stroke-width:0.264583px;stroke-linecap:butt;stroke-linejoin:miter;stroke-opacity:1"
       d="m 4.3649753,3.5305954 c 0.00694,-0.032947 0.051337,-0.1333328 0.041658,-0.197684 C 4.3963287,3.2643942 4.3325946,3.1993767 4.2955751,3.1326093 4.2585555,3.0658419 4.2371715,2.9773431 4.1845164,2.9323071 4.1350628,2.8900095 4.0264025,2.8744858 3.9947797,2.8629215 c -0.00694,0.032947 -0.051337,0.1333328 -0.041658,0.197684 0.010305,0.068517 0.074039,0.1335347 0.1110586,0.2003021 0.03702,0.066767 0.058404,0.1552662 0.1110587,0.2003022 0.049454,0.042298 0.1581139,0.057821 0.1897367,0.069386 z"
       id="path99080"
       inkscape:path-effect="#path-effect100897"
       inkscape:original-d="M 4.3649753,3.5305954 3.9947797,2.8629215"
       sodipodi:nodetypes="cc" />
    <path
       style="fill:#000000;fill-rule:nonzero;stroke:none;stroke-width:0.264583px;stroke-linecap:butt;stroke-linejoin:miter;stroke-opacity:1"
       d="M 4.1857745,3.2506512 C 4.1671967,3.2290481 4.1207673,3.1416749 4.0743077,3.1210324 c -0.045285,-0.020121 -0.1082492,0.00263 -0.1623738,0.00395 -0.054125,0.00132 -0.1181207,-0.018349 -0.1623738,0.00395 -0.045401,0.022877 -0.087526,0.112405 -0.1050316,0.134886 0.018578,0.021603 0.065007,0.1089763 0.1114668,0.1296188 0.045285,0.020121 0.1082492,-0.00263 0.1623738,-0.00395 0.054125,-0.00132 0.1181207,0.018349 0.1623738,-0.00395 0.045401,-0.022877 0.087526,-0.112405 0.1050316,-0.134886 z"
       id="path99082"
       inkscape:path-effect="#path-effect100857"
       inkscape:original-d="m 4.1857745,3.2506512 -0.541246,0.013168" />
    <path
       style="fill:#000000;fill-rule:nonzero;stroke:none;stroke-width:0.264583px;stroke-linecap:butt;stroke-linejoin:miter;stroke-opacity:1"
       d="m 3.7853899,3.7980608 c 0.030441,0.00194 0.1292937,0.030523 0.1826441,0.011629 0.054315,-0.019236 0.093019,-0.085677 0.1395284,-0.1285152 0.046509,-0.042838 0.1159011,-0.075961 0.1395284,-0.1285152 0.023207,-0.05162 0.00283,-0.1524853 0.00339,-0.1829824 -0.030441,-0.00194 -0.1292937,-0.030523 -0.1826441,-0.011629 -0.054315,0.019236 -0.093019,0.085677 -0.1395284,0.1285152 -0.046509,0.042838 -0.1159011,0.075961 -0.1395284,0.1285152 -0.023207,0.051621 -0.00283,0.1524853 -0.00339,0.1829824 z"
       id="path99088"
       inkscape:path-effect="#path-effect100817"
       inkscape:original-d="M 3.7853899,3.7980608 4.2504846,3.3696768" />
    <path
       style="fill:#000000;fill-rule:nonzero;stroke:none;stroke-width:0.264583px;stroke-linecap:butt;stroke-linejoin:miter;stroke-opacity:1"
       d="m 5.7601167,1.9772793 c 0.00154,-0.036931 0.029378,-0.1509664 0.00923,-0.2215842 C 5.7472362,1.6782113 5.6692037,1.6085374 5.619133,1.5349586 5.5690623,1.4613798 5.5328855,1.363223 5.468921,1.3142221 5.4106245,1.2695633 5.2943284,1.2536128 5.2594099,1.2414909 c -0.00154,0.036931 -0.029378,0.1509664 -0.00923,0.2215842 0.022109,0.077484 0.1001414,0.1471577 0.1502121,0.2207365 0.050071,0.073579 0.086247,0.1717356 0.150212,0.2207365 0.058296,0.044659 0.1745926,0.060609 0.2095111,0.072731 z"
       id="path99090"
       inkscape:path-effect="#path-effect101337"
       inkscape:original-d="M 5.7601167,1.9772793 5.2594099,1.2414909"
       sodipodi:nodetypes="cc" />
    <path
       style="fill:#000000;fill-rule:nonzero;stroke:none;stroke-width:0.330292px;stroke-linecap:butt;stroke-linejoin:miter;stroke-opacity:1"
       d="m 5.7221373,1.9517126 c 0.032219,-0.024922 0.1532029,-0.082835 0.1933151,-0.1495345 0.04218,-0.070138 0.030563,-0.17755 0.045844,-0.266325 0.015281,-0.088775 0.062144,-0.1861208 0.045844,-0.266325 C 5.9916389,1.193255 5.8969822,1.0982235 5.8749506,1.0639626 5.8427314,1.088885 5.7217477,1.1467972 5.6816355,1.2134971 c -0.04218,0.070138 -0.030563,0.17755 -0.045844,0.266325 -0.015281,0.088775 -0.062144,0.1861208 -0.045844,0.266325 0.015502,0.076273 0.1101582,0.1713046 0.1321898,0.2055655 z"
       id="path99092"
       inkscape:path-effect="#path-effect101377"
       inkscape:original-d="m 5.7221373,1.9517126 0.1528133,-0.88775" />
    <path
       style="fill:#000000;fill-rule:nonzero;stroke:none;stroke-width:0.264583px;stroke-linecap:butt;stroke-linejoin:miter;stroke-opacity:1"
       d="m 5.5852549,1.9015155 c 0.040663,0.00866 0.1594647,0.057852 0.2439781,0.051953 0.095305,-0.00665 0.1987161,-0.072355 0.2980741,-0.1085325 C 6.2266652,1.8087581 6.3481114,1.7925869 6.4253813,1.7364031 6.4939019,1.686581 6.5532597,1.5725175 6.5788354,1.5397404 6.5381724,1.5310816 6.4193707,1.4818882 6.3348573,1.4877878 6.2395526,1.4944406 6.1361412,1.5601428 6.0367832,1.5963203 5.9374251,1.6324978 5.8159789,1.648669 5.738709,1.7048528 5.6701884,1.7546749 5.6108306,1.8687384 5.5852549,1.9015155 Z"
       id="path99094"
       inkscape:path-effect="#path-effect101417"
       inkscape:original-d="M 5.5852549,1.9015155 6.5788354,1.5397404"
       sodipodi:nodetypes="cc" />
    <path
       sodipodi:type="star"
       style="opacity:0.8;fill:#800000;stroke:#800000;stroke-width:1.13386;stroke-miterlimit:4;stroke-dasharray:none"
       id="path99616"
       inkscape:flatsided="false"
       sodipodi:sides="5"
       sodipodi:cx="-12.412568"
       sodipodi:cy="13.816435"
       sodipodi:r1="0.8856653"
       sodipodi:r2="0.44283265"
       sodipodi:arg1="1.0072205"
       sodipodi:arg2="1.6355391"
       inkscape:rounded="0"
       inkscape:randomized="0"
       d="m -11.939435,14.565132 -0.501783,-0.306792 -0.537197,0.239432 0.136717,-0.572029 -0.393716,-0.436916 0.586279,-0.04674 0.293867,-0.509461 0.225624,0.543141 0.575336,0.122052 -0.446837,0.382421 z"
       transform="matrix(0.26458333,0,0,0.26458333,11.888717,-1.1557337)"
       inkscape:transform-center-x="-0.0046849609"
       inkscape:transform-center-y="-0.017874283" />
    <path
       style="fill:none;stroke:#000000;stroke-width:0.264583px;stroke-linecap:butt;stroke-linejoin:miter;stroke-opacity:1"
       d="m 6.0451467,2.9650467 0.504277,-0.298517"
       id="path99813" />
    <path
       style="fill:none;stroke:#000000;stroke-width:0.264583px;stroke-linecap:butt;stroke-linejoin:miter;stroke-opacity:1"
       d="M 6.4088141,2.7096101 7.0316732,2.9081285"
       id="path99819" />
    <path
       style="fill:none;stroke:#000000;stroke-width:0.264583px;stroke-linecap:butt;stroke-linejoin:miter;stroke-opacity:1"
       d="M 6.4629021,2.672666 7.0157159,2.3823416"
       id="path99821" />
    <path
       style="fill:#000000;fill-rule:nonzero;stroke:none;stroke-width:0.264583px;stroke-linecap:butt;stroke-linejoin:miter;stroke-opacity:1"
       d="m 6.5081255,2.6632618 c 0.02513,-0.015782 0.1205288,-0.049632 0.1507824,-0.094693 0.030313,-0.04515 0.020454,-0.1173994 0.030681,-0.1760991 0.010227,-0.0587 0.043939,-0.1233582 0.030681,-0.1760991 -0.013232,-0.052637 -0.091562,-0.1167552 -0.109874,-0.1401062 -0.02513,0.015782 -0.1205288,0.049632 -0.1507824,0.094693 -0.030313,0.04515 -0.020454,0.1173994 -0.030681,0.1760991 -0.010227,0.0587 -0.043939,0.1233582 -0.030681,0.1760991 0.013232,0.052637 0.091562,0.1167552 0.109874,0.1401062 z"
       id="path99823"
       inkscape:path-effect="#path-effect101623"
       inkscape:original-d="M 6.5081255,2.6632618 6.6103965,2.0762647" />
    <path
       style="fill:#000000;fill-rule:nonzero;stroke:none;stroke-width:0.264583px;stroke-linecap:butt;stroke-linejoin:miter;stroke-opacity:1"
       d="m 6.9271641,2.37369 c 0.030733,0.01426 0.1189927,0.080308 0.1844002,0.08556 0.069803,0.0056 0.1485814,-0.04179 0.2228721,-0.062686 0.074291,-0.020895 0.1662256,-0.021515 0.2228721,-0.062686 0.05308,-0.038578 0.093969,-0.1409504 0.1127625,-0.1691405 -0.030733,-0.01426 -0.1189927,-0.080308 -0.1844002,-0.08556 -0.069803,-0.0056 -0.1485814,0.04179 -0.2228721,0.062686 -0.074291,0.020895 -0.1662256,0.021515 -0.2228721,0.062686 -0.05308,0.038578 -0.093969,0.1409504 -0.1127625,0.1691405 z"
       id="path99825"
       inkscape:path-effect="#path-effect101663"
       inkscape:original-d="M 6.9271641,2.37369 7.670071,2.1647379" />
    <path
       style="fill:#000000;fill-rule:nonzero;stroke:none;stroke-width:0.264583px;stroke-linecap:butt;stroke-linejoin:miter;stroke-opacity:1"
       d="M 7.0480393,2.3387321 C 7.0682732,2.3163358 7.1516448,2.2571422 7.1694426,2.2043546 7.1874559,2.1509277 7.1590245,2.081121 7.1538155,2.0195043 7.1486065,1.9578875 7.1649154,1.8842986 7.1381885,1.834654 7.1117814,1.7856034 7.0196558,1.7412461 6.9959492,1.7225645 c -0.020234,0.022396 -0.1036055,0.08159 -0.1214033,0.1343775 -0.018013,0.053427 0.010418,0.1232336 0.015627,0.1848503 0.00521,0.061617 -0.0111,0.1352057 0.015627,0.1848503 0.026407,0.049051 0.1185327,0.093408 0.1422393,0.1120895 z"
       id="path99827"
       inkscape:path-effect="#path-effect101665"
       inkscape:original-d="M 7.0480393,2.3387321 6.9959492,1.7225645" />
    <path
       style="fill:#000000;fill-rule:nonzero;stroke:none;stroke-width:0.264583px;stroke-linecap:butt;stroke-linejoin:miter;stroke-opacity:1"
       d="m 6.9922787,2.3522229 c 0.00427,0.030411 -0.00379,0.133427 0.025597,0.1824656 0.030024,0.050108 0.1035902,0.07561 0.1553853,0.1134156 0.051795,0.037805 0.09851,0.1000952 0.1553853,0.1134156 0.055662,0.013036 0.1513197,-0.026037 0.1815837,-0.031245 -0.00427,-0.030411 0.00379,-0.133427 -0.025597,-0.1824656 C 7.4546086,2.4977014 7.3810428,2.4721988 7.3292477,2.4343936 7.2774526,2.3965884 7.230738,2.3342984 7.1738624,2.320978 7.1182005,2.3079418 7.0225427,2.3470154 6.9922787,2.3522229 Z"
       id="path99829"
       inkscape:path-effect="#path-effect101705"
       inkscape:original-d="m 6.9922787,2.3522229 0.517951,0.3780519" />
    <path
       style="fill:#000000;fill-rule:nonzero;stroke:none;stroke-width:0.264583px;stroke-linecap:butt;stroke-linejoin:miter;stroke-opacity:1"
       d="m 6.9094889,2.9244737 c -0.018166,0.020822 -0.096808,0.078272 -0.1089941,0.1249346 -0.011587,0.04437 0.020488,0.097814 0.030731,0.146721 0.010244,0.048907 0.00231,0.1107305 0.030731,0.1467211 0.029888,0.03785 0.1249745,0.058911 0.1499694,0.070693 0.018166,-0.020822 0.096808,-0.078272 0.1089941,-0.1249346 0.011587,-0.04437 -0.020488,-0.097814 -0.030731,-0.146721 -0.010244,-0.048907 -0.00231,-0.1107305 -0.030731,-0.1467211 -0.029888,-0.03785 -0.1249745,-0.058911 -0.1499694,-0.070693 z"
       id="path99833"
       inkscape:path-effect="#path-effect101939"
       inkscape:original-d="M 6.9094889,2.9244737 7.0119271,3.4135438" />
    <path
       style="fill:#000000;fill-rule:nonzero;stroke:none;stroke-width:0.264583px;stroke-linecap:butt;stroke-linejoin:miter;stroke-opacity:1"
       d="m 6.9404358,2.8242146 c 0.008,0.028899 0.013173,0.1306154 0.047983,0.1733953 0.035097,0.043133 0.1084495,0.055731 0.1626743,0.083597 0.054225,0.027866 0.1071715,0.080172 0.1626744,0.083597 0.055048,0.0034 0.1407633,-0.051611 0.168916,-0.061933 C 7.4746865,3.0739711 7.4695102,2.9722549 7.4347005,2.929475 7.3996032,2.8863417 7.326251,2.8737439 7.2720262,2.8458783 7.2178014,2.8180127 7.1648547,2.7657068 7.1093518,2.7622816 c -0.055048,-0.0034 -0.1407633,0.051611 -0.168916,0.061933 z"
       id="path99835"
       inkscape:path-effect="#path-effect101621"
       inkscape:original-d="M 6.9404358,2.8242146 7.4826837,3.1028703" />
    <path
       style="fill:none;stroke:#000000;stroke-width:0.42721px;stroke-linecap:butt;stroke-linejoin:miter;stroke-opacity:1"
       d="M 6.5470135,5.0576258 7.5741977,3.6974433 8.4902437,4.6069555"
       id="path100151" />
    <path
       style="fill:none;stroke:#000000;stroke-width:0.437565px;stroke-linecap:butt;stroke-linejoin:miter;stroke-opacity:1"
       d="M 7.7254042,5.7792287 9.5037481,3.7234671 10.458897,5.2175491"
       id="path100153" />
  </g>
</svg>
