<?xml version="1.0" encoding="UTF-8" standalone="no"?>
<!-- Created with Inkscape (http://www.inkscape.org/) -->

<svg
   width="48"
   height="48"
   viewBox="0 0 12.7 12.7"
   version="1.1"
   id="svg5"
   sodipodi:docname="logo.svg"
   inkscape:version="1.1.2 (08b2f3d93c, 2022-04-05)"
   xmlns:inkscape="http://www.inkscape.org/namespaces/inkscape"
   xmlns:sodipodi="http://sodipodi.sourceforge.net/DTD/sodipodi-0.dtd"
   xmlns="http://www.w3.org/2000/svg"
   xmlns:svg="http://www.w3.org/2000/svg">
  <sodipodi:namedview
     id="namedview7"
     pagecolor="#ffffff"
     bordercolor="#666666"
     borderopacity="1.0"
     inkscape:pageshadow="2"
     inkscape:pageopacity="0.0"
     inkscape:pagecheckerboard="0"
     inkscape:document-units="mm"
     showgrid="false"
     units="px"
     inkscape:snap-global="false"
     inkscape:zoom="11.313709"
     inkscape:cx="-7.7781746"
     inkscape:cy="13.258252"
     inkscape:window-width="1920"
     inkscape:window-height="1025"
     inkscape:window-x="0"
     inkscape:window-y="1107"
     inkscape:window-maximized="1"
     inkscape:current-layer="layer1" />
  <defs
     id="defs2">
    <inkscape:path-effect
       effect="powerstroke"
       id="path-effect2492"
       is_visible="true"
       lpeversion="1"
       offset_points="0.2,0.213605 | 1,0.213605 | 1.8,0.213605"
       not_jump="false"
       sort_points="true"
       interpolator_type="CentripetalCatmullRom"
       interpolator_beta="0.2"
       start_linecap_type="zerowidth"
       linejoin_type="round"
       miter_limit="4"
       scale_width="1"
       end_linecap_type="zerowidth" />
    <inkscape:path-effect
       effect="powerstroke"
       id="path-effect2490"
       is_visible="true"
       lpeversion="1"
       offset_points="0.2,0.2187825 | 1,0.2187825 | 1.8,0.2187825"
       not_jump="false"
       sort_points="true"
       interpolator_type="CentripetalCatmullRom"
       interpolator_beta="0.2"
       start_linecap_type="zerowidth"
       linejoin_type="round"
       miter_limit="4"
       scale_width="1"
       end_linecap_type="zerowidth" />
    <inkscape:path-effect
       effect="powerstroke"
       id="path-effect101939"
       is_visible="true"
       lpeversion="1"
       offset_points="0.2,0.1322915 | 0.5,0.1322915 | 0.8,0.1322915"
       not_jump="false"
       sort_points="true"
       interpolator_type="CentripetalCatmullRom"
       interpolator_beta="0.2"
       start_linecap_type="zerowidth"
       linejoin_type="round"
       miter_limit="4"
       scale_width="1"
       end_linecap_type="zerowidth" />
    <inkscape:path-effect
       effect="powerstroke"
       id="path-effect101705"
       is_visible="true"
       lpeversion="1"
       offset_points="0.2,0.1322915 | 0.5,0.1322915 | 0.8,0.1322915"
       not_jump="false"
       sort_points="true"
       interpolator_type="CentripetalCatmullRom"
       interpolator_beta="0.2"
       start_linecap_type="zerowidth"
       linejoin_type="round"
       miter_limit="4"
       scale_width="1"
       end_linecap_type="zerowidth" />
    <inkscape:path-effect
       effect="powerstroke"
       id="path-effect101665"
       is_visible="true"
       lpeversion="1"
       offset_points="0.2,0.1322915 | 0.5,0.1322915 | 0.8,0.1322915"
       not_jump="false"
       sort_points="true"
       interpolator_type="CentripetalCatmullRom"
       interpolator_beta="0.2"
       start_linecap_type="zerowidth"
       linejoin_type="round"
       miter_limit="4"
       scale_width="1"
       end_linecap_type="zerowidth" />
    <inkscape:path-effect
       effect="powerstroke"
       id="path-effect101663"
       is_visible="true"
       lpeversion="1"
       offset_points="0.2,0.1322915 | 0.5,0.1322915 | 0.8,0.1322915"
       not_jump="false"
       sort_points="true"
       interpolator_type="CentripetalCatmullRom"
       interpolator_beta="0.2"
       start_linecap_type="zerowidth"
       linejoin_type="round"
       miter_limit="4"
       scale_width="1"
       end_linecap_type="zerowidth" />
    <inkscape:path-effect
       effect="powerstroke"
       id="path-effect101623"
       is_visible="true"
       lpeversion="1"
       offset_points="0.2,0.1322915 | 0.5,0.1322915 | 0.8,0.1322915"
       not_jump="false"
       sort_points="true"
       interpolator_type="CentripetalCatmullRom"
       interpolator_beta="0.2"
       start_linecap_type="zerowidth"
       linejoin_type="round"
       miter_limit="4"
       scale_width="1"
       end_linecap_type="zerowidth" />
    <inkscape:path-effect
       effect="powerstroke"
       id="path-effect101621"
       is_visible="true"
       lpeversion="1"
       offset_points="0.2,0.1322915 | 0.5,0.1322915 | 0.8,0.1322915"
       not_jump="false"
       sort_points="true"
       interpolator_type="CentripetalCatmullRom"
       interpolator_beta="0.2"
       start_linecap_type="zerowidth"
       linejoin_type="round"
       miter_limit="4"
       scale_width="1"
       end_linecap_type="zerowidth" />
    <inkscape:path-effect
       effect="powerstroke"
       id="path-effect101619"
       is_visible="true"
       lpeversion="1"
       offset_points="0.2,0.1322915 | 0.5,0.1322915 | 0.8,0.1322915"
       not_jump="false"
       sort_points="true"
       interpolator_type="CentripetalCatmullRom"
       interpolator_beta="0.2"
       start_linecap_type="zerowidth"
       linejoin_type="round"
       miter_limit="4"
       scale_width="1"
       end_linecap_type="zerowidth" />
    <inkscape:path-effect
       effect="powerstroke"
       id="path-effect101579"
       is_visible="true"
       lpeversion="1"
       offset_points="0.2,0.1322915 | 0.5,0.1322915 | 0.8,0.1322915"
       not_jump="false"
       sort_points="true"
       interpolator_type="CentripetalCatmullRom"
       interpolator_beta="0.2"
       start_linecap_type="zerowidth"
       linejoin_type="round"
       miter_limit="4"
       scale_width="1"
       end_linecap_type="zerowidth" />
    <inkscape:path-effect
       effect="powerstroke"
       id="path-effect101539"
       is_visible="true"
       lpeversion="1"
       offset_points="0.2,0.16975314 | 0.5,0.16975314 | 0.8,0.16975314"
       not_jump="false"
       sort_points="true"
       interpolator_type="CentripetalCatmullRom"
       interpolator_beta="0.2"
       start_linecap_type="zerowidth"
       linejoin_type="round"
       miter_limit="4"
       scale_width="1"
       end_linecap_type="zerowidth" />
    <inkscape:path-effect
       effect="powerstroke"
       id="path-effect101537"
       is_visible="true"
       lpeversion="1"
       offset_points="0.2,0.15371681 | 0.5,0.15371681 | 0.8,0.15371681"
       not_jump="false"
       sort_points="true"
       interpolator_type="CentripetalCatmullRom"
       interpolator_beta="0.2"
       start_linecap_type="zerowidth"
       linejoin_type="round"
       miter_limit="4"
       scale_width="1"
       end_linecap_type="zerowidth" />
    <inkscape:path-effect
       effect="powerstroke"
       id="path-effect101497"
       is_visible="true"
       lpeversion="1"
       offset_points="0.2,0.1322915 | 1,0.1322915 | 1.8,0.1322915"
       not_jump="false"
       sort_points="true"
       interpolator_type="CentripetalCatmullRom"
       interpolator_beta="0.2"
       start_linecap_type="zerowidth"
       linejoin_type="round"
       miter_limit="4"
       scale_width="1"
       end_linecap_type="zerowidth" />
    <inkscape:path-effect
       effect="powerstroke"
       id="path-effect101457"
       is_visible="true"
       lpeversion="1"
       offset_points="0.2,0.1322915 | 0.5,0.1322915 | 0.8,0.1322915"
       not_jump="false"
       sort_points="true"
       interpolator_type="CentripetalCatmullRom"
       interpolator_beta="0.2"
       start_linecap_type="zerowidth"
       linejoin_type="round"
       miter_limit="4"
       scale_width="1"
       end_linecap_type="zerowidth" />
    <inkscape:path-effect
       effect="powerstroke"
       id="path-effect101417"
       is_visible="true"
       lpeversion="1"
       offset_points="0.2,0.1322915 | 0.5,0.1322915 | 0.8,0.1322915"
       not_jump="false"
       sort_points="true"
       interpolator_type="CentripetalCatmullRom"
       interpolator_beta="0.2"
       start_linecap_type="zerowidth"
       linejoin_type="round"
       miter_limit="4"
       scale_width="1"
       end_linecap_type="zerowidth" />
    <inkscape:path-effect
       effect="powerstroke"
       id="path-effect101377"
       is_visible="true"
       lpeversion="1"
       offset_points="0.2,0.1651461 | 0.5,0.1651461 | 0.8,0.1651461"
       not_jump="false"
       sort_points="true"
       interpolator_type="CentripetalCatmullRom"
       interpolator_beta="0.2"
       start_linecap_type="zerowidth"
       linejoin_type="round"
       miter_limit="4"
       scale_width="1"
       end_linecap_type="zerowidth" />
    <inkscape:path-effect
       effect="powerstroke"
       id="path-effect101337"
       is_visible="true"
       lpeversion="1"
       offset_points="0.2,0.1322915 | 0.5,0.1322915 | 0.8,0.1322915"
       not_jump="false"
       sort_points="true"
       interpolator_type="CentripetalCatmullRom"
       interpolator_beta="0.2"
       start_linecap_type="zerowidth"
       linejoin_type="round"
       miter_limit="4"
       scale_width="1"
       end_linecap_type="zerowidth" />
    <inkscape:path-effect
       effect="powerstroke"
       id="path-effect101259"
       is_visible="true"
       lpeversion="1"
       offset_points="0.2,0.14669637 | 1,0.14669637 | 1.8,0.14669637"
       not_jump="false"
       sort_points="true"
       interpolator_type="CentripetalCatmullRom"
       interpolator_beta="0.2"
       start_linecap_type="zerowidth"
       linejoin_type="round"
       miter_limit="4"
       scale_width="1"
       end_linecap_type="zerowidth" />
    <inkscape:path-effect
       effect="powerstroke"
       id="path-effect101219"
       is_visible="true"
       lpeversion="1"
       offset_points="0.2,0.1322915 | 0.5,0.1322915 | 0.8,0.1322915"
       not_jump="false"
       sort_points="true"
       interpolator_type="CentripetalCatmullRom"
       interpolator_beta="0.2"
       start_linecap_type="zerowidth"
       linejoin_type="round"
       miter_limit="4"
       scale_width="1"
       end_linecap_type="zerowidth" />
    <inkscape:path-effect
       effect="powerstroke"
       id="path-effect101217"
       is_visible="true"
       lpeversion="1"
       offset_points="0.2,0.15024829 | 0.5,0.15024829 | 0.8,0.15024829"
       not_jump="false"
       sort_points="true"
       interpolator_type="CentripetalCatmullRom"
       interpolator_beta="0.2"
       start_linecap_type="zerowidth"
       linejoin_type="round"
       miter_limit="4"
       scale_width="1"
       end_linecap_type="zerowidth" />
    <inkscape:path-effect
       effect="powerstroke"
       id="path-effect101215"
       is_visible="true"
       lpeversion="1"
       offset_points="0.2,0.1322915 | 0.5,0.1322915 | 0.8,0.1322915"
       not_jump="false"
       sort_points="true"
       interpolator_type="CentripetalCatmullRom"
       interpolator_beta="0.2"
       start_linecap_type="zerowidth"
       linejoin_type="round"
       miter_limit="4"
       scale_width="1"
       end_linecap_type="zerowidth" />
    <inkscape:path-effect
       effect="powerstroke"
       id="path-effect101175"
       is_visible="true"
       lpeversion="1"
       offset_points="0.2,0.1322915 | 0.5,0.1322915 | 0.8,0.1322915"
       not_jump="false"
       sort_points="true"
       interpolator_type="CentripetalCatmullRom"
       interpolator_beta="0.2"
       start_linecap_type="zerowidth"
       linejoin_type="round"
       miter_limit="4"
       scale_width="1"
       end_linecap_type="zerowidth" />
    <inkscape:path-effect
       effect="powerstroke"
       id="path-effect101135"
       is_visible="true"
       lpeversion="1"
       offset_points="0.2,0.1322915 | 0.5,0.1322915 | 0.8,0.1322915"
       not_jump="false"
       sort_points="true"
       interpolator_type="CentripetalCatmullRom"
       interpolator_beta="0.2"
       start_linecap_type="zerowidth"
       linejoin_type="round"
       miter_limit="4"
       scale_width="1"
       end_linecap_type="zerowidth" />
    <inkscape:path-effect
       effect="powerstroke"
       id="path-effect101095"
       is_visible="true"
       lpeversion="1"
       offset_points="0.2,0.1322915 | 0.5,0.1322915 | 0.8,0.1322915"
       not_jump="false"
       sort_points="true"
       interpolator_type="CentripetalCatmullRom"
       interpolator_beta="0.2"
       start_linecap_type="zerowidth"
       linejoin_type="round"
       miter_limit="4"
       scale_width="1"
       end_linecap_type="zerowidth" />
    <inkscape:path-effect
       effect="powerstroke"
       id="path-effect101093"
       is_visible="true"
       lpeversion="1"
       offset_points="0.2,0.1484526 | 0.5,0.1484526 | 0.8,0.1484526"
       not_jump="false"
       sort_points="true"
       interpolator_type="CentripetalCatmullRom"
       interpolator_beta="0.2"
       start_linecap_type="zerowidth"
       linejoin_type="round"
       miter_limit="4"
       scale_width="1"
       end_linecap_type="zerowidth" />
    <inkscape:path-effect
       effect="powerstroke"
       id="path-effect101015"
       is_visible="true"
       lpeversion="1"
       offset_points="0.2,0.1322915 | 0.5,0.1322915 | 0.8,0.1322915"
       not_jump="false"
       sort_points="true"
       interpolator_type="CentripetalCatmullRom"
       interpolator_beta="0.2"
       start_linecap_type="zerowidth"
       linejoin_type="round"
       miter_limit="4"
       scale_width="1"
       end_linecap_type="zerowidth" />
    <inkscape:path-effect
       effect="powerstroke"
       id="path-effect100937"
       is_visible="true"
       lpeversion="1"
       offset_points="0.2,0.1322915 | 0.5,0.1322915 | 0.8,0.1322915"
       not_jump="false"
       sort_points="true"
       interpolator_type="CentripetalCatmullRom"
       interpolator_beta="0.2"
       start_linecap_type="zerowidth"
       linejoin_type="round"
       miter_limit="4"
       scale_width="1"
       end_linecap_type="zerowidth" />
    <inkscape:path-effect
       effect="powerstroke"
       id="path-effect100897"
       is_visible="true"
       lpeversion="1"
       offset_points="0.2,0.1322915 | 0.5,0.1322915 | 0.8,0.1322915"
       not_jump="false"
       sort_points="true"
       interpolator_type="CentripetalCatmullRom"
       interpolator_beta="0.2"
       start_linecap_type="zerowidth"
       linejoin_type="round"
       miter_limit="4"
       scale_width="1"
       end_linecap_type="zerowidth" />
    <inkscape:path-effect
       effect="powerstroke"
       id="path-effect100857"
       is_visible="true"
       lpeversion="1"
       offset_points="0.2,0.1322915 | 0.5,0.1322915 | 0.8,0.1322915"
       not_jump="false"
       sort_points="true"
       interpolator_type="CentripetalCatmullRom"
       interpolator_beta="0.2"
       start_linecap_type="zerowidth"
       linejoin_type="round"
       miter_limit="4"
       scale_width="1"
       end_linecap_type="zerowidth" />
    <inkscape:path-effect
       effect="powerstroke"
       id="path-effect100817"
       is_visible="true"
       lpeversion="1"
       offset_points="0.2,0.1322915 | 0.5,0.1322915 | 0.8,0.1322915"
       not_jump="false"
       sort_points="true"
       interpolator_type="CentripetalCatmullRom"
       interpolator_beta="0.2"
       start_linecap_type="zerowidth"
       linejoin_type="round"
       miter_limit="4"
       scale_width="1"
       end_linecap_type="zerowidth" />
    <inkscape:path-effect
       effect="powerstroke"
       id="path-effect100777"
       is_visible="true"
       lpeversion="1"
       offset_points="0.2,0.1322915 | 0.5,0.1322915 | 0.8,0.1322915"
       not_jump="false"
       sort_points="true"
       interpolator_type="CentripetalCatmullRom"
       interpolator_beta="0.2"
       start_linecap_type="zerowidth"
       linejoin_type="round"
       miter_limit="4"
       scale_width="1"
       end_linecap_type="zerowidth" />
    <inkscape:path-effect
       effect="powerstroke"
       id="path-effect100699"
       is_visible="true"
       lpeversion="1"
       offset_points="0.2,0.1322915 | 1,0.1322915 | 1.8,0.1322915"
       not_jump="false"
       sort_points="true"
       interpolator_type="CentripetalCatmullRom"
       interpolator_beta="0.2"
       start_linecap_type="zerowidth"
       linejoin_type="round"
       miter_limit="4"
       scale_width="1"
       end_linecap_type="zerowidth" />
    <inkscape:path-effect
       effect="powerstroke"
       id="path-effect100621"
       is_visible="true"
       lpeversion="1"
       offset_points="0.2,0.19305898 | 0.5,0.19305898 | 0.8,0.19305898"
       not_jump="false"
       sort_points="true"
       interpolator_type="CentripetalCatmullRom"
       interpolator_beta="0.2"
       start_linecap_type="zerowidth"
       linejoin_type="round"
       miter_limit="4"
       scale_width="1"
       end_linecap_type="zerowidth" />
    <inkscape:path-effect
       effect="powerstroke"
       id="path-effect100619"
       is_visible="true"
       lpeversion="1"
       offset_points="0.2,0.15394962 | 0.5,0.15394962 | 0.8,0.15394962"
       not_jump="false"
       sort_points="true"
       interpolator_type="CentripetalCatmullRom"
       interpolator_beta="0.2"
       start_linecap_type="zerowidth"
       linejoin_type="round"
       miter_limit="4"
       scale_width="1"
       end_linecap_type="zerowidth" />
    <inkscape:path-effect
       effect="powerstroke"
       id="path-effect100579"
       is_visible="true"
       lpeversion="1"
       offset_points="0.2,0.1322915 | 0.5,0.1322915 | 0.8,0.1322915"
       not_jump="false"
       sort_points="true"
       interpolator_type="CentripetalCatmullRom"
       interpolator_beta="0.2"
       start_linecap_type="zerowidth"
       linejoin_type="round"
       miter_limit="4"
       scale_width="1"
       end_linecap_type="zerowidth" />
    <inkscape:path-effect
       effect="powerstroke"
       id="path-effect97388"
       is_visible="true"
       lpeversion="1"
       offset_points="0.2,0.13917249 | 8.0520114,0.12928308 | 14.8,0.13917249"
       not_jump="false"
       sort_points="true"
       interpolator_type="CentripetalCatmullRom"
       interpolator_beta="0.2"
       start_linecap_type="round"
       linejoin_type="round"
       miter_limit="4"
       scale_width="1"
       end_linecap_type="round" />
    <inkscape:path-effect
       effect="powerstroke"
       id="path-effect97386"
       is_visible="true"
       lpeversion="1"
       offset_points="0.2,0.147447 | 22,0.147447 | 43.8,0.147447"
       not_jump="false"
       sort_points="true"
       interpolator_type="CentripetalCatmullRom"
       interpolator_beta="0.2"
       start_linecap_type="round"
       linejoin_type="round"
       miter_limit="4"
       scale_width="1"
       end_linecap_type="round" />
    <inkscape:path-effect
       effect="powerstroke"
       id="path-effect97304"
       is_visible="true"
       lpeversion="1"
       offset_points="0.17995533,0.18069443 | 12,0.13977394 | 23.570266,0.12894041"
       not_jump="false"
       sort_points="true"
       interpolator_type="CentripetalCatmullRom"
       interpolator_beta="0.2991453"
       start_linecap_type="round"
       linejoin_type="round"
       miter_limit="4"
       scale_width="1"
       end_linecap_type="round" />
    <inkscape:path-effect
       effect="fillet_chamfer"
       id="path-effect97302"
       is_visible="true"
       lpeversion="1"
       satellites_param="F,0,0,1,0,0,0,1 @ F,0,0,1,0,0,0,1 @ F,0,0,1,0,0,0,1 @ F,0,0,1,0,0,0,1 @ F,0,0,1,0,0,0,1 @ F,0,0,1,0,0,0,1 @ F,0,0,1,0,0,0,1 @ F,0,0,1,0,0,0,1 @ F,0,0,1,0,0,0,1 @ F,0,0,1,0,0,0,1 @ F,0,0,1,0,0,0,1 @ F,0,0,1,0,0,0,1 @ F,0,0,1,0,0,0,1 @ F,0,0,1,0,0,0,1 @ F,0,0,1,0,0,0,1 @ F,0,0,1,0,0,0,1 @ F,0,0,1,0,0,0,1 @ F,0,0,1,0,0,0,1 @ F,0,0,1,0,0,0,1 @ F,0,0,1,0,0,0,1 @ F,0,0,1,0,0,0,1 @ F,0,0,1,0,0,0,1 @ F,0,0,1,0,0,0,1 @ F,0,0,1,0,0,0,1 @ F,0,0,1,0,0,0,1"
       unit="px"
       method="auto"
       mode="F"
       radius="0"
       chamfer_steps="1"
       flexible="false"
       use_knot_distance="true"
       apply_no_radius="true"
       apply_with_radius="true"
       only_selected="false"
       hide_knots="false" />
    <inkscape:path-effect
       effect="fill_between_strokes"
       id="path-effect97300"
       is_visible="true"
       lpeversion="1"
       linkedpath=""
       secondpath=""
       reversesecond="false"
       join="true"
       close="true" />
    <inkscape:path-effect
       effect="fill_between_strokes"
       id="path-effect97298"
       is_visible="true"
       lpeversion="1"
       linkedpath=""
       secondpath=""
       reversesecond="false"
       join="true"
       close="true" />
    <inkscape:path-effect
       effect="fill_between_strokes"
       id="path-effect97296"
       is_visible="true"
       lpeversion="1"
       linkedpath=""
       secondpath=""
       reversesecond="false"
       join="true"
       close="true" />
    <inkscape:path-effect
       effect="bspline"
       id="path-effect92922"
       is_visible="true"
       lpeversion="1"
       weight="33.333333"
       steps="2"
       helper_size="0"
       apply_no_weight="true"
       apply_with_weight="true"
       only_selected="false" />
    <inkscape:path-effect
       effect="bspline"
       id="path-effect92902"
       is_visible="true"
       lpeversion="1"
       weight="33.333333"
       steps="2"
       helper_size="0"
       apply_no_weight="true"
       apply_with_weight="true"
       only_selected="false" />
    <inkscape:path-effect
       effect="bspline"
       id="path-effect92898"
       is_visible="true"
       lpeversion="1"
       weight="33.333333"
       steps="2"
       helper_size="0"
       apply_no_weight="true"
       apply_with_weight="true"
       only_selected="false" />
    <inkscape:path-effect
       effect="bspline"
       id="path-effect92453"
       is_visible="true"
       lpeversion="1"
       weight="33.333333"
       steps="2"
       helper_size="0"
       apply_no_weight="true"
       apply_with_weight="true"
       only_selected="false" />
    <inkscape:path-effect
       effect="bspline"
       id="path-effect92449"
       is_visible="true"
       lpeversion="1"
       weight="33.333333"
       steps="2"
       helper_size="0"
       apply_no_weight="true"
       apply_with_weight="true"
       only_selected="false" />
    <inkscape:path-effect
       effect="bspline"
       id="path-effect92445"
       is_visible="true"
       lpeversion="1"
       weight="33.333333"
       steps="2"
       helper_size="0"
       apply_no_weight="true"
       apply_with_weight="true"
       only_selected="false" />
    <inkscape:path-effect
       effect="bspline"
       id="path-effect92441"
       is_visible="true"
       lpeversion="1"
       weight="33.333333"
       steps="2"
       helper_size="0"
       apply_no_weight="true"
       apply_with_weight="true"
       only_selected="false" />
    <inkscape:path-effect
       effect="bspline"
       id="path-effect92437"
       is_visible="true"
       lpeversion="1"
       weight="33.333333"
       steps="2"
       helper_size="0"
       apply_no_weight="true"
       apply_with_weight="true"
       only_selected="false" />
    <inkscape:path-effect
       effect="bspline"
       id="path-effect92433"
       is_visible="true"
       lpeversion="1"
       weight="33.333333"
       steps="2"
       helper_size="0"
       apply_no_weight="true"
       apply_with_weight="true"
       only_selected="false" />
    <inkscape:path-effect
       effect="bspline"
       id="path-effect92429"
       is_visible="true"
       lpeversion="1"
       weight="33.333333"
       steps="2"
       helper_size="0"
       apply_no_weight="true"
       apply_with_weight="true"
       only_selected="false" />
    <inkscape:path-effect
       effect="bspline"
       id="path-effect92425"
       is_visible="true"
       lpeversion="1"
       weight="33.333333"
       steps="2"
       helper_size="0"
       apply_no_weight="true"
       apply_with_weight="true"
       only_selected="false" />
    <inkscape:path-effect
       effect="bspline"
       id="path-effect92421"
       is_visible="true"
       lpeversion="1"
       weight="33.333333"
       steps="2"
       helper_size="0"
       apply_no_weight="true"
       apply_with_weight="true"
       only_selected="false" />
    <inkscape:path-effect
       effect="spiro"
       id="path-effect92417"
       is_visible="true"
       lpeversion="1" />
  </defs>
  <g
     inkscape:label="Layer 1"
     inkscape:groupmode="layer"
     id="layer1">
    <path
       style="opacity:1;fill:none;stroke:#000000;stroke-width:0.3;stroke-miterlimit:4;stroke-dasharray:none"
       id="path31"
       sodipodi:type="arc"
       sodipodi:cx="6.3886456"
       sodipodi:cy="6.0562749"
       sodipodi:rx="4.340631"
       sodipodi:ry="4.2560873"
       sodipodi:start="6.1637976"
       sodipodi:end="6.1636202"
       sodipodi:arc-type="arc"
       d="M 10.698379,5.5493566 A 4.340631,4.2560873 0 0 1 6.9058246,10.282044 4.340631,4.2560873 0 0 1 2.0789582,6.563568 4.340631,4.2560873 0 0 1 5.8710844,1.830551 4.340631,4.2560873 0 0 1 10.698287,5.548607"
       sodipodi:open="true"
       inkscape:export-filename="/home/chenweiz/dev/pypolo/logo.png"
       inkscape:export-xdpi="1357.38"
       inkscape:export-ydpi="1357.38" />
    <path
       style="opacity:1;fill:#999999;fill-rule:nonzero;stroke:none;stroke-width:0.279548px;stroke-linecap:butt;stroke-linejoin:miter;stroke-opacity:1"
       d="m 2.544759,7.1805884 c 0.088317,-0.02963 0.029712,-0.00993 0.1180296,-0.039555 0.034426,-0.011609 0.1246892,-0.042155 0.1985727,-0.066681 0.077705,-0.025795 0.1738047,-0.057164 0.2467564,-0.078367 0.058152,-0.016902 0.098892,-0.026574 0.1317562,-0.033419 0.01555,-0.00324 0.026211,-0.00523 0.041342,-0.00821 0.012381,-0.00243 0.028612,-0.00568 0.045296,-0.010045 0.016588,-0.00434 0.031389,-0.0092 0.045585,-0.014202 0.013549,-0.00477 0.026492,-0.00963 0.042037,-0.015211 0.02832,-0.01017 0.069759,-0.024427 0.1390063,-0.044208 0.066815,-0.019086 0.1613727,-0.043856 0.2626151,-0.068966 0.096247,-0.023871 0.196387,-0.047504 0.2750723,-0.064667 0.075405,-0.016446 0.1298031,-0.026679 0.175764,-0.034769 0.041271,-0.00726 0.086473,-0.014552 0.1277279,-0.02252 0.04347,-0.0084 0.084878,-0.01775 0.1298489,-0.025494 0.043864,-0.00755 0.092314,-0.013862 0.1487412,-0.016159 0.056534,-0.0023 0.1229941,-7.341e-4 0.1980308,0.00548 0.074367,0.00616 0.1561956,0.016816 0.2437712,0.032393 0.087428,0.015551 0.178843,0.035655 0.2680774,0.058738 0.089393,0.023124 0.1755225,0.048959 0.2524606,0.07575 0.077025,0.026821 0.1448334,0.054646 0.2064338,0.080978 0.060561,0.025888 0.120281,0.052639 0.1731325,0.073496 0.055395,0.02186 0.1045753,0.037937 0.1481451,0.0509 0.042245,0.012568 0.084864,0.023772 0.1153589,0.032275 0.067708,0.01888 0.1235482,0.03723 0.1897962,0.062776 0.035192,0.013571 0.079445,0.031602 0.114637,0.045173 0.041852,0.016202 0.084602,0.031831 0.1254878,0.043783 0.041666,0.012179 0.07928,0.019977 0.1145254,0.026353 0.033286,0.00602 0.063033,0.01059 0.090916,0.016164 0.055794,0.011157 0.1139091,0.027756 0.1872051,0.048335 0.033891,0.00952 0.072556,0.02032 0.1185538,0.030305 0.04568,0.00992 0.098103,0.018947 0.1631745,0.026226 0.063783,0.00713 0.1393288,0.012635 0.2233074,0.015529 0.083432,0.00288 0.1757171,0.0032 0.2734961,-1.057e-4 0.1962169,-0.00662 0.4095396,-0.027701 0.6744698,-0.083277 0.13227,-0.027747 0.2760275,-0.06383 0.4101546,-0.1002443 0.1355258,-0.036794 0.2625884,-0.074297 0.3609543,-0.1048789 0.099821,-0.031035 0.1722465,-0.055593 0.2352999,-0.079653 0.064433,-0.024586 0.1178732,-0.048212 0.1771593,-0.075831 0.057754,-0.026905 0.132643,-0.06314 0.190397,-0.090046 0.066375,-0.031009 0.1261501,-0.057675 0.1743731,-0.075939 0.04831,-0.018298 0.08617,-0.028601 0.115075,-0.035419 0.01537,-0.00363 0.02889,-0.00642 0.04193,-0.00916 0.01241,-0.0026 0.02734,-0.00572 0.04108,-0.0095 0.0154,-0.00423 0.02891,-0.00913 0.04107,-0.014495 0.01258,-0.00555 0.02256,-0.011114 0.0299,-0.015473 0.0075,-0.00444 0.01145,-0.007 0.01182,-0.00725 3.82e-4,-2.636e-4 -0.0033,0.00177 -0.008,0.00339 -0.0057,0.00197 -0.0076,0.00145 0.0038,9.64e-5 0.0045,-5.359e-4 0.01027,-0.0011 0.01681,-0.00184 0.0069,-7.77e-4 0.01594,-0.00189 0.02542,-0.00373 0.02561,-0.00497 0.04444,-0.013163 0.05746,-0.020141 0.0025,-0.00132 0.0047,-0.00257 0.0066,-0.00373 0.02167,-0.012736 0.02357,-0.015928 0.02541,-0.01734 A 0.12894041,0.12894041 90 0 0 10.353894,6.4134614 c -0.0018,0.00141 -0.005,0.00322 0.0017,-7.967e-4 0.0063,-0.00348 0.01428,-0.00637 0.01718,-0.00701 0.001,-2.208e-4 -7.6e-5,-1.51e-5 -0.0048,4.538e-4 -0.0039,3.876e-4 -0.0097,8.908e-4 -0.01738,0.0017 -0.01002,0.00106 -0.0364,0.00375 -0.06241,0.012943 -0.01444,0.0051 -0.02591,0.011079 -0.0343,0.015854 -0.0078,0.00442 -0.01202,0.00714 -0.0141,0.00831 -0.0028,0.00134 -0.0046,0.00201 -0.0077,0.00283 -0.0047,0.00123 -0.01109,0.00259 -0.02537,0.00548 -0.01237,0.00251 -0.02925,0.00589 -0.0485,0.010323 -0.03768,0.00868 -0.08695,0.021932 -0.148019,0.044824 -0.058085,0.021772 -0.1253787,0.051767 -0.1927888,0.083022 -0.068676,0.031842 -0.1216832,0.057469 -0.1903594,0.089311 -0.056104,0.025899 -0.1034789,0.046529 -0.1601146,0.067896 -0.056096,0.021163 -0.1229151,0.043678 -0.2199548,0.073578 -0.095634,0.029467 -0.2197275,0.065819 -0.3520217,0.1014488 -0.1312407,0.035346 -0.2697304,0.069755 -0.3952903,0.095795 -0.2488798,0.051615 -0.4468506,0.070405 -0.6287841,0.075875 -0.0916,0.00275 -0.1777455,0.00209 -0.2550933,-9.369e-4 C 7.5377556,7.091306 7.4692822,7.085871 7.4134491,7.0792427 7.3575181,7.0726022 7.3144219,7.0646852 7.2781908,7.0564176 7.2411938,7.0479753 7.2096861,7.0387921 7.176297,7.0289257 7.1071351,7.0084885 7.0382907,6.9875494 6.9705467,6.9726883 6.9346593,6.9648168 6.9033771,6.9594395 6.8747376,6.9536541 6.844691,6.9475844 6.8175709,6.941222 6.7888995,6.9322079 6.7597429,6.9230384 6.7260284,6.9101736 6.687011,6.8941722 6.6508022,6.8793227 6.6121388,6.862586 6.5737322,6.8467322 6.5001928,6.8163777 6.4363042,6.793165 6.3604271,6.7696852 6.3243621,6.758526 6.2883873,6.7481106 6.2498861,6.7356071 6.2123628,6.723421 6.1716779,6.709031 6.1262746,6.6900294 6.0783818,6.6699841 6.02983,6.6469587 5.9619159,6.6166021 5.8977004,6.5878987 5.8231349,6.5559114 5.7370721,6.5246385 5.6516142,6.4935851 5.5576994,6.4642035 5.4615686,6.4380646 5.3655288,6.4119505 5.266662,6.3889063 5.1711663,6.37064 5.0752824,6.3522997 4.984104,6.3390526 4.8994473,6.3307275 4.8142954,6.3223538 4.7349764,6.3188834 4.6634696,6.3203931 c -0.072986,0.00154 -0.1354022,0.00831 -0.1894733,0.016215 -0.054755,0.00801 -0.1001331,0.016919 -0.1368577,0.022838 -0.037479,0.00604 -0.074622,0.010657 -0.1231258,0.017866 -0.050575,0.00752 -0.110254,0.017406 -0.1914887,0.033778 -0.08325,0.016778 -0.1873796,0.040026 -0.2857815,0.063118 -0.1034228,0.02427 -0.2023224,0.048778 -0.2742122,0.067959 -0.076684,0.02046 -0.1248877,0.035466 -0.1583978,0.046087 -0.018294,0.0058 -0.02988,0.00954 -0.039972,0.012485 -0.00991,0.00289 -0.015247,0.00408 -0.0196,0.00481 -0.0055,9.092e-4 -0.010516,0.00166 -0.022995,0.00347 -0.011965,0.00173 -0.027729,0.00401 -0.046381,0.00718 -0.044156,0.00751 -0.095646,0.018555 -0.1632544,0.036931 -0.081388,0.02212 -0.1841331,0.054378 -0.2620562,0.079342 -0.080565,0.025811 -0.1622927,0.05277 -0.20169,0.065833 -0.063546,0.021071 -0.1049553,0.035168 -0.1183715,0.039669 A 0.18069443,0.18069443 90 0 0 2.544759,7.1805884 Z"
       id="path92896"
       inkscape:path-effect="#path-effect92898;#path-effect97304"
       inkscape:original-d="m 2.4872859,7.0092778 c 0.2204596,-0.073609 0.4377259,-0.1464996 0.6592204,-0.2211623 0.048645,-0.00119 0.096584,-0.00264 0.1438186,-0.00434 0.03824,-0.017984 0.075489,-0.036887 0.1117471,-0.056709 0.2486226,-0.058871 0.4962552,-0.1186621 0.7428975,-0.1793719 0.070417,-0.00585 0.1398441,-0.012619 0.2082809,-0.020306 0.093752,-0.021148 0.1865139,-0.043216 0.2782855,-0.066203 0.1653181,0.014487 0.3283762,0.028538 0.4930336,0.042485 0.2013268,0.053663 0.3988817,0.1061303 0.6010746,0.1596349 0.1231254,0.062302 0.2447117,0.1236967 0.3647604,0.1841836 0.080117,0.021226 0.1592433,0.041531 0.2373796,0.060918 0.060977,0.021533 0.1209634,0.042148 0.1799599,0.061842 0.085,0.037763 0.1690094,0.074606 0.2520288,0.1105312 0.060347,0.00763 0.1197051,0.014365 0.1780723,0.020169 0.066645,0.020351 0.1323007,0.039783 0.1969657,0.058294 0.07189,0.02084 0.1427887,0.040761 0.2126977,0.059762 0.1707776,0.00833 0.3387224,0.016271 0.5087069,0.024058 0.207859,-0.019831 0.4135305,-0.039741 0.620295,-0.060047 C 8.7839149,7.0960973 9.0906632,7.009025 9.3967549,6.9217993 9.4818469,6.8888753 9.5659485,6.8550303 9.64906,6.820267 9.7995641,6.746729 9.9490781,6.672272 10.097601,6.5968957 c 0.0664,-0.00585 0.131815,-0.012617 0.196237,-0.020306 0.01034,-0.012618 0.01967,-0.026156 0.02803,-0.040613 0.02902,9.192e-4 0.05707,9.192e-4 0.08411,0 0.0098,-0.00579 0.01853,-0.012504 0.0263,-0.020136"
       sodipodi:nodetypes="ccccccccccccccccccccccccc"
       inkscape:export-filename="/home/chenweiz/dev/pypolo/logo.png"
       inkscape:export-xdpi="1357.38"
       inkscape:export-ydpi="1357.38" />
    <path
       style="opacity:1;fill:#999999;fill-rule:nonzero;stroke:none;stroke-width:0.278345px;stroke-linecap:butt;stroke-linejoin:miter;stroke-opacity:1"
       d="m 3.3072401,8.6965091 c 0.08285,-0.040197 0.1124729,-0.054523 0.1953227,-0.094719 0.054624,-0.026502 0.1732734,-0.084112 0.2792888,-0.1352216 0.1167417,-0.05628 0.26541,-0.1275251 0.3803058,-0.1803639 0.092841,-0.042696 0.1647654,-0.073995 0.2222592,-0.096022 0.049531,-0.018977 0.085853,-0.030318 0.1278174,-0.041012 0.074587,-0.019005 0.1662627,-0.034574 0.2740261,-0.06041 0.05353,-0.012834 0.1051858,-0.026858 0.1587157,-0.039692 0.058133,-0.013979 0.1291081,-0.029603 0.2238662,-0.04625 0.094348,-0.016575 0.2121154,-0.034237 0.3291523,-0.05132 0.1148193,-0.016759 0.2282919,-0.032863 0.3101095,-0.045874 0.041269,-0.00656 0.074288,-0.012274 0.1020461,-0.016821 0.028063,-0.0046 0.050119,-0.00791 0.071479,-0.010216 0.021082,-0.00228 0.042222,-0.00366 0.067427,-0.00401 0.025734,-3.513e-4 0.056204,3.72e-4 0.095686,0.00248 0.081314,0.00434 0.1926482,0.013857 0.3105828,0.030045 0.1229093,0.016871 0.2467105,0.040116 0.3525417,0.070467 0.1097346,0.031471 0.2027338,0.07097 0.2823286,0.1111042 0.085166,0.042944 0.1598,0.089149 0.2239779,0.1299835 0.00715,0.00455 0.014114,0.009 0.020902,0.013345 0.1198567,0.076793 0.1970912,0.1309126 0.269577,0.1826447 0.06962,0.049687 0.1037875,0.074923 0.1494742,0.1089343 0.04434,0.033009 0.090494,0.067721 0.1498446,0.1054296 0.030182,0.019178 0.061386,0.037728 0.1012937,0.055823 0.040311,0.018278 0.08598,0.034495 0.1436336,0.050962 0.1224452,0.034971 0.2596353,0.059388 0.4145114,0.081914 0.088834,0.01292 0.1744767,0.023674 0.2624814,0.028122 0.1006548,0.00509 0.1947801,0.00131 0.2863732,-0.01324 0.1118859,-0.017773 0.2135836,-0.051436 0.2846545,-0.077539 0.066162,-0.024301 0.1286187,-0.050823 0.1597067,-0.064159 0.044114,-0.018922 0.1005553,-0.044049 0.1025352,-0.044924 A 0.13917249,0.13917249 90 0 0 9.5466312,8.39139 c -0.016851,0.00745 -0.04377,0.019522 -0.1000637,0.043846 -0.030222,0.013059 -0.087511,0.037668 -0.1460805,0.059589 -0.06425,0.024047 -0.14643,0.051328 -0.2323369,0.065622 C 8.9985475,8.5720265 8.92383,8.5760154 8.8387444,8.5723715 8.7634912,8.5691487 8.6876772,8.5604194 8.6015041,8.5485706 8.4496499,8.5276895 8.326362,8.5064716 8.2212468,8.4776694 8.171915,8.4641514 8.1390068,8.4525568 8.1136407,8.4415713 8.0892539,8.4310099 8.0694491,8.4200243 8.0441925,8.4045597 7.9937576,8.3736828 7.9545419,8.3454099 7.9087671,8.3124284 7.8616225,8.2784597 7.825712,8.2528736 7.7547354,8.2029072 7.6795805,8.1499992 7.5992615,8.094112 7.4745175,8.0142635 7.467507,8.0097761 7.46032,8.0051902 7.4529506,8.0005032 7.3871475,7.9586526 7.3037487,7.9067481 7.2068396,7.8577311 7.115612,7.8115879 7.0075309,7.7653838 6.8795866,7.7284338 6.757838,7.6932734 6.6209971,7.6676861 6.491004,7.6495274 6.3655015,7.631996 6.2471278,7.6215159 6.1592343,7.6164484 c -0.043098,-0.00248 -0.079585,-0.00365 -0.1127806,-0.00342 -0.033256,2.358e-4 -0.062535,0.00187 -0.091797,0.0048 -0.028687,0.00287 -0.056444,0.00688 -0.086013,0.011507 -0.029654,0.00464 -0.061756,0.00998 -0.1012263,0.016038 -0.079699,0.012235 -0.1903503,0.027478 -0.3071357,0.044044 -0.117024,0.0166 -0.2379261,0.034202 -0.3368226,0.051059 -0.1007841,0.017179 -0.1772989,0.033454 -0.2399734,0.047977 -0.064574,0.014963 -0.1141212,0.027879 -0.1586713,0.038044 -0.095895,0.02188 -0.1893543,0.036546 -0.2781056,0.057975 -0.051781,0.012504 -0.099434,0.026748 -0.1591696,0.048999 -0.066553,0.02479 -0.1453073,0.058604 -0.2401016,0.1016369 C 3.9294962,8.0886512 3.7786466,8.1603216 3.6616523,8.216302 3.5510975,8.2692012 3.4397898,8.322955 3.3812084,8.3512926 3.325693,8.3781471 3.2412553,8.4192277 3.1857399,8.4460821 a 0.13917249,0.13917249 90 0 0 0.1215002,0.250427 z"
       id="path92900"
       inkscape:path-effect="#path-effect92902;#path-effect97300;#path-effect97388"
       inkscape:original-d="M 3.24649,8.5712956 C 3.5741718,8.4127065 3.9003796,8.2544395 4.2251127,8.0964951 c 0.085391,-0.026043 0.1678357,-0.054715 0.2473334,-0.086015 0.095173,-0.012331 0.187398,-0.027289 0.2766766,-0.044876 0.1035568,-0.027289 0.2041665,-0.057207 0.3018293,-0.089754 0.2894046,-0.034769 0.5758627,-0.072165 0.8593735,-0.112192 0.039893,-0.010123 0.076837,-0.022872 0.1108352,-0.038254 0.2967536,0.030814 0.5907423,0.061107 0.8819662,0.090876 0.1723514,0.1035298 0.3415841,0.2050823 0.5206886,0.3124528 0.098513,0.0692 0.1844456,0.1294945 0.2852047,0.2001128 0.042034,0.030586 0.077306,0.05619 0.1179212,0.085601 0.049558,0.036624 0.092261,0.068123 0.1421893,0.1048809 0.059745,0.03182 0.1073794,0.057091 0.1685011,0.089393 0.1559133,0.028637 0.2812459,0.051483 0.4272454,0.077881 0.1810948,0.019922 0.3510587,0.038398 0.5282151,0.057419 C 9.2645937,8.6685968 9.434528,8.593484 9.6028957,8.5186821"
       sodipodi:nodetypes="cccccccccccccccc"
       inkscape:export-filename="/home/chenweiz/dev/pypolo/logo.png"
       inkscape:export-xdpi="1357.38"
       inkscape:export-ydpi="1357.38" />
    <path
       style="opacity:1;fill:#808080;fill-rule:nonzero;stroke:none;stroke-width:0.294894px;stroke-linecap:butt;stroke-linejoin:miter;stroke-opacity:1"
       d="m 2.8691978,7.7786694 c 1.7e-4,-9.603e-4 0.00143,-0.00448 -0.0016,0.00681 -3.647e-4,0.00136 -8.729e-4,0.00315 -0.00154,0.00525 -0.00225,0.00704 -0.00737,0.020871 -0.01826,0.035567 -0.0081,0.010935 -0.017076,0.019227 -0.025326,0.025079 -0.00639,0.00453 -0.010983,0.00664 -0.01201,0.00709 -4.443e-4,1.948e-4 0.00283,-0.00117 0.00948,-0.00341 0.00645,-0.00217 0.014412,-0.00469 0.026358,-0.0084 0.019083,-0.00593 0.051537,-0.015853 0.089558,-0.028801 0.035232,-0.011998 0.077094,-0.027108 0.1213918,-0.043479 0.04106,-0.015174 0.081115,-0.030282 0.1171536,-0.043877 0.032159,-0.012131 0.060636,-0.022866 0.083571,-0.031777 0.021926,-0.00852 0.041748,-0.016508 0.059831,-0.024578 0.00816,-0.00364 0.016453,-0.00751 0.022077,-0.010095 0.00602,-0.00276 0.011088,-0.00503 0.016458,-0.00725 0.00977,-0.00405 0.023619,-0.00924 0.047578,-0.016217 0.0255,-0.00743 0.059022,-0.016102 0.1039547,-0.027872 0.041848,-0.010962 0.092112,-0.024243 0.1450481,-0.039519 0.051852,-0.014963 0.1054145,-0.031529 0.1566388,-0.047061 0.050333,-0.015262 0.096933,-0.029068 0.1361459,-0.039085 0.038,-0.00971 0.070099,-0.016249 0.099316,-0.021541 0.030521,-0.00553 0.053514,-0.00897 0.084035,-0.014496 0.055159,-0.010103 0.1001409,-0.020921 0.1244949,-0.02434 0.01203,-0.00169 0.023447,-0.00269 0.044772,-0.00369 0.021422,-0.001 0.052697,-0.00196 0.1009416,-0.00385 0.047523,-0.00186 0.1108082,-0.00459 0.1867736,-0.00683 0.075404,-0.00223 0.1637191,-0.004 0.2612766,-0.00393 0.1949265,1.258e-4 0.4269044,0.00727 0.6528641,0.014633 0.1118552,0.00364 0.2201234,0.00726 0.3185778,0.011825 0.098555,0.00457 0.1853952,0.01 0.2551025,0.017101 0.068993,0.00703 0.1220399,0.015581 0.1667474,0.024197 0.045102,0.00869 0.08333,0.017828 0.1246967,0.026493 0.082457,0.017272 0.1562265,0.028504 0.2092704,0.039759 0.027144,0.00576 0.051803,0.011873 0.07434,0.0176 0.020959,0.00533 0.044615,0.011528 0.063618,0.015548 0.020096,0.00425 0.035664,0.00656 0.04908,0.00811 0.012807,0.00148 0.019883,0.00203 0.023072,0.00244 0.00933,0.00122 0.021573,0.00338 0.041379,0.009 0.011182,0.00318 0.026397,0.00782 0.044359,0.013063 0.018298,0.00534 0.03933,0.011251 0.062904,0.017053 0.022027,0.00542 0.04814,0.011264 0.068014,0.015886 0.022373,0.0052 0.040207,0.00961 0.053987,0.013704 0.014636,0.00435 0.026248,0.00852 0.041894,0.013934 0.015246,0.00527 0.03467,0.011837 0.057208,0.017007 0.018006,0.00413 0.041261,0.0081 0.057067,0.011098 0.019731,0.00374 0.044119,0.00873 0.078072,0.017147 0.035393,0.00877 0.080546,0.02091 0.1324072,0.034855 0.048611,0.013071 0.1030899,0.027718 0.1517903,0.039935 0.094549,0.023719 0.1696986,0.039162 0.2212671,0.052273 0.025462,0.00647 0.047521,0.012792 0.068108,0.018743 0.01823,0.00527 0.040065,0.011695 0.058411,0.015913 0.017989,0.00414 0.033008,0.00651 0.038132,0.00742 0.00335,5.926e-4 0.00125,3.169e-4 -0.0025,-6.849e-4 -0.00461,-0.00123 -0.01408,-0.00405 -0.025947,-0.010617 -0.00916,-0.00507 -0.011077,-0.00681 2.254e-4,7.786e-4 0.00539,0.00362 0.01473,0.00955 0.027011,0.015081 0.012764,0.00574 0.027476,0.010509 0.044043,0.013095 0.00662,0.00103 0.012871,0.00166 0.014971,0.00188 0.00337,3.526e-4 0.00334,3.624e-4 0.00297,3.101e-4 -5.388e-4,-7.57e-5 -0.00423,-5.899e-4 -0.00956,-0.00201 -0.00517,-0.00138 -0.014845,-0.00439 -0.026274,-0.010718 -0.00461,-0.00255 -0.00626,-0.00381 -0.00385,-0.00222 0.00215,0.00142 0.00896,0.00596 0.01766,0.010651 0.00926,0.00499 0.019611,0.00963 0.031315,0.013574 0.011395,0.00384 0.022772,0.00659 0.034038,0.00856 0.012473,0.00218 0.030711,0.00466 0.044147,0.00665 0.015686,0.00232 0.033949,0.00522 0.055307,0.00935 0.021828,0.00422 0.050751,0.010447 0.084632,0.016623 0.033869,0.00617 0.07286,0.012284 0.1160195,0.016229 0.083968,0.00767 0.1791673,0.00743 0.301459,0.00558 0.062244,-9.383e-4 0.134612,-0.00234 0.2085877,-0.00567 0.07411,-0.00334 0.1512761,-0.00866 0.2227515,-0.017683 0.1442116,-0.018199 0.2596705,-0.049983 0.3269782,-0.071541 0.034468,-0.011039 0.057291,-0.019597 0.073467,-0.025777 0.00864,-0.0033 0.012448,-0.00478 0.015939,-0.00603 0.00277,-9.9e-4 0.00232,-7.238e-4 3.876e-4,-2.523e-4 -7.29e-4,1.778e-4 0.0039,-6.574e-4 0.015964,-0.00244 0.012455,-0.00185 0.031237,-0.00486 0.053332,-0.011464 0.019346,-0.00578 0.038831,-0.013299 0.05745,-0.021373 0.019215,-0.00833 0.039124,-0.017965 0.059191,-0.028395 0.019099,-0.00993 0.041229,-0.022077 0.056973,-0.030552 0.00873,-0.0047 0.016325,-0.00873 0.022973,-0.012129 0.0069,-0.00353 0.011505,-0.00572 0.014297,-0.00695 0.00641,-0.00283 0.00932,-0.0037 0.011837,-0.00446 1.023e-4,-3.09e-5 0.00761,-0.00224 0.011793,-0.00357 0.00642,-0.00205 0.014439,-0.00484 0.023596,-0.00885 0.00923,-0.00405 0.024137,-0.011446 0.027824,-0.013213 0.00752,-0.0036 0.013561,-0.00628 0.019343,-0.00846 0.00687,-0.00258 0.020122,-0.00689 0.037329,-0.013201 0.018831,-0.00691 0.039981,-0.015496 0.064215,-0.027567 0.022706,-0.01131 0.049234,-0.026195 0.06818,-0.036682 0.0238,-0.013173 0.04115,-0.022539 0.05535,-0.029232 0.01501,-0.00708 0.02803,-0.012042 0.04351,-0.018253 0.01791,-0.00719 0.04005,-0.016392 0.06282,-0.030652 0.02576,-0.016133 0.04571,-0.034306 0.05626,-0.044309 0.0107,-0.010135 0.02015,-0.020052 0.02383,-0.023921 0.0085,-0.00896 0.01093,-0.01162 0.0129,-0.013729 A 0.147447,0.147447 90 0 0 10.096833,7.2576573 c -0.002,0.00211 -0.0048,0.00521 -0.01092,0.011634 -0.0033,0.00347 -0.0083,0.00864 -0.01303,0.013145 -0.0049,0.00463 -0.0099,0.00841 -0.01,0.00844 0.0014,-8.872e-4 -0.0016,0.00106 -0.0161,0.00689 -0.01044,0.00419 -0.03439,0.013383 -0.059452,0.025199 -0.024035,0.01133 -0.049188,0.025107 -0.072418,0.037964 -0.022257,0.012319 -0.041471,0.023068 -0.056855,0.030731 -0.012459,0.00621 -0.023259,0.010628 -0.034259,0.014661 -0.010683,0.00392 -0.022651,0.00767 -0.039601,0.014045 -0.017068,0.00642 -0.031689,0.013132 -0.042976,0.018541 -0.010759,0.00516 -0.018975,0.00915 -0.018772,0.00906 0.00254,-0.00111 0.00523,-0.00202 0.0053,-0.00204 6.64e-5,-2.12e-5 -0.00253,7.385e-4 -0.00752,0.00224 -0.011267,0.0034 -0.025816,0.00823 -0.04557,0.016935 -0.010097,0.00445 -0.020299,0.00947 -0.029628,0.014245 -0.00938,0.0048 -0.019088,0.00996 -0.028471,0.015014 -0.01929,0.010384 -0.036586,0.019921 -0.053203,0.028558 -0.015374,0.00799 -0.028944,0.014488 -0.040505,0.019501 -0.011586,0.00502 -0.019701,0.00792 -0.024594,0.00939 -0.00182,5.446e-4 -0.00421,0.00113 -0.012096,0.00229 -0.00543,8.041e-4 -0.024361,0.00321 -0.042603,0.00766 -0.011638,0.00284 -0.021685,0.00617 -0.029829,0.00908 -0.00738,0.00264 -0.015658,0.00585 -0.021874,0.00822 -0.013159,0.00503 -0.030599,0.011579 -0.058174,0.020411 -0.054704,0.017521 -0.1520253,0.044421 -0.273952,0.059808 -0.060587,0.00765 -0.1291047,0.012511 -0.199087,0.01566 -0.06944,0.00313 -0.1382482,0.00448 -0.199775,0.00541 -0.1238594,0.00187 -0.2040414,0.00165 -0.2701728,-0.00439 -0.031765,-0.0029 -0.061623,-0.0075 -0.089981,-0.012673 -0.028351,-0.00517 -0.055001,-0.010909 -0.081512,-0.016037 -0.027043,-0.00523 -0.049878,-0.00883 -0.068095,-0.011533 -0.020621,-0.00305 -0.029102,-0.00412 -0.036498,-0.00542 0.00133,2.324e-4 0.00465,9.049e-4 0.0093,0.00247 0.00494,0.00167 0.00983,0.00382 0.014353,0.00626 0.00412,0.00222 0.00646,0.00386 0.00496,0.00288 -6.612e-4,-4.365e-4 -0.00764,-0.00517 -0.015781,-0.00968 -0.015677,-0.00868 -0.030155,-0.013448 -0.04043,-0.016195 -0.010445,-0.00279 -0.019562,-0.00428 -0.025561,-0.00512 -0.00585,-8.223e-4 -0.011422,-0.00138 -0.013356,-0.00158 -0.00324,-3.39e-4 -0.00211,-2.57e-4 -1.455e-4,4.95e-5 0.011888,0.00186 0.022498,0.00531 0.031478,0.00935 0.00848,0.00381 0.014325,0.00765 0.016297,0.00897 0.0044,0.00295 -0.00418,-0.0042 -0.021782,-0.01394 -0.016125,-0.00892 -0.030403,-0.013497 -0.040652,-0.016237 -0.00942,-0.00252 -0.018033,-0.00406 -0.022278,-0.00481 -0.01046,-0.00185 -0.015354,-0.00257 -0.023435,-0.00443 -0.0083,-0.00191 -0.020401,-0.0054 -0.042594,-0.011812 -0.021037,-0.00608 -0.046956,-0.013525 -0.07734,-0.02125 -0.06354,-0.016155 -0.1340055,-0.030384 -0.2221745,-0.052502 -0.045833,-0.011498 -0.097821,-0.025467 -0.1469707,-0.038683 -0.050845,-0.013672 -0.099167,-0.026679 -0.1380653,-0.036316 -0.040073,-0.00993 -0.069872,-0.016057 -0.094089,-0.020645 -0.025928,-0.00491 -0.035233,-0.00631 -0.046034,-0.00879 -0.00612,-0.0014 -0.01295,-0.0035 -0.026761,-0.00828 -0.01228,-0.00425 -0.031762,-0.011222 -0.054282,-0.017914 -0.022986,-0.00683 -0.048276,-0.012926 -0.071181,-0.018253 -0.023856,-0.00555 -0.04466,-0.010163 -0.064336,-0.015006 -0.018003,-0.00443 -0.034659,-0.00909 -0.050733,-0.013781 -0.015797,-0.00461 -0.030841,-0.00923 -0.046439,-0.013662 -0.032912,-0.00935 -0.059309,-0.01455 -0.083786,-0.017745 -0.013405,-0.00175 -0.021501,-0.00229 -0.027376,-0.00297 -0.00509,-5.886e-4 -0.011558,-0.00149 -0.021915,-0.00368 -0.011342,-0.0024 -0.026425,-0.00634 -0.052014,-0.012847 -0.023634,-0.00601 -0.052799,-0.013268 -0.085759,-0.020261 -0.066601,-0.014132 -0.1377085,-0.02477 -0.2100211,-0.039917 -0.035793,-0.0075 -0.07722,-0.017382 -0.1293524,-0.027429 -0.052519,-0.010121 -0.114231,-0.020013 -0.1926524,-0.028005 -0.077831,-0.00793 -0.171022,-0.013656 -0.2713506,-0.018304 -0.1007814,-0.00467 -0.2110074,-0.00835 -0.3226262,-0.011985 -0.2251869,-0.00734 -0.4618344,-0.01466 -0.6622741,-0.014789 -0.1012107,-6.53e-5 -0.1925825,0.00177 -0.270178,0.00406 -0.077836,0.0023 -0.1432424,0.00511 -0.1896154,0.00693 -0.047064,0.00185 -0.077478,0.00274 -0.1031678,0.00394 -0.026291,0.00123 -0.047576,0.00281 -0.071994,0.00623 -0.049897,0.00701 -0.092322,0.018187 -0.1366221,0.026301 -0.025987,0.00476 -0.057476,0.00963 -0.083462,0.014392 -0.0344,0.00623 -0.073521,0.014186 -0.1197502,0.025995 -0.046273,0.011821 -0.098534,0.027379 -0.1487276,0.042598 -0.053402,0.016193 -0.1035174,0.031704 -0.1528292,0.045934 -0.049194,0.014196 -0.096466,0.0267 -0.1380125,0.037583 -0.042445,0.011118 -0.081215,0.021132 -0.111719,0.03002 -0.033215,0.00968 -0.057271,0.018331 -0.077944,0.026894 -0.01033,0.00428 -0.019212,0.00829 -0.026587,0.011674 -0.00832,0.00382 -0.012946,0.006 -0.019275,0.00883 -0.011484,0.00513 -0.026043,0.011067 -0.046454,0.018998 -0.021254,0.00826 -0.048117,0.018387 -0.080851,0.030735 -0.036132,0.01363 -0.075301,0.028403 -0.1152945,0.043183 -0.043362,0.016025 -0.082516,0.030137 -0.1142274,0.040936 -0.033469,0.011397 -0.061778,0.020058 -0.081987,0.026336 -0.011867,0.00369 -0.02284,0.00713 -0.032944,0.010528 -0.010952,0.00369 -0.022519,0.00787 -0.033856,0.01284 -0.013713,0.00601 -0.027259,0.013294 -0.040161,0.022447 -0.016026,0.011368 -0.02976,0.024718 -0.041011,0.039905 -0.01515,0.020451 -0.022283,0.039586 -0.025639,0.050072 -0.00101,0.00315 -0.0018,0.00591 -0.00239,0.00813 -0.00491,0.01829 -0.00382,0.017356 -0.00399,0.018316 a 0.147447,0.147447 90 0 0 0.2903798,0.051401 z"
       id="path92920"
       inkscape:path-effect="#path-effect92922;#path-effect97386"
       inkscape:original-d="m 2.7240079,7.7529689 c 0.002,-0.00955 0.00368,-0.019026 0.00503,-0.028416 0.046852,-0.00837 0.090309,-0.019304 0.1303716,-0.032799 0.099971,-0.033883 0.1965462,-0.070328 0.2897276,-0.1093347 0.042161,-0.012051 0.080929,-0.026662 0.1163022,-0.043837 0.023109,-0.0086 0.042824,-0.019766 0.059146,-0.033492 0.095176,-0.019304 0.1869577,-0.04117 0.2753448,-0.065597 0.1144521,-0.033882 0.2255089,-0.070325 0.3331718,-0.1093293 0.061337,-0.00472 0.1192798,-0.012016 0.1738285,-0.021866 0.046851,-0.00836 0.090309,-0.019304 0.1303715,-0.032799 0.032366,0.00256 0.061337,0.00256 0.086914,0 0.1642421,-0.00472 0.3250896,-0.012016 0.4825424,-0.021866 0.2388012,0.00985 0.4742075,0.01714 0.7062199,0.021866 0.2158518,0.00985 0.428309,0.01714 0.6373719,0.021866 0.085479,0.024428 0.1675661,0.046294 0.2462575,0.065597 0.075823,0.013496 0.1482513,0.024428 0.2172858,0.032798 0.050875,0.016531 0.098356,0.030502 0.1424416,0.041911 0.017077,0.00256 0.030757,0.00256 0.041043,0 0.022709,0.0062 0.042023,0.00985 0.057942,0.010935 0.037194,0.013494 0.070993,0.024428 0.1014,0.032798 0.0533,0.012689 0.1032044,0.022817 0.1497148,0.030381 0.027536,0.013494 0.05168,0.024428 0.072428,0.032798 0.037195,0.0062 0.070994,0.00985 0.1014,0.010934 0.1192798,0.035361 0.235166,0.06816 0.3476575,0.098396 0.075152,0.01714 0.146909,0.031716 0.2152716,0.043731 0.043913,0.016037 0.084429,0.029514 0.1215519,0.040429 0.016388,0.00256 0.029386,0.00256 0.038985,0 0.00823,0.00872 0.013051,0.014857 0.014485,0.018443 0.016381,0.00256 0.029365,0.00256 0.038956,0 0.00823,0.00872 0.013051,0.014867 0.014485,0.018459 0.037195,0.0062 0.070993,0.00985 0.1014,0.010932 0.066166,0.01714 0.1289374,0.031716 0.1883143,0.043731 0.090886,0.00256 0.1783785,0.00256 0.262476,0 0.1627372,-0.00108 0.3220804,-0.00472 0.4780287,-0.010932 0.1096236,-0.026593 0.2158518,-0.055747 0.318686,-0.087465 0.021905,-0.00776 0.040413,-0.01809 0.055529,-0.030978 0.021905,0.00256 0.040412,0.00256 0.055528,0 0.03443,-0.010972 0.065467,-0.024507 0.093107,-0.040603 0.044437,-0.021126 0.08548,-0.044814 0.1231287,-0.071064 0.012252,0.00256 0.021099,0.00256 0.026559,0 0.021905,-0.00776 0.040412,-0.01809 0.055527,-0.030978 0.0303,-0.00472 0.057207,-0.012016 0.080718,-0.021866 0.052818,-0.027451 0.1022415,-0.057463 0.1482695,-0.090038 0.03156,-0.00472 0.05973,-0.012016 0.0845,-0.021866 0.0214,-0.022386 0.04181,-0.044254 0.06121,-0.065597"
       sodipodi:nodetypes="ccccccccccccccccccccccccccccccccccccccccccccc"
       inkscape:export-filename="/home/chenweiz/dev/pypolo/logo.png"
       inkscape:export-xdpi="1357.38"
       inkscape:export-ydpi="1357.38" />
    <path
       style="opacity:1;fill:#cccccc;stroke:#999999;stroke-width:0.0128025;stroke-miterlimit:4;stroke-dasharray:none"
       d="M 2.560554,7.7087666 C 2.5185058,7.6308921 2.3481925,7.1633799 2.3582186,7.1533538 c 0.00173,-0.00175 0.022934,0.00693 0.047112,0.019259 0.024177,0.012327 0.058941,0.02241 0.077253,0.02241 0.018312,0 0.1646047,-0.04327 0.3250951,-0.096155 C 2.9681691,7.0459828 3.1617026,6.9878089 3.2377531,6.9695926 3.3138041,6.9513756 3.4141341,6.9233306 3.4607098,6.9072676 3.6368109,6.8465346 3.9922352,6.7602704 4.3527033,6.690773 4.5504251,6.652653 4.5907269,6.648383 4.7478902,6.648907 5.083221,6.650017 5.4502396,6.735732 5.874789,6.9120679 c 0.1036804,0.043063 0.2596433,0.099572 0.3465843,0.1255747 0.086941,0.026003 0.2297552,0.074348 0.3173643,0.107433 0.087609,0.033085 0.2120931,0.070782 0.2766308,0.08377 0.064538,0.012988 0.1853166,0.041512 0.2683968,0.063387 0.2155907,0.056765 0.3598325,0.072922 0.6518717,0.073016 C 8.1569704,7.3653853 8.430552,7.3260516 8.9285648,7.1937387 9.3590969,7.0793541 9.5535352,7.0111223 9.8703846,6.8632374 9.9708455,6.8163484 10.092789,6.7652664 10.14137,6.7497206 c 0.04858,-0.015544 0.121355,-0.038825 0.161721,-0.051732 0.04036,-0.012906 0.09117,-0.027441 0.11291,-0.032297 0.02174,-0.00486 0.05603,-0.017439 0.07622,-0.02796 0.03547,-0.018494 0.0367,-0.018389 0.0367,0.00317 0,0.030513 -0.04168,0.2462548 -0.06888,0.3565316 -0.06125,0.2483334 -0.111773,0.389895 -0.111773,0.3132113 0,-0.025424 -0.05037,-0.079989 -0.08652,-0.093736 -0.05925,-0.022527 -0.13574,-0.00488 -0.172896,0.039887 -0.0158,0.019034 -0.2567118,0.1437399 -0.3051329,0.1579464 -0.015526,0.00456 -0.086659,0.035342 -0.1580748,0.068414 C 9.4869814,7.5473599 9.2819187,7.613528 9.1344662,7.641637 9.0237756,7.6627376 8.5938243,7.6837622 8.4626481,7.6744877 8.3376848,7.6656533 8.1807359,7.6390481 8.0956887,7.6122842 8.0278736,7.5909429 7.4103123,7.43322 7.2827326,7.4046582 7.2454721,7.3963159 7.1463931,7.3708432 7.062557,7.3480511 6.9013339,7.30422 6.8431155,7.2913748 6.4471943,7.2122776 6.1559802,7.1540989 6.0459564,7.1427538 5.6285926,7.1278665 4.7473391,7.0964324 4.3470237,7.1033925 4.0698433,7.1549696 3.8713714,7.1919007 3.3144724,7.3508338 3.1397347,7.4204128 3.0647627,7.4502658 2.9272068,7.5009528 2.8340555,7.5330502 2.652196,7.5957142 2.5992318,7.6301622 2.5816872,7.6971924 c -0.00836,0.031942 -0.00973,0.032692 -0.021133,0.011573 z"
       id="path98362"
       inkscape:export-filename="/home/chenweiz/dev/pypolo/logo.png"
       inkscape:export-xdpi="1357.38"
       inkscape:export-ydpi="1357.38" />
    <path
       style="opacity:1;fill:#cccccc;stroke:#999999;stroke-width:0.0128025;stroke-miterlimit:4;stroke-dasharray:none"
       d="M 2.9986864,8.4565492 C 2.9466175,8.3856557 2.8724166,8.2773199 2.8337957,8.215803 2.7638703,8.1044235 2.6477531,7.9004514 2.6477531,7.8889994 c 0,-0.00331 0.010896,-1.854e-4 0.024209,0.00694 0.031818,0.017029 0.1072179,0.00629 0.1440664,-0.020516 0.016124,-0.011732 0.085208,-0.040481 0.1535189,-0.063889 0.068311,-0.02341 0.1927948,-0.069445 0.2766309,-0.1023025 0.1811501,-0.070997 0.669268,-0.2116254 0.8687959,-0.2503035 0.2046872,-0.039678 0.590787,-0.053018 1.1127848,-0.038448 0.7335202,0.020476 0.8468685,0.029437 1.1573335,0.091505 0.3645686,0.072885 0.434307,0.088314 0.5901518,0.130565 0.082177,0.02228 0.1798984,0.047354 0.2171589,0.055721 0.1486607,0.033385 0.7370744,0.1851533 0.7847285,0.2024028 0.078731,0.028499 0.3325019,0.07076 0.4752192,0.079139 0.1629571,0.00957 0.5808027,-0.010652 0.721633,-0.034922 0.058996,-0.010168 0.1504535,-0.031287 0.2032392,-0.046935 0.052786,-0.015647 0.1306303,-0.038066 0.1729883,-0.049819 0.042358,-0.011753 0.1172628,-0.041605 0.1664552,-0.066339 0.049193,-0.024733 0.1263176,-0.059652 0.1713891,-0.077596 0.1091025,-0.043437 0.3324863,-0.1559658 0.3783383,-0.1905866 0.02018,-0.01524 0.0367,-0.022191 0.0367,-0.015449 0,0.00674 -0.02825,0.077208 -0.06278,0.1565921 -0.108743,0.2500079 -0.2472623,0.4977281 -0.4042293,0.7229028 -0.078864,0.1131337 -0.097545,0.1322387 -0.097545,0.099761 0,-0.028648 -0.056868,-0.084602 -0.097341,-0.095777 -0.04656,-0.012856 -0.078018,-0.00408 -0.2583272,0.072074 C 9.0817813,8.580883 8.918718,8.59435 8.4965208,8.5269223 8.3049471,8.4963269 8.1757112,8.4636181 8.1007867,8.4267653 8.0663303,8.4098161 7.9443867,8.3297008 7.8298013,8.2487288 7.3217716,7.8897289 7.0906377,7.769807 6.757698,7.6924773 6.587913,7.6530423 6.350563,7.6232983 6.1536262,7.6167773 5.9635572,7.6104873 5.9574228,7.6110473 5.5269725,7.6742103 5.2878844,7.7092943 5.0236736,7.7533493 4.9398374,7.7721093 4.8560014,7.7908683 4.7162746,7.8213373 4.6293333,7.8398143 4.3247574,7.9045453 4.2627348,7.9269243 3.8505376,8.1208209 3.1268844,8.4612258 3.1253109,8.4621275 3.1027256,8.5492879 l -0.00937,0.036157 z"
       id="path98401"
       inkscape:export-filename="/home/chenweiz/dev/pypolo/logo.png"
       inkscape:export-xdpi="1357.38"
       inkscape:export-ydpi="1357.38" />
    <path
       style="opacity:1;fill:#000000;fill-rule:nonzero;stroke:none;stroke-width:0.3079px;stroke-linecap:butt;stroke-linejoin:miter;stroke-opacity:1"
       d="M 4.9208859,6.4045318 C 4.9426879,6.3633867 5.0334032,6.2500609 5.051698,6.1576612 5.0721664,6.0542837 5.0292742,5.9255975 5.0180624,5.8095656 5.0068505,5.6935337 5.0243099,5.5590158 4.9844267,5.4614699 4.9487788,5.3742826 4.8380436,5.2804225 4.808767,5.244213 4.786965,5.2853581 4.6962497,5.3986839 4.6779549,5.4910836 c -0.020468,0.1033775 0.022424,0.2320637 0.033636,0.3480956 0.011212,0.1160319 -0.00625,0.2505498 0.033636,0.3480957 0.035648,0.087187 0.1463831,0.1810474 0.1756597,0.2172569 z"
       id="path98808"
       inkscape:path-effect="#path-effect100619"
       inkscape:original-d="M 4.9208859,6.4045318 4.808767,5.244213"
       inkscape:export-filename="/home/chenweiz/dev/pypolo/logo.png"
       inkscape:export-xdpi="1357.38"
       inkscape:export-ydpi="1357.38"
       sodipodi:nodetypes="cc" />
    <path
       style="opacity:1;fill:#000000;fill-rule:nonzero;stroke:none;stroke-width:0.386118px;stroke-linecap:butt;stroke-linejoin:miter;stroke-opacity:1"
       d="M 4.9236111,6.4031647 C 4.9709389,6.3835361 5.1329685,6.3525172 5.2075779,6.2853933 5.2881879,6.2128708 5.3219969,6.0752892 5.3792064,5.9702371 5.436416,5.8651851 5.5336469,5.762142 5.550835,5.655081 5.5667436,5.5559896 5.5048944,5.4030502 5.4957063,5.3526441 5.4483785,5.3722727 5.2863489,5.4032916 5.2117395,5.4704155 5.1311295,5.542938 5.0973205,5.6805196 5.040111,5.7855717 c -0.05721,0.105052 -0.1544405,0.2080951 -0.1716286,0.3151561 -0.015909,0.099091 0.045941,0.2520308 0.055129,0.3024369 z"
       id="path98810"
       inkscape:path-effect="#path-effect100621"
       inkscape:original-d="M 4.9236111,6.4031647 5.4957063,5.3526441"
       inkscape:export-filename="/home/chenweiz/dev/pypolo/logo.png"
       inkscape:export-xdpi="1357.38"
       inkscape:export-ydpi="1357.38"
       sodipodi:nodetypes="cc" />
    <path
       style="opacity:1;fill:#000000;fill-rule:nonzero;stroke:none;stroke-width:0.264583px;stroke-linecap:butt;stroke-linejoin:miter;stroke-opacity:1"
       d="M 4.922774,6.4037297 C 4.9109304,6.3670974 4.8964405,6.2469071 4.8517124,6.1839359 4.8021137,6.1141074 4.7007693,6.0695934 4.6252978,6.0124221 4.5498262,5.9552509 4.4795332,5.869746 4.3988831,5.8409084 c -0.07273,-0.026006 -0.1923538,-0.00741 -0.2308246,-0.00889 0.011844,0.036632 0.026333,0.1568226 0.071062,0.2197938 0.049599,0.069828 0.1509431,0.1143425 0.2264146,0.1715138 0.075472,0.057171 0.1457646,0.1426761 0.2264147,0.1715137 0.07273,0.026006 0.1923538,0.00741 0.2308246,0.00889 z"
       id="path98812"
       inkscape:path-effect="#path-effect100579"
       inkscape:original-d="M 4.922774,6.4037297 4.1680585,5.8320172"
       inkscape:export-filename="/home/chenweiz/dev/pypolo/logo.png"
       inkscape:export-xdpi="1357.38"
       inkscape:export-ydpi="1357.38" />
    <path
       style="opacity:1;fill:#000000;fill-rule:nonzero;stroke:none;stroke-width:0.264583px;stroke-linecap:butt;stroke-linejoin:miter;stroke-opacity:1"
       d="m 4.1425598,5.0610267 c 0.00763,0.03272 0.0033,0.1306475 0.045798,0.19632 0.076392,0.118046 0.3287633,0.2375942 0.493145,0.3563914 A 0.13229153,0.13229154 15.817173 0 0 4.8909238,5.4967789 C 4.8702747,5.2169923 4.8931123,4.8344692 4.8289765,4.6574191 4.7932959,4.5589209 4.7061269,4.4906666 4.681557,4.4573161 4.6621494,4.4939123 4.585945,4.574224 4.5651111,4.6768931 4.5407638,4.7968764 4.5655318,4.9973739 4.5915166,5.1998662 4.5013883,5.1257781 4.4145917,5.0614887 4.3433345,5.0429024 4.2676427,5.0231595 4.1760223,5.058006 4.1425598,5.0610267 Z"
       id="path98814"
       inkscape:path-effect="#path-effect100699"
       inkscape:original-d="M 4.1425598,5.0610267 4.7589911,5.506516 4.681557,4.4573161"
       sodipodi:nodetypes="ccc"
       inkscape:export-filename="/home/chenweiz/dev/pypolo/logo.png"
       inkscape:export-xdpi="1357.38"
       inkscape:export-ydpi="1357.38" />
    <path
       style="opacity:1;fill:#000000;fill-rule:nonzero;stroke:none;stroke-width:0.264583px;stroke-linecap:butt;stroke-linejoin:miter;stroke-opacity:1"
       d="m 4.7659555,5.5987337 c 0.033601,-0.00971 0.1460028,-0.018348 0.2016052,-0.05823 0.059999,-0.043036 0.092985,-0.1337465 0.1394777,-0.2006198 0.046492,-0.066873 0.1200342,-0.1293888 0.1394776,-0.2006197 0.018019,-0.066012 -0.013029,-0.1743858 -0.015635,-0.2092629 -0.033601,0.0097 -0.1460028,0.018348 -0.2016052,0.05823 -0.059999,0.043036 -0.092985,0.1337465 -0.1394777,0.2006198 -0.046493,0.066873 -0.1200342,0.1293888 -0.1394776,0.2006197 -0.018019,0.066012 0.013029,0.1743858 0.015635,0.2092629 z"
       id="path98816"
       inkscape:path-effect="#path-effect100777"
       inkscape:original-d="M 4.7659555,5.5987337 5.2308811,4.9300012"
       inkscape:export-filename="/home/chenweiz/dev/pypolo/logo.png"
       inkscape:export-xdpi="1357.38"
       inkscape:export-ydpi="1357.38" />
    <path
       style="opacity:1;fill:#000000;fill-rule:nonzero;stroke:none;stroke-width:0.339506px;stroke-linecap:butt;stroke-linejoin:miter;stroke-opacity:1"
       d="m 5.2423263,5.6276753 c 0.00902,0.037736 0.011118,0.169061 0.054101,0.2264156 0.043547,0.058108 0.138312,0.079023 0.2074679,0.1185343 0.069156,0.039511 0.1352963,0.1105273 0.2074679,0.1185343 0.071236,0.0079 0.1854358,-0.056975 0.222523,-0.06837 C 5.9248691,5.9850537 5.922768,5.8537286 5.8797851,5.796374 5.8362378,5.7382664 5.7414731,5.7173511 5.6723172,5.6778397 5.6031612,5.6383283 5.5370209,5.5673124 5.4648493,5.5593054 c -0.071236,-0.0079 -0.1854358,0.056975 -0.222523,0.06837 z"
       id="path98818"
       inkscape:path-effect="#path-effect101539"
       inkscape:original-d="M 5.2423263,5.6276753 5.9338859,6.0227896"
       inkscape:export-filename="/home/chenweiz/dev/pypolo/logo.png"
       inkscape:export-xdpi="1357.38"
       inkscape:export-ydpi="1357.38" />
    <path
       style="opacity:1;fill:#000000;fill-rule:nonzero;stroke:none;stroke-width:0.307434px;stroke-linecap:butt;stroke-linejoin:miter;stroke-opacity:1"
       d="m 5.1944913,5.7629218 c 0.041378,-0.00865 0.1761703,-0.00948 0.2482668,-0.051872 C 5.5215088,5.6647464 5.5748243,5.5585482 5.6408575,5.4822975 5.7068906,5.4060467 5.804381,5.3381039 5.8389569,5.2535451 5.8706112,5.1761314 5.8521784,5.0426025 5.8548227,5.000414 5.8134449,5.0090593 5.6786524,5.0098952 5.6065559,5.052286 5.5278052,5.0985894 5.4744897,5.2047876 5.4084565,5.2810383 5.3424234,5.3572891 5.244933,5.4252319 5.2103571,5.5097907 5.1787028,5.5872044 5.1971356,5.7207333 5.1944913,5.7629218 Z"
       id="path98820"
       inkscape:path-effect="#path-effect101537"
       inkscape:original-d="M 5.1944913,5.7629218 5.8548227,5.000414"
       inkscape:export-filename="/home/chenweiz/dev/pypolo/logo.png"
       inkscape:export-xdpi="1357.38"
       inkscape:export-ydpi="1357.38" />
    <path
       style="opacity:1;fill:#000000;fill-rule:nonzero;stroke:none;stroke-width:0.264583px;stroke-linecap:butt;stroke-linejoin:miter;stroke-opacity:1"
       d="m 5.3324662,5.6279715 c 0.027732,0.016806 0.1054824,0.090319 0.1663927,0.1008366 0.06388,0.01103 0.1397403,-0.028742 0.2096105,-0.043114 0.06987,-0.014371 0.1552695,-0.00777 0.2096106,-0.043113 0.051815,-0.033703 0.09424,-0.1319343 0.1130881,-0.1583212 -0.027732,-0.016806 -0.1054824,-0.090319 -0.1663927,-0.1008366 -0.06388,-0.01103 -0.1397403,0.028742 -0.2096105,0.043114 -0.06987,0.014371 -0.1552695,0.00777 -0.2096106,0.043113 -0.051815,0.033703 -0.09424,0.1319343 -0.1130881,0.1583212 z"
       id="path98822"
       inkscape:path-effect="#path-effect101579"
       inkscape:original-d="M 5.3324662,5.6279715 6.0311681,5.4842599"
       inkscape:export-filename="/home/chenweiz/dev/pypolo/logo.png"
       inkscape:export-xdpi="1357.38"
       inkscape:export-ydpi="1357.38" />
    <path
       style="opacity:1;fill:#000000;fill-rule:nonzero;stroke:none;stroke-width:0.264583px;stroke-linecap:butt;stroke-linejoin:miter;stroke-opacity:1"
       d="M 4.6755679,4.9042952 C 4.6783141,4.8730116 4.7095919,4.772996 4.6920451,4.7165938 4.6739105,4.6583021 4.6065586,4.6131803 4.5638154,4.5614736 4.5210721,4.5097669 4.4894254,4.4351295 4.4355857,4.4063534 4.3834911,4.37851 4.2793773,4.3904155 4.2481356,4.3872279 c -0.00275,0.031284 -0.034024,0.1312992 -0.016477,0.1877014 0.018135,0.058292 0.085487,0.1034135 0.1282297,0.1551202 0.042743,0.051707 0.07439,0.1263441 0.1282297,0.1551202 0.052095,0.027843 0.1562084,0.015938 0.1874501,0.019126 z"
       id="path98937"
       inkscape:path-effect="#path-effect100937"
       inkscape:original-d="M 4.6755679,4.9042952 4.2481356,4.3872279"
       inkscape:export-filename="/home/chenweiz/dev/pypolo/logo.png"
       inkscape:export-xdpi="1357.38"
       inkscape:export-ydpi="1357.38" />
    <path
       style="opacity:1;fill:#000000;fill-rule:nonzero;stroke:none;stroke-width:0.296905px;stroke-linecap:butt;stroke-linejoin:miter;stroke-opacity:1"
       d="m 4.6727996,4.8680377 c 0.024803,-0.032489 0.1228367,-0.1183196 0.1488183,-0.1949318 0.02839,-0.083713 3.66e-4,-0.1952102 5.49e-4,-0.2928153 1.83e-4,-0.097605 0.028625,-0.2089961 5.49e-4,-0.2928153 C 4.7970217,4.0107662 4.6993107,3.9245682 4.6746296,3.8919868 4.6498265,3.9244754 4.5517929,4.0103064 4.5258113,4.0869186 c -0.02839,0.083713 -3.66e-4,0.1952102 -5.49e-4,0.2928153 -1.83e-4,0.097605 -0.028625,0.2089961 -5.49e-4,0.2928153 0.025694,0.076709 0.1234052,0.1629071 0.1480863,0.1954885 z"
       id="path98939"
       inkscape:path-effect="#path-effect101093"
       inkscape:original-d="m 4.6727996,4.8680377 0.00183,-0.9760509"
       inkscape:export-filename="/home/chenweiz/dev/pypolo/logo.png"
       inkscape:export-xdpi="1357.38"
       inkscape:export-ydpi="1357.38" />
    <path
       style="opacity:1;fill:#000000;fill-rule:nonzero;stroke:none;stroke-width:0.264583px;stroke-linecap:butt;stroke-linejoin:miter;stroke-opacity:1"
       d="M 4.753084,4.7159632 C 4.7877498,4.704615 4.9031908,4.6910564 4.9610787,4.6478739 5.024358,4.6006696 5.0602884,4.5045061 5.1098933,4.4328221 5.1594981,4.3611382 5.2368311,4.293625 5.2587078,4.2177703 5.2787206,4.1483785 5.2507284,4.035565 5.2491325,3.9991239 5.2144667,4.0104721 5.0990257,4.0240307 5.0411378,4.0672132 4.9778585,4.1144175 4.9419281,4.210581 4.8923232,4.282265 4.8427184,4.3539489 4.7653854,4.4214621 4.7435087,4.4973168 c -0.020013,0.069392 0.00798,0.1822053 0.00958,0.2186464 z"
       id="path98941"
       inkscape:path-effect="#path-effect101015"
       inkscape:original-d="M 4.753084,4.7159632 5.2491325,3.9991239"
       inkscape:export-filename="/home/chenweiz/dev/pypolo/logo.png"
       inkscape:export-xdpi="1357.38"
       inkscape:export-ydpi="1357.38" />
    <path
       style="opacity:1;fill:#000000;fill-rule:nonzero;stroke:none;stroke-width:0.264583px;stroke-linecap:butt;stroke-linejoin:miter;stroke-opacity:1"
       d="M 4.7007339,4.1977396 C 4.700861,4.1639497 4.7240202,4.0563824 4.7014965,3.9950005 4.677483,3.9295585 4.6016879,3.878206 4.5517836,3.8198088 4.5018794,3.7614116 4.4629696,3.6785382 4.4020708,3.6446172 4.3449502,3.6128006 4.2350877,3.618909 4.2016911,3.6137674 c -1.271e-4,0.03379 -0.023286,0.1413572 -7.626e-4,0.2027391 0.024014,0.065442 0.099809,0.1167945 0.1497129,0.1751917 0.049904,0.058397 0.088814,0.1412706 0.1497128,0.1751916 0.057121,0.031817 0.1669831,0.025708 0.2003797,0.03085 z"
       id="path98943"
       inkscape:path-effect="#path-effect101095"
       inkscape:original-d="M 4.7007339,4.1977396 4.2016911,3.6137674"
       inkscape:export-filename="/home/chenweiz/dev/pypolo/logo.png"
       inkscape:export-xdpi="1357.38"
       inkscape:export-ydpi="1357.38" />
    <path
       style="opacity:1;fill:#000000;fill-rule:nonzero;stroke:none;stroke-width:0.264583px;stroke-linecap:butt;stroke-linejoin:miter;stroke-opacity:1"
       d="M 4.6502978,3.9784793 C 4.6744151,3.955677 4.7672337,3.89913 4.7950016,3.8416654 4.824404,3.7808183 4.8079126,3.6933767 4.814368,3.6192324 4.8208235,3.5450881 4.8521786,3.4618123 4.8337344,3.3967994 4.8163154,3.3354005 4.7346661,3.2636633 4.7148524,3.2370361 4.6907351,3.2598384 4.5979165,3.3163854 4.5701486,3.37385 c -0.029402,0.060847 -0.012911,0.1482887 -0.019366,0.222433 -0.00646,0.074144 -0.037811,0.1574201 -0.019366,0.222433 0.017419,0.061399 0.099068,0.1331361 0.118882,0.1597633 z"
       id="path98945"
       inkscape:path-effect="#path-effect101135"
       inkscape:original-d="M 4.6502978,3.9784793 4.7148524,3.2370361"
       inkscape:export-filename="/home/chenweiz/dev/pypolo/logo.png"
       inkscape:export-xdpi="1357.38"
       inkscape:export-ydpi="1357.38" />
    <path
       style="opacity:1;fill:none;stroke:#000000;stroke-width:0.264583px;stroke-linecap:butt;stroke-linejoin:miter;stroke-opacity:1"
       d="m 4.6447794,3.9348786 c 0,-0.043756 -0.00564,-0.026534 0.00799,-0.053773"
       id="path98947"
       inkscape:export-filename="/home/chenweiz/dev/pypolo/logo.png"
       inkscape:export-xdpi="1357.38"
       inkscape:export-ydpi="1357.38" />
    <path
       style="opacity:1;fill:#000000;fill-rule:nonzero;stroke:none;stroke-width:0.264583px;stroke-linecap:butt;stroke-linejoin:miter;stroke-opacity:1"
       d="m 5.0743176,3.5694864 c -0.032286,0.00781 -0.1409931,0.010773 -0.1937159,0.046865 -0.055844,0.038229 -0.085101,0.1223889 -0.1276512,0.1835833 -0.04255,0.061194 -0.1112581,0.117923 -0.1276512,0.1835833 -0.015477,0.06199 0.019595,0.1649269 0.023514,0.1979123 0.032286,-0.00781 0.1409931,-0.010773 0.1937159,-0.046865 0.055844,-0.038229 0.085101,-0.1223889 0.1276512,-0.1835833 0.04255,-0.061194 0.1112581,-0.117923 0.1276512,-0.1835833 0.015477,-0.06199 -0.019595,-0.1649269 -0.023514,-0.1979123 z"
       id="path98949"
       inkscape:path-effect="#path-effect101175"
       inkscape:original-d="M 5.0743176,3.5694864 4.6488136,4.1814306"
       inkscape:export-filename="/home/chenweiz/dev/pypolo/logo.png"
       inkscape:export-xdpi="1357.38"
       inkscape:export-ydpi="1357.38" />
    <path
       style="opacity:1;fill:#000000;fill-rule:nonzero;stroke:none;stroke-width:0.264583px;stroke-linecap:butt;stroke-linejoin:miter;stroke-opacity:1"
       d="M 6.3158467,4.4436511 C 6.2816196,4.4482158 6.1842026,4.4324892 6.1104842,4.4710393 6.0304416,4.5128965 5.9379866,4.6241239 5.8447359,4.7397983 5.8178938,4.6122565 5.7889492,4.4909074 5.7405337,4.4269079 5.6937502,4.3650658 5.6008496,4.3392382 5.5729128,4.3217043 c -0.014465,0.029642 -0.07972,0.1006316 -0.086793,0.1778528 -0.012309,0.1343833 0.107771,0.3774084 0.1616565,0.5661126 a 0.13229154,0.13229154 58.392085 0 0 0.2243967,0.053426 C 6.0164035,4.9629107 6.2481838,4.7837535 6.3048639,4.6505406 c 0.03257,-0.076549 0.00915,-0.1724079 0.010983,-0.2068895 z"
       id="path98951"
       inkscape:path-effect="#path-effect101497"
       inkscape:original-d="M 6.3158467,4.4436511 5.7749834,5.0293452 5.5729128,4.3217043"
       inkscape:export-filename="/home/chenweiz/dev/pypolo/logo.png"
       inkscape:export-xdpi="1357.38"
       inkscape:export-ydpi="1357.38" />
    <path
       style="opacity:1;fill:#000000;fill-rule:nonzero;stroke:none;stroke-width:0.264583px;stroke-linecap:butt;stroke-linejoin:miter;stroke-opacity:1"
       d="m 5.7393688,5.057104 c 0.020911,0.0223 0.073493,0.110919 0.1254653,0.133802 0.052977,0.023326 0.127048,0.00152 0.1905719,0.00228 0.063524,7.6e-4 0.1370519,0.024331 0.1905719,0.00228 C 6.2984828,5.1738329 6.3531701,5.0864977 6.3746085,5.064704 6.3536976,5.0424037 6.3011155,4.953785 6.2491432,4.930902 6.196166,4.9075765 6.1220952,4.929382 6.0585713,4.928622 5.9950473,4.927862 5.9215194,4.9042906 5.8679994,4.926342 5.8154945,4.9479751 5.7608072,5.0353103 5.7393688,5.057104 Z"
       id="path98953"
       inkscape:path-effect="#path-effect101619"
       inkscape:original-d="m 5.7393688,5.057104 0.6352397,0.0076"
       inkscape:export-filename="/home/chenweiz/dev/pypolo/logo.png"
       inkscape:export-xdpi="1357.38"
       inkscape:export-ydpi="1357.38" />
    <path
       style="opacity:1;fill:none;stroke:#000000;stroke-width:0.273288px;stroke-linecap:butt;stroke-linejoin:miter;stroke-opacity:1"
       d="m 5.2338267,4.0337911 0.6820132,0.050074"
       id="path98955"
       inkscape:export-filename="/home/chenweiz/dev/pypolo/logo.png"
       inkscape:export-xdpi="1357.38"
       inkscape:export-ydpi="1357.38" />
    <path
       style="opacity:1;fill:#000000;fill-rule:nonzero;stroke:none;stroke-width:0.264583px;stroke-linecap:butt;stroke-linejoin:miter;stroke-opacity:1"
       d="m 5.0990024,4.1450491 c 0.03124,-0.013454 0.1395954,-0.035316 0.1874404,-0.080725 0.051133,-0.048531 0.068835,-0.1393242 0.1032526,-0.2089863 0.034417,-0.069662 0.095775,-0.1388868 0.1032526,-0.2089862 0.007,-0.065591 -0.041475,-0.1649357 -0.04977,-0.1979228 -0.03124,0.013454 -0.1395954,0.035316 -0.1874404,0.080726 -0.051133,0.048531 -0.068835,0.1393242 -0.1032526,0.2089863 -0.034417,0.069662 -0.095775,0.1388868 -0.1032526,0.2089862 -0.007,0.065591 0.041475,0.1649357 0.04977,0.1979228 z"
       id="path98957"
       inkscape:path-effect="#path-effect101215"
       inkscape:original-d="M 5.0990024,4.1450491 5.4431776,3.4484283"
       inkscape:export-filename="/home/chenweiz/dev/pypolo/logo.png"
       inkscape:export-xdpi="1357.38"
       inkscape:export-ydpi="1357.38"
       sodipodi:nodetypes="cc" />
    <path
       style="opacity:1;fill:#000000;fill-rule:nonzero;stroke:none;stroke-width:0.264583px;stroke-linecap:butt;stroke-linejoin:miter;stroke-opacity:1"
       d="m 5.863952,4.0425709 c 0.027043,-0.012848 0.1262518,-0.035481 0.1622612,-0.077089 0.036275,-0.041915 0.035859,-0.1161229 0.053789,-0.1741844 0.01793,-0.058061 0.060115,-0.1191146 0.053789,-0.1741844 -0.00628,-0.054667 -0.075452,-0.1292971 -0.090542,-0.1551565 -0.027044,0.012848 -0.1262518,0.035481 -0.1622612,0.077089 -0.036275,0.041915 -0.035859,0.1161229 -0.053789,0.1741844 -0.01793,0.058061 -0.060115,0.1191146 -0.053789,0.1741844 0.00628,0.054667 0.075452,0.1292971 0.090542,0.1551565 z"
       id="path98959"
       inkscape:path-effect="#path-effect101457"
       inkscape:original-d="M 5.863952,4.0425709 6.043249,3.4619562"
       inkscape:export-filename="/home/chenweiz/dev/pypolo/logo.png"
       inkscape:export-xdpi="1357.38"
       inkscape:export-ydpi="1357.38" />
    <path
       style="opacity:1;fill:#000000;fill-rule:nonzero;stroke:none;stroke-width:0.300497px;stroke-linecap:butt;stroke-linejoin:miter;stroke-opacity:1"
       d="m 5.7649932,4.0279996 c 0.01962,0.029802 0.062305,0.1409318 0.1177204,0.1788102 0.057282,0.039155 0.1491314,0.031882 0.2236971,0.047823 0.074566,0.015941 0.1554123,0.060133 0.223697,0.047823 C 6.3961666,4.2905464 6.4805596,4.2065837 6.51065,4.1874093 6.4910299,4.1576076 6.4483447,4.0464775 6.3929296,4.0085991 6.3356473,3.9694445 6.2437982,3.9767172 6.1692325,3.9607762 6.0946669,3.9448353 6.0138202,3.9006429 5.9455355,3.9129533 5.8794766,3.9248625 5.7950836,4.0088252 5.7649932,4.0279996 Z"
       id="path98961"
       inkscape:path-effect="#path-effect101217"
       inkscape:original-d="M 5.7649932,4.0279996 6.51065,4.1874093"
       inkscape:export-filename="/home/chenweiz/dev/pypolo/logo.png"
       inkscape:export-xdpi="1357.38"
       inkscape:export-ydpi="1357.38"
       sodipodi:nodetypes="cc" />
    <path
       style="opacity:1;fill:#000000;fill-rule:nonzero;stroke:none;stroke-width:0.293393px;stroke-linecap:butt;stroke-linejoin:miter;stroke-opacity:1"
       d="m 5.1833854,3.0178376 c -0.01589,0.026173 -0.087946,0.093241 -0.095339,0.1570386 -0.012238,0.1056053 0.1091658,0.2739664 0.1637488,0.4109496 a 0.14669639,0.14669641 48.406714 0 0 0.2651479,0.015784 C 5.6222256,3.4080175 5.8103083,3.1677908 5.8327904,3.0208332 5.8463722,2.9320539 5.7911989,2.8414339 5.7828806,2.805554 5.7482417,2.8180722 5.6421877,2.821011 5.5750471,2.880663 5.5187297,2.9306991 5.4654197,3.0294453 5.4128313,3.1398773 5.3979389,3.1089147 5.380947,3.083311 5.3605988,3.0662738 5.3113558,3.0250435 5.212921,3.0259103 5.1833854,3.0178376 Z"
       id="path98963"
       inkscape:path-effect="#path-effect101259"
       inkscape:original-d="M 5.1833854,3.0178376 5.3880714,3.5315246 5.7828806,2.805554"
       inkscape:export-filename="/home/chenweiz/dev/pypolo/logo.png"
       inkscape:export-xdpi="1357.38"
       inkscape:export-ydpi="1357.38"
       sodipodi:nodetypes="ccc" />
    <path
       style="opacity:1;fill:#000000;fill-rule:nonzero;stroke:none;stroke-width:0.264583px;stroke-linecap:butt;stroke-linejoin:miter;stroke-opacity:1"
       d="m 5.3105844,3.6153099 c 0.036088,0.00666 0.1444644,0.050092 0.2165273,0.03995 0.07891,-0.011105 0.1575498,-0.078467 0.2363248,-0.1177007 0.078775,-0.039234 0.179918,-0.061412 0.2363248,-0.1177008 0.051512,-0.051404 0.082144,-0.1640705 0.098572,-0.1968846 -0.036088,-0.00666 -0.1444644,-0.050092 -0.2165273,-0.03995 -0.07891,0.011105 -0.1575498,0.078467 -0.2363248,0.1177007 -0.078775,0.039234 -0.179918,0.061412 -0.2363248,0.1177008 -0.051512,0.051404 -0.082144,0.1640705 -0.098572,0.1968846 z"
       id="path98965"
       inkscape:path-effect="#path-effect101219"
       inkscape:original-d="M 5.3105844,3.6153099 6.0983337,3.2229742"
       inkscape:export-filename="/home/chenweiz/dev/pypolo/logo.png"
       inkscape:export-xdpi="1357.38"
       inkscape:export-ydpi="1357.38"
       sodipodi:nodetypes="cc" />
    <path
       style="opacity:1;fill:#000000;fill-rule:nonzero;stroke:none;stroke-width:0.264583px;stroke-linecap:butt;stroke-linejoin:miter;stroke-opacity:1"
       d="M 4.3649753,4.5889288 C 4.3719184,4.5559815 4.4163122,4.455596 4.4066337,4.3912448 4.3963287,4.3227276 4.3325946,4.2577101 4.2955751,4.1909427 4.2585555,4.1241753 4.2371715,4.0356765 4.1845164,3.9906405 4.1350628,3.9483429 4.0264025,3.9328192 3.9947797,3.9212549 c -0.00694,0.032947 -0.051337,0.1333328 -0.041658,0.197684 0.010305,0.068517 0.074039,0.1335347 0.1110586,0.2003021 0.03702,0.066767 0.058404,0.1552662 0.1110587,0.2003022 0.049454,0.042298 0.1581139,0.057821 0.1897367,0.069386 z"
       id="path99080"
       inkscape:path-effect="#path-effect100897"
       inkscape:original-d="M 4.3649753,4.5889288 3.9947797,3.9212549"
       sodipodi:nodetypes="cc"
       inkscape:export-filename="/home/chenweiz/dev/pypolo/logo.png"
       inkscape:export-xdpi="1357.38"
       inkscape:export-ydpi="1357.38" />
    <path
       style="opacity:1;fill:#000000;fill-rule:nonzero;stroke:none;stroke-width:0.264583px;stroke-linecap:butt;stroke-linejoin:miter;stroke-opacity:1"
       d="M 4.1857745,4.3089846 C 4.1671967,4.2873815 4.1207673,4.2000083 4.0743077,4.1793658 c -0.045285,-0.020121 -0.1082492,0.00263 -0.1623738,0.00395 -0.054125,0.00132 -0.1181207,-0.018349 -0.1623738,0.00395 -0.045401,0.022877 -0.087526,0.112405 -0.1050316,0.134886 0.018578,0.021603 0.065007,0.1089763 0.1114668,0.1296188 0.045285,0.020121 0.1082492,-0.00263 0.1623738,-0.00395 0.054125,-0.00132 0.1181207,0.018349 0.1623738,-0.00395 0.045401,-0.022877 0.087526,-0.112405 0.1050316,-0.134886 z"
       id="path99082"
       inkscape:path-effect="#path-effect100857"
       inkscape:original-d="m 4.1857745,4.3089846 -0.541246,0.013168"
       inkscape:export-filename="/home/chenweiz/dev/pypolo/logo.png"
       inkscape:export-xdpi="1357.38"
       inkscape:export-ydpi="1357.38" />
    <path
       style="opacity:1;fill:#000000;fill-rule:nonzero;stroke:none;stroke-width:0.264583px;stroke-linecap:butt;stroke-linejoin:miter;stroke-opacity:1"
       d="m 3.7853899,4.8563942 c 0.030441,0.00194 0.1292937,0.030523 0.1826441,0.011629 0.054315,-0.019236 0.093019,-0.085677 0.1395284,-0.1285152 0.046509,-0.042838 0.1159011,-0.075961 0.1395284,-0.1285152 0.023207,-0.051621 0.00283,-0.1524853 0.00339,-0.1829824 -0.030441,-0.00194 -0.1292937,-0.030523 -0.1826441,-0.011629 -0.054315,0.019236 -0.093019,0.085677 -0.1395284,0.1285152 -0.046509,0.042838 -0.1159011,0.075961 -0.1395284,0.1285152 -0.023207,0.05162 -0.00283,0.1524853 -0.00339,0.1829824 z"
       id="path99088"
       inkscape:path-effect="#path-effect100817"
       inkscape:original-d="M 3.7853899,4.8563942 4.2504846,4.4280102"
       inkscape:export-filename="/home/chenweiz/dev/pypolo/logo.png"
       inkscape:export-xdpi="1357.38"
       inkscape:export-ydpi="1357.38" />
    <path
       style="opacity:1;fill:#000000;fill-rule:nonzero;stroke:none;stroke-width:0.264583px;stroke-linecap:butt;stroke-linejoin:miter;stroke-opacity:1"
       d="M 5.7601167,3.0356127 C 5.7616548,2.998682 5.7894948,2.8846463 5.7693451,2.8140285 5.7472362,2.7365447 5.6692037,2.6668708 5.619133,2.593292 5.5690623,2.5197132 5.5328855,2.4215564 5.468921,2.3725555 5.4106245,2.3278967 5.2943284,2.3119462 5.2594099,2.2998243 c -0.00154,0.036931 -0.029378,0.1509664 -0.00923,0.2215842 0.022109,0.077484 0.1001414,0.1471577 0.1502121,0.2207365 0.050071,0.073579 0.086247,0.1717356 0.150212,0.2207365 0.058296,0.044659 0.1745926,0.060609 0.2095111,0.072731 z"
       id="path99090"
       inkscape:path-effect="#path-effect101337"
       inkscape:original-d="M 5.7601167,3.0356127 5.2594099,2.2998243"
       sodipodi:nodetypes="cc"
       inkscape:export-filename="/home/chenweiz/dev/pypolo/logo.png"
       inkscape:export-xdpi="1357.38"
       inkscape:export-ydpi="1357.38" />
    <path
       style="opacity:1;fill:#000000;fill-rule:nonzero;stroke:none;stroke-width:0.330292px;stroke-linecap:butt;stroke-linejoin:miter;stroke-opacity:1"
       d="m 5.7221373,3.010046 c 0.032219,-0.024922 0.1532029,-0.082835 0.1933151,-0.1495345 0.04218,-0.070138 0.030563,-0.17755 0.045844,-0.266325 0.015281,-0.088775 0.062144,-0.1861208 0.045844,-0.266325 C 5.9916389,2.2515884 5.8969822,2.1565569 5.8749506,2.122296 c -0.032219,0.024922 -0.1532029,0.082835 -0.1933151,0.1495345 -0.04218,0.070138 -0.030563,0.17755 -0.045844,0.266325 -0.015281,0.088775 -0.062144,0.1861208 -0.045844,0.266325 0.015502,0.076273 0.1101582,0.1713046 0.1321898,0.2055655 z"
       id="path99092"
       inkscape:path-effect="#path-effect101377"
       inkscape:original-d="M 5.7221373,3.010046 5.8749506,2.122296"
       inkscape:export-filename="/home/chenweiz/dev/pypolo/logo.png"
       inkscape:export-xdpi="1357.38"
       inkscape:export-ydpi="1357.38" />
    <path
       style="opacity:1;fill:#000000;fill-rule:nonzero;stroke:none;stroke-width:0.264583px;stroke-linecap:butt;stroke-linejoin:miter;stroke-opacity:1"
       d="m 5.5852549,2.9598489 c 0.040663,0.00866 0.1594647,0.057852 0.2439781,0.051953 C 5.9245377,3.0051487 6.0279491,2.9394465 6.1273071,2.903269 6.2266652,2.8670915 6.3481114,2.8509203 6.4253813,2.7947365 6.4939019,2.7449144 6.5532597,2.6308509 6.5788354,2.5980738 6.5381724,2.589415 6.4193707,2.5402216 6.3348573,2.5461212 6.2395526,2.552774 6.1361412,2.6184762 6.0367832,2.6546537 5.9374251,2.6908312 5.8159789,2.7070024 5.738709,2.7631862 5.6701884,2.8130083 5.6108306,2.9270718 5.5852549,2.9598489 Z"
       id="path99094"
       inkscape:path-effect="#path-effect101417"
       inkscape:original-d="M 5.5852549,2.9598489 6.5788354,2.5980738"
       sodipodi:nodetypes="cc"
       inkscape:export-filename="/home/chenweiz/dev/pypolo/logo.png"
       inkscape:export-xdpi="1357.38"
       inkscape:export-ydpi="1357.38" />
    <path
       sodipodi:type="star"
       style="opacity:1;fill:#2b0000;stroke:#800000;stroke-width:1.13386;stroke-miterlimit:4;stroke-dasharray:none"
       id="path99616"
       inkscape:flatsided="false"
       sodipodi:sides="5"
       sodipodi:cx="-12.412568"
       sodipodi:cy="13.816435"
       sodipodi:r1="0.8856653"
       sodipodi:r2="0.44283265"
       sodipodi:arg1="1.0072205"
       sodipodi:arg2="1.6355391"
       inkscape:rounded="0"
       inkscape:randomized="0"
       d="m -11.939435,14.565132 -0.501783,-0.306792 -0.537197,0.239432 0.136717,-0.572029 -0.393716,-0.436916 0.586279,-0.04674 0.293867,-0.509461 0.225624,0.543141 0.575336,0.122052 -0.446837,0.382421 z"
       transform="matrix(0.26458333,0,0,0.26458333,11.888717,-0.09740036)"
       inkscape:transform-center-x="-0.0046849609"
       inkscape:transform-center-y="-0.017874283"
       inkscape:export-filename="/home/chenweiz/dev/pypolo/logo.png"
       inkscape:export-xdpi="1357.38"
       inkscape:export-ydpi="1357.38" />
    <path
       style="opacity:1;fill:none;stroke:#000000;stroke-width:0.264583px;stroke-linecap:butt;stroke-linejoin:miter;stroke-opacity:1"
       d="m 6.0451467,4.0233801 0.504277,-0.298517"
       id="path99813"
       inkscape:export-filename="/home/chenweiz/dev/pypolo/logo.png"
       inkscape:export-xdpi="1357.38"
       inkscape:export-ydpi="1357.38" />
    <path
       style="opacity:1;fill:none;stroke:#000000;stroke-width:0.264583px;stroke-linecap:butt;stroke-linejoin:miter;stroke-opacity:1"
       d="M 6.4088141,3.7679435 7.0316732,3.9664619"
       id="path99819"
       inkscape:export-filename="/home/chenweiz/dev/pypolo/logo.png"
       inkscape:export-xdpi="1357.38"
       inkscape:export-ydpi="1357.38" />
    <path
       style="opacity:1;fill:none;stroke:#000000;stroke-width:0.264583px;stroke-linecap:butt;stroke-linejoin:miter;stroke-opacity:1"
       d="M 6.505116,3.7777519 7.0902457,3.4235403"
       id="path99821"
       inkscape:export-filename="/home/chenweiz/dev/pypolo/logo.png"
       inkscape:export-xdpi="1357.38"
       inkscape:export-ydpi="1357.38"
       sodipodi:nodetypes="cc" />
    <path
       style="opacity:1;fill:#000000;fill-rule:nonzero;stroke:none;stroke-width:0.264583px;stroke-linecap:butt;stroke-linejoin:miter;stroke-opacity:1"
       d="m 6.5081255,3.7215952 c 0.02513,-0.015782 0.1205288,-0.049632 0.1507824,-0.094693 0.030313,-0.04515 0.020454,-0.1173994 0.030681,-0.1760991 0.010227,-0.0587 0.043939,-0.1233582 0.030681,-0.1760991 -0.013232,-0.052637 -0.091562,-0.1167552 -0.109874,-0.1401062 -0.02513,0.015782 -0.1205288,0.049632 -0.1507824,0.094693 -0.030313,0.04515 -0.020454,0.1173994 -0.030681,0.1760991 -0.010227,0.0587 -0.043939,0.1233582 -0.030681,0.1760991 0.013232,0.052637 0.091562,0.1167552 0.109874,0.1401062 z"
       id="path99823"
       inkscape:path-effect="#path-effect101623"
       inkscape:original-d="M 6.5081255,3.7215952 6.6103965,3.1345981"
       inkscape:export-filename="/home/chenweiz/dev/pypolo/logo.png"
       inkscape:export-xdpi="1357.38"
       inkscape:export-ydpi="1357.38" />
    <path
       style="opacity:1;fill:#000000;fill-rule:nonzero;stroke:none;stroke-width:0.264583px;stroke-linecap:butt;stroke-linejoin:miter;stroke-opacity:1"
       d="m 6.9271641,3.4320234 c 0.030733,0.01426 0.1189927,0.080308 0.1844002,0.08556 0.069803,0.0056 0.1485814,-0.04179 0.2228721,-0.062686 0.074291,-0.020895 0.1662256,-0.021515 0.2228721,-0.062686 0.05308,-0.038578 0.093969,-0.1409504 0.1127625,-0.1691405 -0.030733,-0.01426 -0.1189927,-0.080308 -0.1844002,-0.08556 -0.069803,-0.0056 -0.1485814,0.04179 -0.2228721,0.062686 -0.074291,0.020895 -0.1662256,0.021515 -0.2228721,0.062686 -0.05308,0.038578 -0.093969,0.1409504 -0.1127625,0.1691405 z"
       id="path99825"
       inkscape:path-effect="#path-effect101663"
       inkscape:original-d="M 6.9271641,3.4320234 7.670071,3.2230713"
       inkscape:export-filename="/home/chenweiz/dev/pypolo/logo.png"
       inkscape:export-xdpi="1357.38"
       inkscape:export-ydpi="1357.38" />
    <path
       style="opacity:1;fill:#000000;fill-rule:nonzero;stroke:none;stroke-width:0.264583px;stroke-linecap:butt;stroke-linejoin:miter;stroke-opacity:1"
       d="M 7.0480393,3.3970655 C 7.0682732,3.3746692 7.1516448,3.3154756 7.1694426,3.262688 7.1874559,3.2092611 7.1590245,3.1394544 7.1538155,3.0778377 7.1486065,3.0162209 7.1649154,2.942632 7.1381885,2.8929874 7.1117814,2.8439368 7.0196558,2.7995795 6.9959492,2.7808979 c -0.020234,0.022396 -0.1036055,0.08159 -0.1214033,0.1343775 -0.018013,0.053427 0.010418,0.1232336 0.015627,0.1848503 0.00521,0.061617 -0.0111,0.1352057 0.015627,0.1848503 0.026407,0.049051 0.1185327,0.093408 0.1422393,0.1120895 z"
       id="path99827"
       inkscape:path-effect="#path-effect101665"
       inkscape:original-d="M 7.0480393,3.3970655 6.9959492,2.7808979"
       inkscape:export-filename="/home/chenweiz/dev/pypolo/logo.png"
       inkscape:export-xdpi="1357.38"
       inkscape:export-ydpi="1357.38" />
    <path
       style="opacity:1;fill:#000000;fill-rule:nonzero;stroke:none;stroke-width:0.264583px;stroke-linecap:butt;stroke-linejoin:miter;stroke-opacity:1"
       d="m 6.9922787,3.4105563 c 0.00427,0.030411 -0.00379,0.133427 0.025597,0.1824656 0.030024,0.050108 0.1035902,0.07561 0.1553853,0.1134156 0.051795,0.037805 0.09851,0.1000952 0.1553853,0.1134156 0.055662,0.013036 0.1513197,-0.026037 0.1815837,-0.031245 -0.00427,-0.030411 0.00379,-0.133427 -0.025597,-0.1824656 C 7.4546086,3.5560348 7.3810428,3.5305322 7.3292477,3.492727 7.2774526,3.4549218 7.230738,3.3926318 7.1738624,3.3793114 7.1182005,3.3662752 7.0225427,3.4053488 6.9922787,3.4105563 Z"
       id="path99829"
       inkscape:path-effect="#path-effect101705"
       inkscape:original-d="m 6.9922787,3.4105563 0.517951,0.3780519"
       inkscape:export-filename="/home/chenweiz/dev/pypolo/logo.png"
       inkscape:export-xdpi="1357.38"
       inkscape:export-ydpi="1357.38" />
    <path
       style="opacity:1;fill:#000000;fill-rule:nonzero;stroke:none;stroke-width:0.264583px;stroke-linecap:butt;stroke-linejoin:miter;stroke-opacity:1"
       d="m 6.9094889,3.9828071 c -0.018166,0.020822 -0.096808,0.078272 -0.1089941,0.1249346 -0.011587,0.04437 0.020488,0.097814 0.030731,0.146721 0.010244,0.048907 0.00231,0.1107305 0.030731,0.1467211 0.029888,0.03785 0.1249745,0.058911 0.1499694,0.070693 0.018166,-0.020822 0.096808,-0.078272 0.1089941,-0.1249346 0.011587,-0.04437 -0.020488,-0.097814 -0.030731,-0.146721 -0.010244,-0.048907 -0.00231,-0.1107305 -0.030731,-0.1467211 -0.029888,-0.03785 -0.1249745,-0.058911 -0.1499694,-0.070693 z"
       id="path99833"
       inkscape:path-effect="#path-effect101939"
       inkscape:original-d="M 6.9094889,3.9828071 7.0119271,4.4718772"
       inkscape:export-filename="/home/chenweiz/dev/pypolo/logo.png"
       inkscape:export-xdpi="1357.38"
       inkscape:export-ydpi="1357.38" />
    <path
       style="opacity:1;fill:#000000;fill-rule:nonzero;stroke:none;stroke-width:0.264583px;stroke-linecap:butt;stroke-linejoin:miter;stroke-opacity:1"
       d="m 6.9404358,3.882548 c 0.008,0.028899 0.013173,0.1306154 0.047983,0.1733953 0.035097,0.043133 0.1084495,0.055731 0.1626743,0.083597 0.054225,0.027866 0.1071715,0.080171 0.1626744,0.083597 0.055048,0.0034 0.1407633,-0.051611 0.168916,-0.061933 -0.008,-0.028899 -0.013173,-0.1306154 -0.047983,-0.1733953 C 7.3996032,3.9446751 7.326251,3.9320773 7.2720262,3.9042117 7.2178014,3.8763461 7.1648547,3.8240402 7.1093518,3.820615 c -0.055048,-0.0034 -0.1407633,0.051611 -0.168916,0.061933 z"
       id="path99835"
       inkscape:path-effect="#path-effect101621"
       inkscape:original-d="M 6.9404358,3.882548 7.4826837,4.1612037"
       inkscape:export-filename="/home/chenweiz/dev/pypolo/logo.png"
       inkscape:export-xdpi="1357.38"
       inkscape:export-ydpi="1357.38" />
    <path
       style="opacity:1;fill:#000000;fill-rule:nonzero;stroke:none;stroke-width:0.42721px;stroke-linecap:butt;stroke-linejoin:miter;stroke-opacity:1"
       d="M 6.5470135,6.1159592 C 6.6096628,6.0920744 6.7881673,6.0750511 6.9229095,5.9726502 7.1227211,5.8207981 7.3640661,5.4286726 7.595751,5.092432 7.7903206,5.3126461 7.9900327,5.5593535 8.1565345,5.6349676 8.2763728,5.6893903 8.4346255,5.6602354 8.4902437,5.6652889 8.4847922,5.6097083 8.5128135,5.451251 8.4575345,5.3318053 8.3577758,5.116249 7.9689767,4.8467322 7.7246978,4.6041956 A 0.2136051,0.21360513 40.927174 0 0 7.4037385,4.6270493 C 7.1298227,4.9897646 6.693195,5.4307471 6.5819912,5.7151952 c -0.061621,0.1576205 -0.029148,0.33397 -0.034978,0.400764 z"
       id="path100151"
       inkscape:path-effect="#path-effect2492"
       inkscape:original-d="M 6.5470135,6.1159592 7.5741977,4.7557767 8.4902437,5.6652889"
       inkscape:export-filename="/home/chenweiz/dev/pypolo/logo.png"
       inkscape:export-xdpi="1357.38"
       inkscape:export-ydpi="1357.38" />
    <path
       style="opacity:1;fill:#000000;fill-rule:nonzero;stroke:none;stroke-width:0.437565px;stroke-linecap:butt;stroke-linejoin:miter;stroke-opacity:1"
       d="M 7.7254042,6.8375621 C 7.8122596,6.7928925 8.0464599,6.7278494 8.2465366,6.5695446 8.5750127,6.3096477 9.0456192,5.6779783 9.4737817,5.1573304 c 0.2061771,0.3602011 0.4152598,0.7677333 0.6097513,0.9375781 0.128296,0.1120373 0.312803,0.1508117 0.375364,0.180974 -0.0011,-0.069443 0.04114,-0.2531844 -0.0067,-0.4166588 C 10.361489,5.5492223 9.9427884,5.0623801 9.688082,4.6639582 A 0.21878261,0.21878267 49.135629 0 0 9.3382844,4.6386658 C 8.8640593,5.1868689 8.1580617,5.8645999 7.9156094,6.2832749 7.787756,6.5040567 7.7571051,6.7451809 7.7254042,6.8375621 Z"
       id="path100153"
       inkscape:path-effect="#path-effect2490"
       inkscape:original-d="M 7.7254042,6.8375621 9.5037481,4.7818005 10.458897,6.2758825"
       inkscape:export-filename="/home/chenweiz/dev/pypolo/logo.png"
       inkscape:export-xdpi="1357.38"
       inkscape:export-ydpi="1357.38" />
    <text
       xml:space="preserve"
       style="font-style:normal;font-weight:normal;font-size:1.27335px;line-height:1.25;font-family:sans-serif;fill:#000000;fill-opacity:1;stroke:none;stroke-width:0.238753"
       x="5.2623744"
       y="8.58325"
       id="text5660"
       transform="matrix(1.0158599,0.14008653,-0.14761792,0.96403128,0,0)"><tspan
         sodipodi:role="line"
         id="tspan5658"
         style="font-style:italic;font-variant:normal;font-weight:bold;font-stretch:normal;font-size:1.27335px;font-family:'EB Garamond SC';-inkscape-font-specification:'EB Garamond SC';stroke-width:0.238753"
         x="5.2623744"
         y="8.58325">PyPolo</tspan></text>
  </g>
</svg>
